<svg width="15" height="8" viewBox="0 0 15 8" fill="none" xmlns="http://www.w3.org/2000/svg">
<path d="M7.50125 8.00101C7.41368 8.0011 7.32696 7.98388 7.24607 7.95036C7.16517 7.91683 7.09169 7.86766 7.02986 7.80565L0.362391 1.13818C0.101859 0.877647 0.101859 0.455763 0.362391 0.195399C0.622922 -0.0649662 1.04481 -0.0651328 1.30517 0.195399L7.50125 6.39148L13.6973 0.195399C13.9579 -0.0651328 14.3797 -0.0651328 14.6401 0.195399C14.9005 0.45593 14.9006 0.877814 14.6401 1.13818L7.97264 7.80565C7.91081 7.86766 7.83733 7.91683 7.75644 7.95036C7.67554 7.98388 7.58882 8.0011 7.50125 8.00101Z" fill="#555555"/>
</svg>
