<svg width="32" height="32" viewBox="0 0 32 32" fill="none" xmlns="http://www.w3.org/2000/svg">
<path d="M16 32C7.1775 32 0 24.8225 0 16C0 7.1775 7.1775 0 16 0C24.8225 0 32 7.1775 32 16C32 24.8225 24.8225 32 16 32ZM16 2.28562C8.438 2.28562 2.28562 8.438 2.28562 16C2.28562 23.562 8.438 29.7144 16 29.7144C23.562 29.7144 29.7144 23.562 29.7144 16C29.7144 8.438 23.562 2.28562 16 2.28562Z" fill="#141515"/>
<path d="M21.7141 22.8571C21.4216 22.8571 21.1291 22.7456 20.9059 22.5221L9.4775 11.0937C9.03094 10.6471 9.03094 9.92402 9.4775 9.47777C9.92375 9.03146 10.6471 9.03121 11.0934 9.47777L22.5219 20.9062C22.9684 21.3528 22.9684 22.0759 22.5219 22.5221C22.416 22.6285 22.2901 22.7129 22.1514 22.7703C22.0128 22.8278 21.8642 22.8573 21.7141 22.8571Z" fill="#141515"/>
<path d="M10.2853 22.8572C9.99281 22.8572 9.70063 22.7457 9.4775 22.5222C9.03094 22.076 9.03094 21.3526 9.4775 20.9063L20.9059 9.47787C21.3525 9.0313 22.0756 9.0313 22.5219 9.47787C22.9682 9.92412 22.9684 10.6475 22.5219 11.0938L11.0934 22.5222C10.9875 22.6286 10.8615 22.713 10.7228 22.7705C10.5841 22.828 10.4354 22.8574 10.2853 22.8572Z" fill="#141515"/>
</svg>
