<svg width="20" height="20" viewBox="0 0 20 20" fill="none" xmlns="http://www.w3.org/2000/svg">
<g clip-path="url(#clip0_417_584)">
<path d="M10.4133 11.33C9.66616 11.3265 8.9239 11.2093 8.21197 10.9827C7.65319 10.7957 7.15403 10.4639 6.76542 10.021C6.37681 9.57808 6.11267 9.04 5.99996 8.46167C5.74897 7.253 6.20663 5.975 7.25463 4.955C7.36722 4.84541 7.4842 4.74044 7.6053 4.64033C8.13394 4.19772 8.76236 3.89042 9.43631 3.74494C10.1103 3.59947 10.8095 3.62019 11.4736 3.80533C12.1106 4.00872 12.669 4.40424 13.0722 4.93761C13.4754 5.47098 13.7036 6.11607 13.7256 6.78433C13.7745 7.5726 13.5176 8.34936 13.0083 8.953C12.8156 9.19564 12.5598 9.3805 12.269 9.48729C11.9782 9.59408 11.6635 9.61866 11.3596 9.55833C11.2342 9.53231 11.1154 9.48125 11.0102 9.40823C10.9049 9.33521 10.8155 9.24171 10.7473 9.13333C10.6861 9.02805 10.6467 8.9115 10.6316 8.79064C10.6165 8.66979 10.6259 8.54712 10.6593 8.43C10.951 7.328 11.2473 5.65333 11.2503 5.63667C11.2579 5.59355 11.2739 5.55235 11.2975 5.51543C11.321 5.47851 11.3516 5.44659 11.3875 5.42149C11.4234 5.39639 11.4638 5.37859 11.5066 5.36913C11.5493 5.35967 11.5935 5.35872 11.6366 5.36633C11.6797 5.37395 11.7209 5.38999 11.7579 5.41352C11.7948 5.43706 11.8267 5.46764 11.8518 5.50351C11.8769 5.53939 11.8947 5.57985 11.9042 5.6226C11.9136 5.66535 11.9146 5.70955 11.907 5.75267C11.8946 5.82233 11.6026 7.47167 11.304 8.60033C11.2934 8.63131 11.2893 8.6641 11.2919 8.69671C11.2945 8.72932 11.3037 8.76107 11.319 8.79C11.3651 8.85373 11.4346 8.89654 11.5123 8.909C11.6984 8.94007 11.8895 8.9197 12.0648 8.85008C12.2402 8.78047 12.3932 8.66425 12.5073 8.514C12.9028 8.04088 13.1009 7.43366 13.0606 6.81833C13.0447 6.28636 12.8646 5.77235 12.5449 5.34682C12.2253 4.9213 11.7818 4.60512 11.2753 4.44167C10.7173 4.28818 10.1303 4.27277 9.56507 4.39675C8.99979 4.52074 8.47316 4.7804 8.03063 5.15333C7.92363 5.24233 7.8193 5.33533 7.7193 5.43267C7.2013 5.93667 6.37363 6.98267 6.65263 8.326C6.74474 8.78719 6.95575 9.21632 7.26475 9.57087C7.57375 9.92541 7.97002 10.1931 8.4143 10.3473C9.97763 10.846 12.2243 10.9063 13.4076 9.43467C13.4637 9.36799 13.5436 9.3259 13.6303 9.31742C13.717 9.30893 13.8036 9.33472 13.8715 9.38927C13.9394 9.44381 13.9833 9.52278 13.9937 9.60926C14.0041 9.69574 13.9803 9.78287 13.9273 9.852C13.052 10.9407 11.72 11.33 10.4133 11.33Z" fill="black"/>
<path d="M9.27204 9.60163C8.91965 9.60778 8.5759 9.4923 8.29871 9.27463C7.65904 8.76263 7.64137 7.87296 7.82071 7.2673C7.88137 7.06563 7.96237 6.87063 8.06304 6.68563C8.31313 6.18099 8.71303 5.76595 9.20804 5.4973C9.50827 5.34156 9.85063 5.28651 10.1845 5.34029C10.5185 5.39408 10.8262 5.55383 11.0624 5.79596C11.3029 6.05956 11.4841 6.37169 11.5937 6.7113C11.6213 6.79406 11.6153 6.88434 11.577 6.96274C11.5388 7.04114 11.4713 7.10143 11.3891 7.13066C11.3069 7.15989 11.2166 7.15573 11.1374 7.11908C11.0582 7.08243 10.9966 7.01621 10.9657 6.93463C10.8867 6.68382 10.7553 6.45262 10.5804 6.25629C10.4428 6.11559 10.263 6.02371 10.0684 5.99464C9.87381 5.96557 9.67504 6.00092 9.50237 6.09529C9.13114 6.30466 8.8328 6.62254 8.64737 7.00629C8.56949 7.15013 8.50661 7.3016 8.45971 7.4583C8.33004 7.8963 8.35871 8.4683 8.71604 8.7543C9.10671 9.0683 9.76604 8.93563 10.137 8.61563C10.4134 8.3667 10.6508 8.0777 10.8414 7.7583C10.8645 7.72109 10.8947 7.68879 10.9302 7.66325C10.9658 7.63771 11.0061 7.61943 11.0487 7.60945C11.0913 7.59947 11.1355 7.59798 11.1787 7.60507C11.2219 7.61217 11.2633 7.6277 11.3005 7.65079C11.3377 7.67389 11.37 7.70408 11.3956 7.73965C11.4211 7.77522 11.4394 7.81548 11.4494 7.85811C11.4594 7.90075 11.4609 7.94494 11.4538 7.98815C11.4467 8.03136 11.4311 8.07275 11.408 8.10996C11.1821 8.48623 10.9008 8.82637 10.5737 9.11896C10.2092 9.42649 9.74889 9.59719 9.27204 9.60163Z" fill="black"/>
<path d="M19 20H1C0.734865 19.9997 0.480665 19.8943 0.293186 19.7068C0.105707 19.5193 0.000264804 19.2651 6.51829e-08 19V6.66664C-3.9555e-05 6.60327 0.0179833 6.54121 0.0519565 6.48772C0.0859296 6.43423 0.134445 6.39153 0.191818 6.36463C0.24919 6.33773 0.313042 6.32774 0.37589 6.33583C0.438738 6.34392 0.497978 6.36975 0.546667 6.41031L8.72533 13.2076C9.0841 13.5041 9.53494 13.6662 10.0003 13.6662C10.4657 13.6662 10.9166 13.5041 11.2753 13.2076L19.4533 6.40997C19.502 6.3694 19.5613 6.34356 19.6242 6.33548C19.6871 6.3274 19.7509 6.33742 19.8083 6.36437C19.8657 6.39131 19.9142 6.43406 19.9482 6.4876C19.9821 6.54113 20.0001 6.60324 20 6.66664V19C19.9997 19.2651 19.8943 19.5193 19.7068 19.7068C19.5193 19.8943 19.2651 19.9997 19 20ZM0.666667 7.37697V19C0.666667 19.184 0.816 19.3333 1 19.3333H19C19.0884 19.3333 19.1732 19.2982 19.2357 19.2357C19.2982 19.1732 19.3333 19.0884 19.3333 19V7.37697L11.7007 13.7203C11.2222 14.1157 10.621 14.3321 10.0003 14.3322C9.3796 14.3323 8.77826 14.1162 8.29967 13.721L0.666667 7.37697Z" fill="black"/>
<path d="M0.333984 6.99966C0.263194 6.9998 0.194198 6.9774 0.136992 6.9357C0.0797855 6.894 0.0373391 6.83518 0.0158018 6.76774C-0.00573549 6.70031 -0.00524529 6.62777 0.0172014 6.56063C0.0396481 6.49349 0.0828856 6.43525 0.14065 6.39433L3.14065 4.26766C3.21279 4.21652 3.30229 4.19613 3.38946 4.21097C3.47664 4.22582 3.55434 4.27469 3.60548 4.34683C3.65663 4.41897 3.67702 4.50847 3.66217 4.59564C3.64732 4.68281 3.59846 4.76052 3.52632 4.81166L0.526317 6.93833C0.470146 6.97828 0.402914 6.99972 0.333984 6.99966ZM19.6666 6.99966C19.5977 6.99972 19.5305 6.97828 19.4743 6.93833L16.4743 4.81166C16.4029 4.76026 16.3548 4.68274 16.3403 4.59598C16.3258 4.50922 16.3462 4.42026 16.3971 4.34848C16.4479 4.2767 16.5251 4.22793 16.6117 4.21279C16.6984 4.19765 16.7875 4.21738 16.8596 4.26766L19.8596 6.39433C19.9174 6.43521 19.9606 6.4934 19.983 6.56047C20.0055 6.62754 20.0061 6.70002 19.9846 6.76742C19.9631 6.83482 19.9208 6.89365 19.8637 6.9354C19.8066 6.97715 19.7374 6.99966 19.6666 6.99966ZM13.0803 2.33299C13.0113 2.33306 12.9439 2.31162 12.8876 2.27166L11.2943 1.14166C10.9359 0.838738 10.4826 0.671238 10.0133 0.668375C9.54407 0.665512 9.08871 0.827467 8.72665 1.12599L7.11332 2.27166C7.04118 2.3228 6.95168 2.34319 6.8645 2.32835C6.77733 2.3135 6.69963 2.26463 6.64848 2.19249C6.59734 2.12035 6.57695 2.03085 6.5918 1.94368C6.60664 1.85651 6.65551 1.7788 6.72765 1.72766L8.32098 0.59766C8.79832 0.20735 9.39665 -0.00460169 10.0132 -0.0018037C10.6298 0.000994278 11.2262 0.218367 11.7 0.612993L13.2733 1.72766C13.3311 1.76858 13.3743 1.82683 13.3968 1.89396C13.4192 1.9611 13.4197 2.03364 13.3982 2.10107C13.3766 2.16851 13.3342 2.22734 13.277 2.26903C13.2198 2.31073 13.1508 2.33313 13.08 2.33299H13.0803ZM0.550317 19.8197C0.481679 19.8198 0.414673 19.7987 0.358451 19.7594C0.302229 19.72 0.259533 19.6642 0.236193 19.5997C0.212854 19.5351 0.21001 19.4649 0.228049 19.3987C0.246089 19.3325 0.284132 19.2735 0.336984 19.2297L7.94365 12.9097C7.97733 12.8817 8.0162 12.8606 8.05802 12.8477C8.09985 12.8347 8.14381 12.8301 8.18741 12.8342C8.23101 12.8382 8.27338 12.8508 8.31211 12.8712C8.35085 12.8916 8.38518 12.9195 8.41315 12.9532C8.44112 12.9868 8.46218 13.0257 8.47514 13.0675C8.48809 13.1094 8.49268 13.1533 8.48864 13.1969C8.4846 13.2405 8.47201 13.2829 8.45159 13.3216C8.43118 13.3604 8.40333 13.3947 8.36965 13.4227L0.762984 19.7427C0.703278 19.7924 0.628028 19.8196 0.550317 19.8197ZM19.45 19.8197C19.3723 19.8197 19.297 19.7925 19.2373 19.7427L11.6306 13.4227C11.5961 13.395 11.5674 13.3607 11.5463 13.3218C11.5251 13.2829 11.5119 13.2402 11.5074 13.1961C11.503 13.1521 11.5073 13.1076 11.5203 13.0652C11.5332 13.0229 11.5544 12.9835 11.5827 12.9495C11.611 12.9154 11.6458 12.8874 11.6851 12.8669C11.7243 12.8465 11.7673 12.834 11.8114 12.8303C11.8555 12.8267 11.8999 12.8318 11.942 12.8455C11.9841 12.8592 12.0231 12.8811 12.0566 12.91L19.6633 19.23C19.7162 19.2738 19.7542 19.3328 19.7722 19.3991C19.7903 19.4653 19.7874 19.5355 19.7641 19.6C19.7408 19.6646 19.6981 19.7203 19.6418 19.7597C19.5856 19.7991 19.5186 19.8198 19.45 19.8197Z" fill="black"/>
<path d="M16.6667 9.49326C16.5783 9.49326 16.4935 9.45814 16.431 9.39563C16.3685 9.33311 16.3333 9.24833 16.3333 9.15992V2.33592C16.3323 2.34259 16.319 2.33326 16.2967 2.33326H3.70333C3.69604 2.33282 3.68874 2.33386 3.68186 2.33632C3.67499 2.33879 3.66868 2.34262 3.66333 2.34759L3.66667 9.15992C3.66667 9.24833 3.63155 9.33311 3.56904 9.39563C3.50652 9.45814 3.42174 9.49326 3.33333 9.49326C3.24493 9.49326 3.16014 9.45814 3.09763 9.39563C3.03512 9.33311 3 9.24833 3 9.15992V2.33326C3.00523 2.15171 3.08218 1.97963 3.214 1.85469C3.34582 1.72974 3.52177 1.66211 3.70333 1.66659H16.2967C16.4782 1.66211 16.6542 1.72974 16.786 1.85469C16.9178 1.97963 16.9948 2.15171 17 2.33326V9.15992C17 9.24833 16.9649 9.33311 16.9024 9.39563C16.8399 9.45814 16.7551 9.49326 16.6667 9.49326Z" fill="black"/>
</g>
<defs>
<clipPath id="clip0_417_584">
<rect width="20" height="20" fill="white"/>
</clipPath>
</defs>
</svg>
