<svg width="20" height="21" viewBox="0 0 20 21" fill="none" xmlns="http://www.w3.org/2000/svg">
<path fill-rule="evenodd" clip-rule="evenodd" d="M4.99999 0.332031H15C17.7614 0.332031 20 2.5706 20 5.33202V15.332C20 18.0934 17.7614 20.332 15 20.332H4.99999C2.23857 20.332 0 18.0934 0 15.332V5.33202C0 2.5706 2.23857 0.332031 4.99999 0.332031ZM13.9258 4.83188C13.9258 3.96255 14.6305 3.25781 15.4999 3.25781H15.5104C16.3798 3.25781 17.0845 3.96255 17.0845 4.83188C17.0845 5.70122 16.3798 6.40595 15.5104 6.40595H15.4999C14.6305 6.40595 13.9258 5.70122 13.9258 4.83188ZM10.3987 7.88532C9.89392 7.81048 9.37843 7.89669 8.92551 8.1317C8.47259 8.36671 8.10531 8.73855 7.8759 9.19433C7.64649 9.65012 7.56664 10.1666 7.64771 10.6704C7.72877 11.1742 7.96662 11.6396 8.32743 12.0004C8.68824 12.3612 9.15363 12.599 9.65741 12.6801C10.1612 12.7612 10.6777 12.6813 11.1335 12.4519C11.5893 12.2225 11.9611 11.8552 12.1961 11.4023C12.4311 10.9494 12.5173 10.4339 12.4425 9.92916C12.3662 9.41431 12.1262 8.93766 11.7582 8.56962C11.3902 8.20158 10.9135 7.96167 10.3987 7.88532ZM7.47557 5.33734C8.51625 4.79735 9.70069 4.59926 10.8604 4.77124C12.0434 4.94666 13.1386 5.4979 13.9843 6.34355C14.8299 7.18919 15.3812 8.28439 15.5566 9.46738C15.7286 10.6271 15.5305 11.8116 14.9905 12.8523C14.4505 13.8929 13.5961 14.7368 12.5489 15.2639C11.5016 15.7911 10.3148 15.9745 9.15727 15.7883C7.99973 15.602 6.93039 15.0555 6.10136 14.2265C5.27233 13.3974 4.72581 12.3281 4.53955 11.1706C4.35328 10.013 4.53676 8.82622 5.06387 7.77896C5.59098 6.73171 6.4349 5.87732 7.47557 5.33734Z" fill="black"/>
</svg>
