<svg width="21" height="21" viewBox="0 0 21 21" fill="none" xmlns="http://www.w3.org/2000/svg">
<path d="M20.9102 20.0918V12.7668C20.9102 9.1668 20.1352 6.4168 15.9352 6.4168C13.9102 6.4168 12.5602 7.5168 12.0102 8.5668H11.9602V6.7418H7.98516V20.0918H12.1352V13.4668C12.1352 11.7168 12.4602 10.0418 14.6102 10.0418C16.7352 10.0418 16.7602 12.0168 16.7602 13.5668V20.0668H20.9102V20.0918ZM1.23516 6.7418H5.38516V20.0918H1.23516V6.7418ZM3.31016 0.0917969C1.98516 0.0917969 0.910156 1.1668 0.910156 2.4918C0.910156 3.8168 1.98516 4.9168 3.31016 4.9168C4.63516 4.9168 5.71016 3.8168 5.71016 2.4918C5.71016 1.1668 4.63516 0.0917969 3.31016 0.0917969Z" fill="black"/>
</svg>
