<svg width="24" height="34" viewBox="0 0 24 34" fill="none" xmlns="http://www.w3.org/2000/svg">
<path d="M12.0651 2.65627C11.6979 2.65361 11.3984 2.94912 11.3958 3.31568C11.3931 3.68224 11.688 3.98174 12.0552 3.98439C12.4217 3.98705 12.7212 3.69221 12.7239 3.32564C12.7266 2.95908 12.4317 2.65959 12.0651 2.65627ZM12.0349 6.64058C9.47092 6.62238 7.37109 8.69087 7.3517 11.2541C7.33237 13.8172 9.40199 15.918 11.9652 15.9373L12.0008 15.9375C14.5477 15.9375 16.6292 13.8751 16.6484 11.3238C16.6678 8.76086 14.5982 6.6599 12.0349 6.64058ZM12.0007 14.6094L11.9752 14.6093C10.1443 14.5954 8.66594 13.0948 8.67976 11.264C8.6935 9.44153 10.1802 7.9685 11.9995 7.9685L12.025 7.96864C13.8559 7.98245 15.3342 9.4831 15.3204 11.3139C15.3066 13.1364 13.8199 14.6094 12.0007 14.6094ZM14.8974 3.15989C14.552 3.03731 14.1722 3.21826 14.0496 3.56397C13.9271 3.90969 14.1081 4.2892 14.4537 4.41178C17.3787 5.44845 19.3281 8.23426 19.3047 11.3439C19.302 11.7106 19.597 12.0101 19.9638 12.0129H19.9689C20.3332 12.0129 20.63 11.7189 20.6328 11.3538C20.6604 7.67844 18.3555 4.38555 14.8974 3.15989Z" fill="#FFB600"/>
<path d="M16.0747 24.9981C20.4916 19.3127 23.2519 16.348 23.2892 11.3739C23.3359 5.11561 18.257 0 11.9992 0C5.81437 0 0.758333 5.00889 0.711318 11.2046C0.673333 16.3136 3.48491 19.2742 7.93227 24.9972C3.50795 25.6583 0.711318 27.3196 0.711318 29.3516C0.711318 30.7127 1.96945 31.9341 4.25402 32.7907C6.3334 33.5705 9.08442 33.9999 12.0002 33.9999C14.9161 33.9999 17.6671 33.5705 19.7465 32.7907C22.031 31.934 23.2892 30.7126 23.2892 29.3515C23.2892 27.3207 20.4951 25.6598 16.0747 24.9981ZM2.03938 11.2146C2.08081 5.74746 6.54165 1.32812 11.9993 1.32812C17.5216 1.32812 22.0023 5.84295 21.9611 11.364C21.9258 16.0878 18.9985 18.9988 14.325 25.0911C13.4914 26.1773 12.7259 27.2042 12.0012 28.2087C11.2787 27.2036 10.5285 26.1951 9.6824 25.0907C4.81575 18.7434 2.00338 16.0523 2.03938 11.2146ZM12.0002 32.6719C6.2992 32.6719 2.03938 30.9189 2.03938 29.3516C2.03938 28.1892 4.58592 26.7208 8.86767 26.2123C9.81415 27.4542 10.644 28.5824 11.4578 29.7347C11.5191 29.8215 11.6003 29.8922 11.6946 29.9411C11.7888 29.99 11.8935 30.0155 11.9996 30.0156H12.0002C12.1064 30.0156 12.2109 29.9902 12.3052 29.9415C12.3994 29.8928 12.4806 29.8222 12.542 29.7356C13.3482 28.5983 14.2007 27.4423 15.1391 26.2131C19.4168 26.7221 21.9611 28.19 21.9611 29.3516C21.9611 30.9189 17.7013 32.6719 12.0002 32.6719Z" fill="#FFB600"/>
</svg>
