<svg width="24" height="17" viewBox="0 0 24 17" fill="none" xmlns="http://www.w3.org/2000/svg">
<path d="M21.8906 0.0625H2.10938C0.943922 0.0625 0 1.01228 0 2.17188V14.8281C0 15.9946 0.950859 16.9375 2.10938 16.9375H21.8906C23.0463 16.9375 24 15.9986 24 14.8281V2.17188C24 1.01434 23.0598 0.0625 21.8906 0.0625ZM21.5952 1.46875L13.4916 9.5297C13.0931 9.92814 12.5634 10.1475 12 10.1475C11.4366 10.1475 10.9069 9.92809 10.5071 9.52839L2.40478 1.46875H21.5952ZM1.40625 14.5419V2.45898L7.48303 8.50375L1.40625 14.5419ZM2.40567 15.5312L8.48006 9.49548L9.51408 10.5241C10.1781 11.1881 11.061 11.5538 12 11.5538C12.939 11.5538 13.8219 11.1881 14.4846 10.5254L15.5199 9.49548L21.5943 15.5312H2.40567ZM22.5938 14.5419L16.517 8.50375L22.5938 2.45898V14.5419Z" fill="white"/>
</svg>
