<svg width="22" height="14" viewBox="0 0 22 14" fill="none" xmlns="http://www.w3.org/2000/svg">
<path d="M20.8104 2.11281C20.5747 1.30955 19.8838 0.676345 19.0077 0.460052C17.407 0.0585938 11.0044 0.0585938 11.0044 0.0585938C11.0044 0.0585938 4.60196 0.0585938 3.00133 0.444832C2.14202 0.660896 1.43428 1.30966 1.19857 2.11281C0.777344 3.57994 0.777344 6.62258 0.777344 6.62258C0.777344 6.62258 0.777344 9.68055 1.19857 11.1323C1.43453 11.9355 2.12517 12.5687 3.00145 12.785C4.61881 13.1866 11.0046 13.1866 11.0046 13.1866C11.0046 13.1866 17.407 13.1866 19.0077 12.8003C19.8839 12.5841 20.5747 11.9509 20.8107 11.1478C21.2318 9.68055 21.2318 6.63803 21.2318 6.63803C21.2318 6.63803 21.2486 3.57994 20.8104 2.11281ZM8.9659 9.43347V3.81168L14.29 6.62258L8.9659 9.43347Z" fill="black"/>
</svg>
