<svg width="1560" height="4914" viewBox="0 0 1560 4914" fill="none" xmlns="http://www.w3.org/2000/svg">
<path d="M123.648 9.25686C253.315 69.9235 586.449 171.457 881.649 92.2569C919.649 82.0617 984.65 11.7569 898.149 1.25686C864.149 -2.87033 831.149 43.2569 914.149 102.257C959.149 134.245 1058.15 216.157 1366.15 247.757C1447.65 256.119 1393.15 296.257 1393.15 463.757C1401.64 1043.26 523.148 1091.76 249.148 1070.76M249.148 1070.76C195.148 1069.26 148.211 1037.38 184.148 994.757C205.648 969.257 258.384 992.257 249.148 1070.76ZM249.148 1070.76C229.148 1240.76 266.998 1500.5 1119.14 1371.76C1201.19 1359.36 1159.84 1285.57 1109.14 1306.76C1075.64 1320.76 1119.14 1509.5 1301.5 1547.5C1654.58 1621.08 1571 2023 1476 2110.5C1243.81 2324.36 652.001 2183.5 353.501 2322.5M353.501 2322.5C135.501 2648.5 1931.21 3741.67 1268 3922C993.998 3996.5 677.501 4051.5 364.001 3970C326.159 3960.16 286.593 4034.62 316.001 4040.5C356.001 4048.5 335.4 3992.9 271 3992.5C190.334 3985.17 28.9664 4075.5 7.50026 4224C-26.9997 4462.67 77.1 4868.8 475.5 4700C496.5 4691.1 548 4668 490.501 4630.5C465.128 4613.95 446 4630.5 433.501 4705C432.756 4709.44 399.001 4893.5 640.501 4913M353.501 2322.5C301.001 2311.8 290.501 2271.78 309.501 2259C356.501 2227.38 365.389 2298 353.501 2322.5Z" stroke="black" stroke-dasharray="7 7"/>
</svg>
