<svg width="125" height="125" viewBox="0 0 125 125" fill="none" xmlns="http://www.w3.org/2000/svg">
<path d="M120.091 53.753C120.036 53.777 119.984 53.8049 119.934 53.8352C119.585 53.3132 119.171 52.8589 118.708 52.4816C118.737 52.4273 118.764 52.372 118.787 52.3129C119.099 51.5227 118.759 50.6085 118.028 50.271C117.296 49.9336 116.451 50.3008 116.138 51.0911C116.115 51.1502 116.096 51.2098 116.08 51.2694C115.508 51.1694 114.917 51.1598 114.328 51.2492C114.312 51.1886 114.295 51.1285 114.273 51.0694C113.977 50.272 113.138 49.8851 112.4 50.2052C111.662 50.5253 111.304 51.4314 111.601 52.2288C111.623 52.2884 111.649 52.3446 111.677 52.3994C111.194 52.7758 110.774 53.2238 110.424 53.7241C110.374 53.6929 110.323 53.6636 110.268 53.6386C109.536 53.3012 108.691 53.6684 108.378 54.4586C108.066 55.2488 108.406 56.163 109.137 56.5005C109.191 56.5255 109.247 56.5456 109.302 56.5629C109.21 57.1816 109.201 57.8194 109.283 58.4568C109.227 58.4731 109.172 58.4914 109.117 58.5154C108.379 58.8355 108.021 59.7416 108.317 60.539C108.614 61.3364 109.452 61.7234 110.19 61.4032C110.245 61.3792 110.297 61.3513 110.348 61.321C110.696 61.843 111.111 62.2973 111.574 62.6746C111.545 62.7289 111.518 62.7842 111.494 62.8433C111.182 63.6335 111.522 64.5478 112.253 64.8852C112.985 65.2226 113.831 64.8554 114.143 64.0652C114.166 64.006 114.185 63.9464 114.201 63.8868C114.774 63.9868 115.364 63.9964 115.954 63.907C115.969 63.9676 115.986 64.0277 116.008 64.0868C116.305 64.8842 117.143 65.2712 117.881 64.951C118.619 64.6309 118.977 63.7249 118.681 62.9274C118.658 62.8678 118.633 62.8116 118.604 62.7568C119.087 62.3804 119.508 61.9325 119.857 61.4321C119.907 61.4633 119.959 61.4926 120.013 61.5176C120.745 61.8551 121.591 61.4878 121.903 60.6976C122.215 59.9074 121.876 58.9932 121.144 58.6558C121.09 58.6308 121.035 58.6106 120.979 58.5933C121.072 57.9747 121.08 57.3368 120.998 56.6995C121.054 56.6831 121.11 56.6648 121.165 56.6408C121.903 56.3207 122.261 55.4146 121.964 54.6167C121.668 53.8193 120.829 53.4324 120.091 53.7525V53.753ZM116.016 59.9329C114.813 60.4549 113.446 59.8243 112.962 58.5241C112.479 57.2239 113.063 55.7463 114.266 55.2238C115.469 54.7018 116.837 55.3324 117.32 56.6326C117.804 57.9328 117.219 59.4104 116.016 59.9329Z" fill="white"/>
<path d="M117.345 65.17C117.141 65.17 116.936 65.1253 116.742 65.0354C116.364 64.8609 116.072 64.5384 115.919 64.1264C115.907 64.0942 115.895 64.0606 115.885 64.0241C115.348 64.0966 114.806 64.0904 114.271 64.0053C114.259 64.0414 114.248 64.075 114.235 64.1067C114.074 64.5148 113.775 64.8311 113.394 64.9964C113.012 65.1618 112.594 65.157 112.216 64.9825C111.436 64.6225 111.073 63.6443 111.406 62.8017C111.418 62.77 111.432 62.7373 111.449 62.7032C111.022 62.3446 110.643 61.926 110.32 61.4568C110.288 61.4736 110.258 61.4881 110.228 61.501C109.847 61.6664 109.429 61.6616 109.051 61.4871C108.673 61.3126 108.381 60.9901 108.228 60.5782C107.912 59.7279 108.295 58.7584 109.082 58.4166C109.112 58.4036 109.143 58.3916 109.177 58.3801C109.109 57.7994 109.115 57.214 109.194 56.6357C109.161 56.6233 109.13 56.6108 109.1 56.5968C108.32 56.2368 107.956 55.2586 108.289 54.416C108.451 54.008 108.75 53.6917 109.131 53.5263C109.512 53.361 109.93 53.3658 110.308 53.5403C110.337 53.5537 110.368 53.5691 110.399 53.5869C110.73 53.1259 111.118 52.7159 111.552 52.367C111.537 52.3324 111.523 52.3002 111.511 52.2675C111.195 51.4172 111.578 50.4477 112.365 50.1059C112.747 49.9406 113.164 49.9454 113.542 50.1199C113.92 50.2943 114.213 50.6169 114.365 51.0288C114.377 51.061 114.389 51.0946 114.399 51.1312C114.937 51.0586 115.478 51.0648 116.013 51.1499C116.025 51.1139 116.036 51.0807 116.049 51.0485C116.21 50.6404 116.509 50.3241 116.89 50.1588C117.272 49.9934 117.69 49.9982 118.068 50.1727C118.848 50.5327 119.211 51.5109 118.878 52.3535C118.866 52.3852 118.852 52.4179 118.835 52.452C119.262 52.8106 119.641 53.2293 119.964 53.6984C119.996 53.6816 120.026 53.6672 120.056 53.6542C120.437 53.4888 120.855 53.4936 121.233 53.6681C121.611 53.8426 121.903 54.1651 122.056 54.5771C122.372 55.4274 121.989 56.3969 121.202 56.7386C121.172 56.7516 121.141 56.7636 121.107 56.7751C121.174 57.3558 121.169 57.9412 121.09 58.519C121.123 58.5315 121.154 58.544 121.184 58.5579C121.964 58.9179 122.328 59.8961 121.995 60.7387C121.833 61.1468 121.535 61.4631 121.153 61.6284C120.772 61.7938 120.354 61.789 119.976 61.6145C119.947 61.601 119.916 61.5856 119.885 61.5679C119.554 62.0288 119.166 62.4388 118.732 62.7878C118.747 62.8219 118.761 62.8551 118.773 62.8873C119.089 63.7376 118.705 64.7076 117.919 65.0488C117.734 65.1291 117.54 65.1695 117.345 65.1695V65.17ZM115.955 63.8015C115.999 63.8015 116.038 63.8332 116.05 63.8799C116.066 63.9433 116.082 63.9986 116.101 64.0476C116.234 64.4071 116.489 64.6888 116.819 64.8407C117.149 64.9926 117.514 64.9969 117.846 64.8527C118.533 64.5547 118.867 63.7087 118.592 62.9666C118.573 62.9171 118.55 62.8652 118.521 62.8075C118.497 62.7609 118.509 62.7017 118.549 62.6705C119.018 62.3047 119.433 61.8663 119.781 61.3679C119.811 61.3251 119.866 61.3131 119.908 61.34C119.961 61.3727 120.009 61.3991 120.054 61.4198C120.384 61.5717 120.748 61.576 121.081 61.4318C121.414 61.2876 121.674 61.0117 121.815 60.6556C122.106 59.9201 121.788 59.0665 121.108 58.7526C121.062 58.7315 121.013 58.7132 120.954 58.6944C120.906 58.6795 120.877 58.6286 120.885 58.5757C120.977 57.9595 120.984 57.3327 120.903 56.7136C120.897 56.6607 120.927 56.6108 120.975 56.5968C121.035 56.5795 121.084 56.5622 121.13 56.542C121.817 56.244 122.151 55.398 121.876 54.6559C121.742 54.2964 121.487 54.0147 121.157 53.8628C120.828 53.7109 120.463 53.7066 120.13 53.8508C120.085 53.8705 120.036 53.8955 119.983 53.9272C119.939 53.9532 119.885 53.9397 119.856 53.8964C119.518 53.3893 119.112 52.9414 118.65 52.5655C118.611 52.5333 118.6 52.4741 118.624 52.428C118.655 52.3713 118.679 52.3199 118.698 52.2708C118.989 51.5354 118.672 50.6818 117.991 50.3679C117.662 50.216 117.296 50.2117 116.964 50.3559C116.631 50.5001 116.37 50.776 116.23 51.1321C116.21 51.1812 116.193 51.234 116.176 51.2989C116.162 51.3504 116.114 51.3821 116.066 51.3739C115.496 51.2739 114.916 51.2672 114.343 51.3537C114.293 51.3609 114.247 51.3278 114.234 51.2763C114.218 51.2114 114.202 51.1581 114.184 51.1086C114.05 50.749 113.795 50.4674 113.465 50.3155C113.136 50.1636 112.771 50.1593 112.438 50.3035C111.752 50.6015 111.417 51.4475 111.693 52.1896C111.711 52.2391 111.734 52.2896 111.764 52.3487C111.787 52.3953 111.775 52.454 111.735 52.4852C111.266 52.851 110.852 53.2894 110.503 53.7878C110.474 53.8306 110.419 53.8426 110.376 53.8157C110.323 53.7825 110.275 53.7566 110.23 53.7359C109.901 53.584 109.536 53.5797 109.204 53.7239C108.871 53.8681 108.61 54.144 108.47 54.5002C108.179 55.2356 108.496 56.0892 109.177 56.4031C109.223 56.4243 109.272 56.4425 109.331 56.4613C109.379 56.4762 109.409 56.5271 109.401 56.58C109.308 57.1962 109.302 57.823 109.382 58.4426C109.389 58.4954 109.358 58.5454 109.31 58.5594C109.251 58.5767 109.201 58.594 109.155 58.6142C108.468 58.9122 108.134 59.7582 108.41 60.5003C108.543 60.8598 108.798 61.1415 109.128 61.2934C109.458 61.4453 109.823 61.4496 110.155 61.3054C110.201 61.2852 110.248 61.2612 110.302 61.229C110.346 61.203 110.4 61.2165 110.429 61.2597C110.768 61.7668 111.173 62.2148 111.635 62.5907C111.674 62.6229 111.685 62.682 111.66 62.7282C111.629 62.7863 111.606 62.8363 111.587 62.8854C111.296 63.6208 111.613 64.4744 112.293 64.7883C112.623 64.9407 112.988 64.9445 113.321 64.8003C113.653 64.6561 113.914 64.3802 114.055 64.0241C114.074 63.975 114.092 63.9202 114.108 63.8577C114.122 63.8063 114.17 63.7741 114.218 63.7828C114.789 63.8827 115.369 63.8895 115.942 63.8029C115.946 63.8025 115.951 63.802 115.956 63.802L115.955 63.8015ZM115.142 60.2225C114.816 60.2225 114.49 60.1513 114.181 60.0086C113.58 59.7312 113.116 59.2179 112.872 58.5627C112.37 57.2101 112.979 55.6682 114.23 55.125C114.837 54.8616 115.501 54.8698 116.102 55.1467C116.703 55.424 117.168 55.9373 117.412 56.5925C117.914 57.9451 117.305 59.4871 116.054 60.0302C115.759 60.1581 115.45 60.222 115.142 60.222V60.2225ZM115.142 55.1452C114.859 55.1452 114.575 55.2039 114.303 55.3216C113.152 55.8215 112.592 57.2399 113.054 58.4839C113.278 59.0867 113.706 59.5587 114.259 59.8139C114.811 60.0687 115.423 60.0759 115.981 59.8341C117.132 59.3347 117.692 57.9158 117.23 56.6718C117.006 56.069 116.578 55.597 116.025 55.3418C115.741 55.2106 115.442 55.1452 115.142 55.1452Z" fill="black"/>
<path d="M110.613 39.9483C110.558 39.9723 110.506 40.0002 110.455 40.0305C110.107 39.5085 109.692 39.0543 109.229 38.6769C109.258 38.6226 109.285 38.5673 109.308 38.5082C109.621 37.718 109.281 36.8038 108.549 36.4664C107.818 36.1289 106.972 36.4962 106.66 37.2864C106.636 37.3455 106.618 37.4051 106.602 37.4647C106.029 37.3647 105.439 37.3551 104.849 37.4445C104.834 37.3839 104.817 37.3239 104.795 37.2647C104.498 36.4673 103.66 36.0804 102.922 36.4005C102.184 36.7206 101.826 37.6267 102.122 38.4246C102.145 38.4842 102.17 38.5404 102.198 38.5952C101.715 38.9716 101.295 39.4196 100.946 39.9199C100.896 39.8887 100.844 39.8594 100.789 39.8344C100.058 39.4969 99.2121 39.8642 98.8995 40.6544C98.5875 41.4446 98.9272 42.3588 99.6586 42.6963C99.7129 42.7212 99.7681 42.7414 99.8238 42.7587C99.7312 43.3774 99.7227 44.0152 99.8046 44.6526C99.749 44.6689 99.6933 44.6872 99.6381 44.7112C98.9 45.0313 98.5421 45.9374 98.8386 46.7348C99.1351 47.5322 99.9733 47.9192 100.711 47.599C100.767 47.575 100.819 47.5471 100.869 47.5168C101.218 48.0388 101.632 48.4931 102.095 48.8704C102.066 48.9247 102.039 48.98 102.016 49.0391C101.704 49.8293 102.043 50.7435 102.775 51.081C103.506 51.4184 104.352 51.0512 104.665 50.261C104.688 50.2018 104.707 50.1422 104.723 50.0826C105.295 50.1826 105.885 50.1922 106.475 50.1028C106.49 50.1634 106.507 50.2235 106.53 50.2826C106.826 51.08 107.664 51.4669 108.403 51.1468C109.141 50.8267 109.499 49.9206 109.202 49.1232C109.18 49.0636 109.154 49.0074 109.126 48.9526C109.609 48.5762 110.029 48.1282 110.379 47.6279C110.429 47.6591 110.48 47.6884 110.535 47.7134C111.266 48.0509 112.112 47.6836 112.425 46.8934C112.737 46.1032 112.397 45.189 111.666 44.8516C111.611 44.8266 111.556 44.8064 111.501 44.7891C111.593 44.1705 111.602 43.5326 111.52 42.8952C111.575 42.8789 111.631 42.8606 111.686 42.8366C112.424 42.5165 112.782 41.6104 112.486 40.813C112.189 40.0156 111.351 39.6286 110.613 39.9488V39.9483ZM106.538 46.1282C105.334 46.6502 103.967 46.0196 103.484 44.7194C103 43.4192 103.584 41.9416 104.788 41.4191C105.991 40.8971 107.358 41.5278 107.842 42.828C108.325 44.1282 107.741 45.6057 106.538 46.1282Z" fill="white"/>
<path d="M107.865 51.3662C107.66 51.3662 107.455 51.3215 107.261 51.2317C106.883 51.0572 106.591 50.7347 106.438 50.3227C106.426 50.29 106.415 50.2564 106.404 50.2203C105.867 50.2929 105.325 50.2867 104.791 50.2016C104.779 50.2376 104.767 50.2708 104.754 50.303C104.593 50.7111 104.294 51.0274 103.913 51.1927C103.532 51.3581 103.113 51.3533 102.736 51.1788C101.956 50.8188 101.592 49.8406 101.925 48.998C101.938 48.9663 101.952 48.9336 101.968 48.8995C101.542 48.5409 101.163 48.1222 100.839 47.6531C100.808 47.6699 100.778 47.6844 100.748 47.6973C100.367 47.8627 99.9487 47.8579 99.5707 47.6834C99.1927 47.5089 98.9002 47.1864 98.7475 46.7745C98.4315 45.9242 98.8148 44.9547 99.6014 44.6129C99.6312 44.5999 99.6629 44.5879 99.6962 44.5764C99.629 43.9962 99.6348 43.4103 99.7136 42.832C99.6802 42.8195 99.649 42.807 99.6197 42.7931C98.8397 42.4331 98.476 41.4549 98.809 40.6123C98.9701 40.2042 99.2693 39.888 99.6504 39.7226C100.031 39.5573 100.449 39.5621 100.827 39.7366C100.857 39.75 100.887 39.7654 100.918 39.7832C101.25 39.3222 101.637 38.9122 102.072 38.5633C102.056 38.5291 102.043 38.496 102.031 38.4638C101.715 37.6135 102.098 36.6435 102.885 36.3022C103.266 36.1369 103.684 36.1417 104.062 36.3161C104.44 36.4906 104.732 36.8132 104.885 37.2251C104.897 37.2573 104.908 37.2909 104.919 37.3275C105.456 37.2549 105.998 37.2611 106.533 37.3462C106.544 37.3102 106.556 37.2765 106.569 37.2448C106.73 36.8367 107.029 36.5204 107.41 36.3551C107.792 36.1897 108.209 36.1945 108.587 36.369C109.367 36.729 109.731 37.7072 109.398 38.5498C109.385 38.5815 109.371 38.6142 109.355 38.6483C109.782 39.0069 110.16 39.4256 110.484 39.8947C110.515 39.8779 110.545 39.8635 110.575 39.8505C110.957 39.6851 111.374 39.6899 111.752 39.8644C112.13 40.0389 112.423 40.3614 112.575 40.7734C112.892 41.6236 112.508 42.5931 111.722 42.9349C111.692 42.9479 111.661 42.9599 111.627 42.9714C111.694 43.5521 111.688 44.1375 111.609 44.7158C111.643 44.7283 111.674 44.7408 111.703 44.7547C112.483 45.1147 112.847 46.0929 112.514 46.9355C112.353 47.3436 112.054 47.6598 111.673 47.8252C111.291 47.9905 110.874 47.9857 110.496 47.8112C110.466 47.7978 110.436 47.7824 110.405 47.7646C110.073 48.2256 109.686 48.6356 109.251 48.9846C109.267 49.0192 109.28 49.0514 109.292 49.084C109.608 49.9343 109.225 50.9038 108.438 51.2456C108.253 51.3259 108.059 51.3662 107.865 51.3662ZM106.475 49.9973C106.518 49.9973 106.557 50.029 106.569 50.0757C106.586 50.1406 106.602 50.1939 106.62 50.2434C106.754 50.603 107.009 50.8846 107.339 51.0365C107.669 51.1884 108.033 51.1927 108.366 51.0485C109.052 50.7505 109.387 49.9045 109.111 49.1624C109.093 49.1134 109.07 49.0624 109.04 49.0033C109.017 48.9567 109.029 48.898 109.069 48.8668C109.538 48.5005 109.952 48.0626 110.301 47.5642C110.33 47.5214 110.385 47.5094 110.428 47.5363C110.482 47.57 110.528 47.5954 110.573 47.6161C110.903 47.768 111.268 47.7723 111.601 47.6281C111.933 47.4839 112.194 47.208 112.335 46.8518C112.625 46.1164 112.308 45.2628 111.627 44.9489C111.582 44.9282 111.532 44.909 111.473 44.8907C111.426 44.8758 111.396 44.8249 111.404 44.772C111.496 44.1558 111.503 43.529 111.422 42.9094C111.416 42.8566 111.447 42.8066 111.494 42.7926C111.554 42.7753 111.603 42.758 111.65 42.7378C112.336 42.4398 112.67 41.5938 112.395 40.8517C112.261 40.4922 112.006 40.2105 111.676 40.0586C111.346 39.9067 110.982 39.9024 110.649 40.0466C110.603 40.0663 110.555 40.0913 110.502 40.123C110.459 40.149 110.404 40.1355 110.375 40.0922C110.037 39.5851 109.631 39.1372 109.17 38.7613C109.13 38.7291 109.119 38.67 109.144 38.6238C109.175 38.5657 109.199 38.5157 109.218 38.4666C109.509 37.7312 109.191 36.8776 108.51 36.5637C108.181 36.4118 107.816 36.4075 107.483 36.5517C107.151 36.6959 106.89 36.9718 106.749 37.3279C106.73 37.377 106.712 37.4318 106.695 37.4943C106.682 37.5457 106.634 37.5779 106.586 37.5692C106.015 37.4693 105.436 37.4625 104.862 37.5491C104.813 37.5563 104.767 37.5231 104.754 37.4717C104.738 37.4077 104.722 37.3529 104.703 37.3039C104.57 36.9444 104.315 36.6627 103.985 36.5108C103.655 36.3589 103.291 36.3546 102.958 36.4988C102.271 36.7968 101.937 37.6428 102.212 38.3849C102.231 38.4344 102.254 38.4863 102.283 38.544C102.307 38.5907 102.295 38.6498 102.255 38.681C101.786 39.0468 101.371 39.4852 101.023 39.9836C100.993 40.0264 100.938 40.0384 100.896 40.0115C100.843 39.9788 100.795 39.9524 100.75 39.9317C100.42 39.7798 100.055 39.7755 99.7229 39.9197C99.3904 40.0639 99.1295 40.3398 98.9888 40.696C98.6981 41.4314 99.0155 42.285 99.6962 42.5989C99.7421 42.6201 99.7911 42.6383 99.8503 42.6571C99.8979 42.672 99.9277 42.7229 99.9197 42.7758C99.8271 43.3925 99.8209 44.0188 99.901 44.6384C99.9077 44.6913 99.877 44.7417 99.8294 44.7552C99.7706 44.772 99.7198 44.7898 99.674 44.81C98.9875 45.108 98.6532 45.954 98.9287 46.6961C99.0623 47.0556 99.3174 47.3373 99.6473 47.4892C99.9771 47.6411 100.342 47.6454 100.674 47.5012C100.72 47.4815 100.768 47.4565 100.821 47.4248C100.865 47.3988 100.919 47.4123 100.948 47.4556C101.287 47.9627 101.692 48.4106 102.153 48.7865C102.193 48.8187 102.204 48.8778 102.179 48.924C102.148 48.9822 102.124 49.0321 102.105 49.0812C101.814 49.8166 102.132 50.6702 102.813 50.9841C103.142 51.1365 103.507 51.1403 103.84 50.9961C104.172 50.8519 104.433 50.576 104.574 50.2199C104.593 50.1708 104.61 50.118 104.628 50.0531C104.641 50.0016 104.689 49.9699 104.738 49.9781C105.308 50.0781 105.887 50.0848 106.461 49.9983C106.465 49.9978 106.47 49.9973 106.475 49.9973ZM105.661 46.4183C105.335 46.4183 105.01 46.3471 104.701 46.2044C104.1 45.927 103.635 45.4137 103.391 44.7585C102.889 43.406 103.498 41.864 104.75 41.3208C105.356 41.0579 106.021 41.0656 106.622 41.3425C107.223 41.6198 107.687 42.1332 107.931 42.7883C108.433 44.1409 107.824 45.6829 106.573 46.226C106.278 46.3539 105.969 46.4178 105.66 46.4178L105.661 46.4183ZM105.662 41.341C105.378 41.341 105.094 41.3997 104.823 41.5174C103.672 42.0168 103.111 43.4358 103.573 44.6797C103.797 45.2825 104.225 45.7545 104.778 46.0097C105.331 46.2645 105.942 46.2717 106.5 46.0299C107.651 45.5305 108.212 44.1116 107.749 42.8676C107.525 42.2649 107.097 41.7928 106.545 41.5376C106.261 41.4069 105.961 41.341 105.661 41.341H105.662Z" fill="black"/>
<path d="M20.7119 23.3393H99.9654C101.463 23.3393 102.679 24.652 102.679 26.2695V80.3318H17.998V26.269C17.998 24.652 19.2139 23.3389 20.7119 23.3389V23.3393Z" fill="white"/>
<path d="M102.68 80.4378H17.9983C17.944 80.4378 17.9004 80.3903 17.9004 80.3321V26.2693C17.9004 24.5951 19.1616 23.2334 20.7122 23.2334H99.9657C101.516 23.2334 102.777 24.5951 102.777 26.2693V80.3316C102.777 80.3903 102.733 80.4374 102.68 80.4374V80.4378ZM18.0963 80.2259H102.581V26.2693C102.581 24.7119 101.408 23.4449 99.9652 23.4449H20.7122C19.2698 23.4449 18.0963 24.7119 18.0963 26.2693V80.2259Z" fill="black"/>
<path d="M27.7756 72.471H20.6175C20.5632 72.471 20.5195 72.4234 20.5195 72.3653V41.2259C20.5195 41.1672 20.5636 41.1201 20.6175 41.1201C20.6713 41.1201 20.7154 41.1677 20.7154 41.2259V72.259H27.7756C27.8299 72.259 27.8736 72.3066 27.8736 72.3648C27.8736 72.4229 27.8295 72.4705 27.7756 72.4705V72.471Z" fill="black"/>
<path d="M100.061 49.0184C100.006 49.0184 99.9627 48.9708 99.9627 48.9127V25.9254H30.6409C30.5866 25.9254 30.543 25.8778 30.543 25.8196C30.543 25.7615 30.587 25.7139 30.6409 25.7139H100.061C100.115 25.7139 100.159 25.7615 100.159 25.8196V48.9127C100.159 48.9713 100.115 49.0184 100.061 49.0184H100.061Z" fill="black"/>
<path d="M104.151 82.6885H16.6527C12.6487 82.6885 8.96746 80.8369 7.0683 77.8674C6.42678 76.8642 6.17748 76.1846 7.30647 76.1846H113.371C114.448 76.1846 114.621 76.2658 114.083 77.2738C112.327 80.5687 108.439 82.6885 104.151 82.6885Z" fill="white"/>
<path d="M104.152 82.795H16.6534C12.612 82.795 8.90849 80.93 6.9884 77.9282C6.56235 77.262 6.31216 76.7487 6.47688 76.4098C6.58506 76.1873 6.85662 76.0791 7.30715 76.0791H113.372C113.951 76.0791 114.312 76.0959 114.436 76.3262C114.547 76.5348 114.423 76.851 114.169 77.3269C112.398 80.6483 108.467 82.795 104.152 82.795ZM7.30715 76.2911C6.94165 76.2911 6.72039 76.3641 6.6505 76.5083C6.52318 76.7698 6.85039 77.3404 7.14956 77.8081C9.03359 80.7536 12.6752 82.5835 16.6534 82.5835H104.152C108.398 82.5835 112.263 80.4791 113.999 77.2216C114.159 76.9212 114.334 76.5598 114.266 76.4324C114.196 76.3021 113.803 76.2911 113.372 76.2911H7.30715Z" fill="black"/>
<path d="M76.4609 50.2395C81.6287 48.939 84.8391 43.3498 83.6315 37.7556C82.4239 32.1614 77.2555 28.6807 72.0877 29.9812C66.9198 31.2817 63.7094 36.8709 64.9171 42.4651C66.1247 48.0593 71.293 51.54 76.4609 50.2395Z" fill="white"/>
<path d="M74.3041 50.6144C73.8994 50.6144 73.492 50.587 73.0843 50.5322C70.508 50.1846 68.2103 48.7715 66.6152 46.5532C63.3262 41.9792 64.0861 35.3662 68.3087 31.8122C70.3521 30.0924 72.8924 29.3363 75.4633 29.6828C78.0396 30.0303 80.3372 31.4435 81.9323 33.6618C85.2214 38.2358 84.4615 44.8488 80.2389 48.4028C78.52 49.8496 76.4485 50.6144 74.3041 50.6144ZM74.2435 29.8126C72.1422 29.8126 70.1131 30.562 68.4289 31.9794C64.2909 35.4619 63.5466 41.9417 66.7697 46.4234C68.3328 48.597 70.5836 49.9818 73.1083 50.3221C75.6272 50.6619 78.1162 49.9207 80.1182 48.236C84.2562 44.7536 85.0006 38.2738 81.7774 33.792C80.2144 31.6185 77.9635 30.2337 75.4388 29.8934C75.0391 29.8395 74.6397 29.8126 74.2435 29.8126Z" fill="black"/>
<path d="M69.7402 29.1569C74.2896 26.905 79.8362 28.2302 83.0549 32.6802L74.2883 40.0589C74.2883 40.0589 70.5144 30.9613 69.7407 29.1569H69.7402Z" fill="#FFD504"/>
<path d="M84.6896 40.0132C84.7413 43.0332 83.651 45.9052 81.7585 48.0076C79.9479 46.0821 74.3809 40.1434 74.3809 40.1434C74.3809 40.1434 82.9756 40.054 84.6896 40.0127V40.0132Z" fill="white"/>
<path d="M81.759 48.1136C81.7331 48.1136 81.7087 48.1026 81.69 48.0834C79.8999 46.1799 74.368 40.2788 74.3123 40.2192C74.2843 40.1889 74.2754 40.1437 74.2905 40.1043C74.3052 40.0649 74.3408 40.0385 74.3804 40.038C74.4664 40.037 82.9944 39.9481 84.6879 39.9072C84.715 39.9068 84.7391 39.9173 84.7578 39.9366C84.7764 39.9563 84.7876 39.9827 84.788 40.0111C84.8392 42.9936 83.7605 45.9353 81.8289 48.0814C81.8106 48.1016 81.7857 48.1132 81.7594 48.1136H81.7585H81.759ZM74.6177 40.2471C75.5473 41.2387 80.0828 46.0761 81.7572 47.857C83.5869 45.7839 84.6162 42.9758 84.5935 40.1211C82.8733 40.1591 75.984 40.2327 74.6177 40.2471Z" fill="black"/>
<path d="M65.1556 50.6588C67.8531 50.6588 70.0398 48.2946 70.0398 45.3782C70.0398 42.4619 67.8531 40.0977 65.1556 40.0977C62.4582 40.0977 60.2715 42.4619 60.2715 45.3782C60.2715 48.2946 62.4582 50.6588 65.1556 50.6588Z" fill="white"/>
<path d="M67.6556 50.6598C70.3531 50.6598 72.5398 48.2956 72.5398 45.3792C72.5398 42.4628 70.3531 40.0986 67.6556 40.0986C64.9582 40.0986 62.7715 42.4628 62.7715 45.3792C62.7715 48.2956 64.9582 50.6598 67.6556 50.6598Z" fill="white"/>
<path d="M67.6559 50.7658C64.9087 50.7658 62.6738 48.3495 62.6738 45.3795C62.6738 42.4095 64.9091 39.9932 67.6559 39.9932C70.4027 39.9932 72.6384 42.4095 72.6384 45.3795C72.6384 48.3495 70.4032 50.7658 67.6559 50.7658ZM67.6559 40.2051C65.0168 40.2051 62.8697 42.5263 62.8697 45.3795C62.8697 48.2327 65.0168 50.5539 67.6559 50.5539C70.295 50.5539 72.4421 48.2327 72.4421 45.3795C72.4421 42.5263 70.295 40.2051 67.6559 40.2051Z" fill="black"/>
<path d="M67.6585 49.5305C69.7794 49.5305 71.4987 47.6719 71.4987 45.379C71.4987 43.0862 69.7794 41.2275 67.6585 41.2275C65.5377 41.2275 63.8184 43.0862 63.8184 45.379C63.8184 47.6719 65.5377 49.5305 67.6585 49.5305Z" fill="white"/>
<path d="M67.6588 49.6366C65.4872 49.6366 63.7207 47.7269 63.7207 45.3793C63.7207 43.0318 65.4872 41.1221 67.6588 41.1221C69.8305 41.1221 71.597 43.0318 71.597 45.3793C71.597 47.7269 69.8305 49.6366 67.6588 49.6366ZM67.6588 41.3336C65.5954 41.3336 63.917 43.1486 63.917 45.3793C63.917 47.6101 65.5958 49.4251 67.6588 49.4251C69.7218 49.4251 71.4006 47.6101 71.4006 45.3793C71.4006 43.1486 69.7218 41.3336 67.6588 41.3336Z" fill="black"/>
<path d="M81.3808 54.6657H76.3226C76.2682 54.6657 76.2246 54.6181 76.2246 54.5599V47.6624C76.2246 47.6037 76.2687 47.5566 76.3226 47.5566C76.3764 47.5566 76.4205 47.6042 76.4205 47.6624V54.4537H81.3808C81.4351 54.4537 81.4787 54.5013 81.4787 54.5595C81.4787 54.6176 81.4346 54.6652 81.3808 54.6652V54.6657Z" fill="black"/>
<path d="M84.4591 54.5723C84.466 53.8189 83.9056 53.2021 83.2074 53.1946C82.5091 53.1871 81.9375 53.7918 81.9305 54.5451C81.9236 55.2985 82.484 55.9153 83.1822 55.9228C83.8805 55.9303 84.4521 55.3256 84.4591 54.5723Z" fill="#FFD504"/>
<path d="M54.2506 55.9192H24.2405C24.1862 55.9192 24.1426 55.8716 24.1426 55.8135V35.6409C24.1426 35.5823 24.1867 35.5352 24.2405 35.5352C24.2944 35.5352 24.3385 35.5827 24.3385 35.6409V55.7072H54.2506C54.3049 55.7072 54.3485 55.7548 54.3485 55.813C54.3485 55.8711 54.3044 55.9187 54.2506 55.9187V55.9192Z" fill="black"/>
<path d="M27.8393 41.0928H25.4883V54.648H27.8393V41.0928Z" fill="#FFD504"/>
<path d="M31.5405 47.3643H29.1895V54.6473H31.5405V47.3643Z" fill="#FFD504"/>
<path d="M35.2417 45.79H32.8906V54.6473H35.2417V45.79Z" fill="#FFD504"/>
<path d="M38.9409 41.9092H36.5898V54.6473H38.9409V41.9092Z" fill="#FFD504"/>
<path d="M42.5822 43.8281H40.3496V54.6474H42.5822V43.8281Z" fill="#FFD504"/>
<path d="M46.3432 38.4268H43.9922V54.6473H46.3432V38.4268Z" fill="#FFD504"/>
<path d="M50.0444 36.7578H47.6934V54.6482H50.0444V36.7578Z" fill="#FFD504"/>
<path d="M53.7456 35.6406H51.3945V54.6471H53.7456V35.6406Z" fill="#FFD504"/>
<path d="M30.363 48.5805C30.3545 48.5805 30.3456 48.5791 30.3376 48.5767L26.5295 47.4664C26.4774 47.451 26.4462 47.3928 26.4605 47.3366C26.4747 47.2799 26.529 47.2467 26.5807 47.2621L30.3545 48.3623L37.9223 44.6001L45.1214 41.3595L52.5102 36.289L54.7227 34.2529C54.7637 34.2149 54.826 34.2202 54.8607 34.2649C54.8959 34.3096 54.891 34.3764 54.8496 34.4139L52.6321 36.4548C52.6286 36.4582 52.625 36.461 52.621 36.4635L45.2193 41.5431C45.2144 41.5465 45.2095 41.5494 45.2046 41.5513L38.0011 44.7943L30.4044 48.5709C30.3915 48.5772 30.3777 48.5805 30.3634 48.5805H30.363Z" fill="black"/>
<path d="M37.7657 45.7536C38.2975 45.7536 38.7286 45.2795 38.7286 44.6946C38.7286 44.1098 38.2975 43.6357 37.7657 43.6357C37.2339 43.6357 36.8027 44.1098 36.8027 44.6946C36.8027 45.2795 37.2339 45.7536 37.7657 45.7536Z" fill="white"/>
<path d="M37.766 45.8596C37.181 45.8596 36.7051 45.3371 36.7051 44.6944C36.7051 44.0518 37.181 43.5293 37.766 43.5293C38.3509 43.5293 38.8268 44.0518 38.8268 44.6944C38.8268 45.3371 38.3509 45.8596 37.766 45.8596ZM37.766 43.7413C37.2892 43.7413 36.901 44.1691 36.901 44.6944C36.901 45.2198 37.2892 45.6476 37.766 45.6476C38.2428 45.6476 38.631 45.2198 38.631 44.6944C38.631 44.1691 38.2428 43.7413 37.766 43.7413Z" fill="black"/>
<path d="M45.168 42.5123C45.6998 42.5123 46.131 42.0383 46.131 41.4534C46.131 40.8686 45.6998 40.3945 45.168 40.3945C44.6362 40.3945 44.2051 40.8686 44.2051 41.4534C44.2051 42.0383 44.6362 42.5123 45.168 42.5123Z" fill="black"/>
<path d="M52.5684 37.4323C53.1002 37.4323 53.5313 36.9582 53.5313 36.3734C53.5313 35.7885 53.1002 35.3145 52.5684 35.3145C52.0366 35.3145 51.6055 35.7885 51.6055 36.3734C51.6055 36.9582 52.0366 37.4323 52.5684 37.4323Z" fill="white"/>
<path d="M52.5687 37.5383C51.9837 37.5383 51.5078 37.0158 51.5078 36.3731C51.5078 35.7305 51.9837 35.208 52.5687 35.208C53.1537 35.208 53.6296 35.7305 53.6296 36.3731C53.6296 37.0158 53.1537 37.5383 52.5687 37.5383ZM52.5687 35.42C52.0919 35.42 51.7037 35.8478 51.7037 36.3731C51.7037 36.8985 52.0919 37.3263 52.5687 37.3263C53.0455 37.3263 53.4337 36.8985 53.4337 36.3731C53.4337 35.8478 53.0455 35.42 52.5687 35.42Z" fill="black"/>
<path d="M30.3614 49.3366C30.8932 49.3366 31.3243 48.8625 31.3243 48.2777C31.3243 47.6928 30.8932 47.2188 30.3614 47.2188C29.8296 47.2188 29.3984 47.6928 29.3984 48.2777C29.3984 48.8625 29.8296 49.3366 30.3614 49.3366Z" fill="white"/>
<path d="M30.3617 49.4426C29.7767 49.4426 29.3008 48.9201 29.3008 48.2774C29.3008 47.6348 29.7767 47.1123 30.3617 47.1123C30.9466 47.1123 31.4225 47.6348 31.4225 48.2774C31.4225 48.9201 30.9466 49.4426 30.3617 49.4426ZM30.3617 47.3243C29.8849 47.3243 29.4967 47.7521 29.4967 48.2774C29.4967 48.8028 29.8849 49.2306 30.3617 49.2306C30.8385 49.2306 31.2267 48.8028 31.2267 48.2774C31.2267 47.7521 30.8385 47.3243 30.3617 47.3243Z" fill="black"/>
<path d="M9.22024 98.7427C9.23303 98.0423 8.71791 97.4633 8.06968 97.4495C7.42144 97.4357 6.88557 97.9923 6.87278 98.6927C6.85998 99.3931 7.37511 99.9721 8.02334 99.9859C8.67157 99.9997 9.20744 99.4431 9.22024 98.7427Z" fill="white"/>
<path d="M8.04784 100.098C8.04249 100.098 8.03715 100.098 8.03181 100.098C7.3302 100.089 6.76659 99.4645 6.77549 98.707C6.7795 98.3398 6.91573 97.9966 7.15925 97.7404C7.39876 97.488 7.7135 97.3496 8.04739 97.3496C8.05274 97.3496 8.05808 97.3496 8.06342 97.3496C8.76459 97.3587 9.32864 97.9831 9.31974 98.7407C9.31573 99.1079 9.1795 99.4511 8.93599 99.7073C8.69647 99.9596 8.38173 100.098 8.04784 100.098ZM8.04695 97.5611C7.7647 97.5611 7.49803 97.6779 7.29592 97.8918C7.09024 98.1086 6.97494 98.3989 6.97138 98.7094C6.96425 99.3506 7.44105 99.8784 8.03404 99.8861C8.32074 99.8914 8.59275 99.7726 8.79887 99.5559C9.00455 99.3391 9.11985 99.0488 9.12341 98.7383C9.13053 98.097 8.65374 97.5693 8.06075 97.5616C8.0563 97.5616 8.05185 97.5616 8.04739 97.5616L8.04695 97.5611Z" fill="black"/>
<path d="M5.79757 98.7067C5.80992 98.0063 5.29442 97.4277 4.64618 97.4144C3.99794 97.4011 3.46243 97.9581 3.45008 98.6585C3.43774 99.3589 3.95324 99.9376 4.60148 99.9509C5.24972 99.9642 5.78523 99.4072 5.79757 98.7067Z" fill="white"/>
<path d="M4.62206 100.053C4.61672 100.053 4.61137 100.053 4.60603 100.053C3.90442 100.044 3.34081 99.4196 3.34971 98.6621C3.35372 98.2949 3.48995 97.9517 3.73346 97.6955C3.97297 97.4431 4.28772 97.3047 4.62161 97.3047C4.62695 97.3047 4.6323 97.3047 4.63764 97.3047C5.33881 97.3138 5.90286 97.9382 5.89396 98.6957C5.88995 99.063 5.75372 99.4062 5.51021 99.6624C5.27069 99.9147 4.95595 100.053 4.62206 100.053ZM4.62117 97.5162C4.33892 97.5162 4.07225 97.633 3.87014 97.8469C3.66446 98.0637 3.54916 98.354 3.5456 98.6645C3.53847 99.3057 4.01527 99.8335 4.60826 99.8412C4.89674 99.846 5.16741 99.7277 5.37309 99.5109C5.57876 99.2942 5.69407 99.0038 5.69763 98.6933C5.70475 98.0521 5.22796 97.5244 4.63497 97.5167C4.63052 97.5167 4.62606 97.5167 4.62161 97.5167L4.62117 97.5162Z" fill="black"/>
<path d="M2.36984 98.6618C2.38218 97.9614 1.86668 97.3828 1.21844 97.3695C0.570202 97.3561 0.0346921 97.9132 0.0223491 98.6136C0.010006 99.314 0.525503 99.8926 1.17375 99.9059C1.82199 99.9193 2.3575 99.3622 2.36984 98.6618Z" fill="#FFD504"/>
<path d="M14.978 98.8794H14.9771L10.0756 98.8299C10.0213 98.8295 9.97807 98.7814 9.97852 98.7232C9.97896 98.6651 10.023 98.6185 10.0765 98.6185H10.0773L14.8809 98.667L15.0047 84.4427C15.0051 84.3845 15.0492 84.3379 15.1026 84.3379H15.1035C15.1578 84.3384 15.201 84.3864 15.2006 84.4446L15.0759 98.7747C15.0759 98.8025 15.0652 98.8295 15.0465 98.8492C15.0283 98.8684 15.0033 98.8794 14.978 98.8794Z" fill="black"/>
<path d="M86.8066 106.858C88.5914 99.8316 90.3757 92.8047 92.1605 85.7784C94.0423 85.5044 96.1907 85.3217 98.5587 85.3424C102.129 85.3741 105.245 85.8601 107.777 86.4537C108.257 87.4698 108.879 88.8753 109.511 90.5913C110.89 94.3323 111.509 97.3451 111.876 99.174C112.289 101.227 112.713 103.848 112.958 106.928C108.627 106.908 104.294 106.888 99.9628 106.869L86.8066 106.858Z" fill="black"/>
<path d="M95.8962 43.7333C96.0084 43.1008 96.3147 42.4947 96.8013 42.1486C97.2879 41.8025 97.9623 41.7602 98.4409 42.1284C98.7704 42.3822 98.9783 42.7955 99.0945 43.2224C99.277 43.891 99.2534 44.6394 98.9654 45.2556C98.6769 45.8718 98.1084 46.3323 97.4842 46.3736C96.0703 46.4678 95.6723 44.9956 95.8962 43.7333Z" fill="black"/>
<path d="M89.7313 53.9457C89.73 53.0099 89.7349 52.3201 89.466 51.4213C89.2594 50.7306 88.8922 50.123 88.7942 49.3924C88.6883 48.5988 88.9349 47.8139 89.3138 47.3025C89.6663 46.8261 90.0781 46.5329 90.6814 46.2758C91.6523 45.8624 93.1989 45.2034 94.912 45.6682C97.0934 46.2599 98.3221 48.3426 99.0366 49.5534C99.3469 50.0793 99.5722 50.5321 99.7516 50.9598C100.313 52.2966 100.585 53.3252 100.69 53.7165C101.117 55.3055 101.905 56.0736 103.268 58.1088C105.509 61.4528 107.459 64.3618 106.628 65.8989C106.181 66.7247 104.843 67.2852 103.772 67.2275C102.401 67.1535 102.287 66.1671 101.052 65.9489C98.997 65.5855 95.8166 69.5126 93.0039 68.4618C92.085 68.1186 91.5842 67.2842 91.0273 66.3555C90.6925 65.798 90.1133 64.6588 89.8921 60.7371C89.7888 58.9091 89.7349 55.9636 89.7318 53.9457H89.7313Z" fill="black"/>
<path d="M96.274 54.7959L99.5505 60.5129L95.4522 62.3361L92.1836 55.6736L96.274 54.7959Z" fill="white"/>
<path d="M98.7364 59.1971C98.7035 59.1971 98.6714 59.1793 98.6527 59.1471L96.5225 55.433C96.494 55.3835 96.5083 55.3181 96.5541 55.2873C96.6 55.2566 96.6605 55.272 96.689 55.3215L98.8192 59.0356C98.8477 59.0851 98.8335 59.1504 98.7876 59.1812C98.7716 59.1918 98.7538 59.1971 98.736 59.1971H98.7364Z" fill="black"/>
<path d="M94.9446 61.2081C94.9103 61.2081 94.8765 61.1884 94.8586 61.1533L92.7017 56.947C92.6755 56.8961 92.6928 56.8316 92.74 56.8033C92.7872 56.7749 92.8469 56.7937 92.8731 56.8446L95.03 61.0509C95.0563 61.1019 95.0389 61.1663 94.9918 61.1946C94.9766 61.2038 94.9606 61.2081 94.9446 61.2081Z" fill="black"/>
<path d="M95.5668 53.4648C95.5668 53.4648 95.8561 52.9798 96.3454 53.1519C96.8271 53.3216 97.0995 53.9536 96.9891 54.4881C96.8787 55.0226 96.4139 55.4365 95.91 55.4898C95.6251 55.5201 95.358 55.5163 95.086 55.3077C94.6893 55.8532 94.1836 56.3185 93.5879 56.5781C92.9927 56.8376 92.304 56.878 91.7105 56.6146C90.7169 56.1733 90.164 54.964 90.1119 53.8041C90.0598 52.6443 90.3314 51.769 90.6906 50.6745C91.7502 51.0153 92.4522 50.875 92.9143 50.6534C93.4049 50.4183 93.8452 49.9867 94.0482 50.1472C94.1889 50.2588 94.1208 50.5808 94.1008 50.7351C94.0313 51.2715 94.241 52.1223 95.5663 53.4643L95.5668 53.4648Z" fill="white"/>
<path d="M92.5802 56.8997C92.2632 56.8997 91.9543 56.8377 91.6733 56.7127C90.7255 56.2917 90.0742 55.152 90.0141 53.8095C89.9594 52.5862 90.2697 51.6408 90.5987 50.6395C90.616 50.5862 90.6694 50.5573 90.7189 50.5732C91.5612 50.8443 92.2864 50.8385 92.8749 50.5569C93.0374 50.479 93.1923 50.38 93.3423 50.2843C93.6656 50.0781 93.9206 49.9152 94.1063 50.0627C94.2786 50.1997 94.235 50.4963 94.206 50.6929C94.2029 50.714 94.1998 50.7333 94.1976 50.7506C94.1099 51.4274 94.5666 52.2873 95.5554 53.3082C95.7081 53.1255 96.0028 52.9203 96.3754 53.052C96.886 53.2322 97.211 53.9009 97.0846 54.5118C96.9671 55.0809 96.4769 55.5366 95.9191 55.5957C95.6742 55.6216 95.3924 55.6322 95.1066 55.4496C94.6779 56.0172 94.1668 56.4407 93.6246 56.6767C93.284 56.8252 92.927 56.8997 92.5797 56.8997H92.5802ZM90.7527 50.8044C90.3921 51.909 90.1624 52.7304 90.21 53.7994C90.2563 54.8324 90.7496 56.0735 91.7477 56.5166C92.2886 56.757 92.9461 56.7435 93.5511 56.4801C94.0854 56.247 94.5898 55.8192 95.0087 55.2429C95.0407 55.1986 95.1 55.189 95.1427 55.2217C95.3746 55.3996 95.6048 55.4159 95.9004 55.3847C96.3763 55.3342 96.7939 54.9477 96.8936 54.4656C96.9969 53.9648 96.7267 53.3981 96.3149 53.2529C95.9053 53.1087 95.6591 53.5057 95.6489 53.5226C95.6328 53.5485 95.607 53.5663 95.5785 53.5697C95.5496 53.5735 95.5207 53.5634 95.4997 53.5418C94.4081 52.4363 93.9051 51.4869 94.0039 50.7208C94.0061 50.7025 94.0092 50.6818 94.0128 50.6592C94.0302 50.5405 94.0667 50.2935 93.9905 50.2329C93.9095 50.1685 93.6615 50.3266 93.4425 50.4665C93.2947 50.5607 93.1273 50.6674 92.9546 50.7506C92.3438 51.0433 91.603 51.0611 90.7527 50.8044Z" fill="black"/>
<path d="M95.442 54.7555C95.4202 54.7555 95.3979 54.7478 95.3797 54.7315C95.3378 54.6945 95.3316 54.6277 95.3659 54.5825C95.5742 54.3085 95.8796 54.1206 96.2033 54.0667C96.2576 54.0576 96.307 54.0975 96.315 54.1552C96.3235 54.2129 96.2865 54.2672 96.2331 54.2758C95.9562 54.322 95.6953 54.4825 95.5172 54.7166C95.4977 54.7421 95.4696 54.7555 95.4411 54.7555H95.442Z" fill="black"/>
<path d="M96.242 56.1961C96.5386 55.8758 96.5386 55.3566 96.242 55.0364C95.9454 54.7161 95.4645 54.7161 95.1679 55.0364C94.8713 55.3566 94.8713 55.8758 95.1679 56.1961C95.4645 56.5163 95.9454 56.5163 96.242 56.1961Z" fill="black"/>
<path d="M66.6224 85.1907L66.9905 84.9288C68.3711 83.9473 69.9599 83.3608 71.6076 83.2248L80.5314 82.4899L80.5407 75.8115L68.4205 76.6642C67.5809 76.7233 66.7519 77.0882 65.9542 77.377L64.9569 77.7385L62.7617 81.6458L66.6219 85.1898L66.6224 85.1907Z" fill="white"/>
<path d="M66.6225 85.297C66.5998 85.297 66.5771 85.2884 66.5589 85.272L62.6986 81.7281C62.6621 81.6944 62.6532 81.6368 62.6782 81.5925L64.8734 77.6852C64.8854 77.6636 64.9041 77.6477 64.9259 77.6395L65.9231 77.2781C66.0589 77.2286 66.196 77.1771 66.3336 77.1257C67.0076 76.8724 67.7048 76.61 68.414 76.56L80.5342 75.7073C80.5622 75.7053 80.588 75.7154 80.6076 75.7356C80.6272 75.7558 80.6383 75.7837 80.6383 75.813L80.629 82.4914C80.629 82.5466 80.5894 82.5928 80.5386 82.5966L71.6148 83.3316C69.9881 83.4657 68.4073 84.0487 67.0441 85.0182L66.6759 85.2802C66.6595 85.2917 66.6408 85.2975 66.6221 85.2975L66.6225 85.297ZM62.8892 81.6247L66.6301 85.0586L66.9368 84.8404C68.328 83.8512 69.9405 83.2561 71.6006 83.1196L80.4336 82.3919L80.4429 75.9245L68.4273 76.77C67.7444 76.8181 67.0601 77.0752 66.3986 77.3242C66.2601 77.3761 66.1226 77.428 65.9859 77.4776L65.023 77.8265L62.8896 81.6238L62.8892 81.6247Z" fill="black"/>
<path d="M98 57.8051C96.2411 57.7705 93.5958 59.9758 92.5545 61.5216C91.1401 63.6211 90.1246 66.2028 89.5032 68.1327L87.7665 73.8785L72.4863 75.8892L73.3598 83.8158C79.7451 83.7004 84.4347 83.5159 85.7667 83.4144C86.8859 83.3294 87.7046 83.1448 88.1663 83.0261C88.6756 82.8948 89.0927 82.755 89.3825 82.6502C89.4315 83.116 89.5236 83.7735 89.7106 84.5426C89.931 85.4486 90.0877 86.0917 90.3579 86.534C90.9968 87.5784 92.7472 87.6818 96.2224 87.8462C98.7595 87.9659 100.028 88.0259 100.066 88.0264C102.142 88.0428 104.978 88.0245 108.426 87.8803C103.925 60.6665 99.8858 57.8426 98 57.8056V57.8051Z" fill="white"/>
<path d="M108.099 87.9995C108.046 87.9995 108.002 87.9548 108.001 87.8976C107.998 87.8389 108.041 87.7899 108.095 87.788L108.309 87.7793C108.043 86.1744 107.771 84.6108 107.5 83.1294C107.49 83.0722 107.524 83.0164 107.577 83.0049C107.63 82.9938 107.682 83.0308 107.693 83.088C107.97 84.6074 108.249 86.2138 108.522 87.8615C108.527 87.8918 108.52 87.9226 108.502 87.9466C108.484 87.9706 108.458 87.9851 108.429 87.986L108.103 87.9995C108.103 87.9995 108.1 87.9995 108.099 87.9995H108.099Z" fill="black"/>
<path d="M91.9956 87.6068C91.9894 87.6068 91.9827 87.6063 91.9765 87.6048C91.6555 87.5361 91.3523 87.4097 91.0754 87.2294C90.8983 87.1141 90.7327 86.9766 90.5831 86.8209C90.0315 86.2388 89.8565 85.5389 89.6148 84.5699C89.536 84.2551 89.459 83.8768 89.3975 83.5033C89.3584 83.2663 89.3254 83.0275 89.2983 82.7905C88.9345 82.9183 88.5615 83.0318 88.188 83.1284C87.4303 83.3235 86.6178 83.4552 85.7724 83.5197C84.5913 83.6095 80.1773 83.7984 73.3601 83.9215C73.3597 83.9215 73.3588 83.9215 73.3583 83.9215C73.3089 83.9215 73.2671 83.8816 73.2608 83.8282L72.3874 75.9016C72.3812 75.8434 72.4194 75.791 72.4729 75.7838L87.6911 73.7814L89.4087 68.0994C89.5979 67.5654 89.7826 67.0357 89.9594 66.5195C90.1726 65.897 90.3863 65.2577 90.5955 64.6185C90.6138 64.5632 90.6694 64.5343 90.7206 64.5541C90.7718 64.5733 90.7985 64.6338 90.7803 64.6891C90.571 65.3289 90.3565 65.9696 90.1432 66.593C89.9665 67.1097 89.7813 67.6409 89.5934 68.1706L87.8581 73.9116C87.8465 73.9506 87.8144 73.9789 87.7766 73.9837L72.5935 75.9819L73.4451 83.7086C80.208 83.5855 84.5842 83.3985 85.7581 83.3091C86.5929 83.2457 87.3946 83.1159 88.1417 82.9231C88.549 82.8184 88.955 82.6929 89.3495 82.5497C89.3775 82.5396 89.4082 82.5434 89.4331 82.5607C89.4581 82.578 89.4745 82.6064 89.4777 82.6381C89.5066 82.9131 89.544 83.1909 89.589 83.4639C89.65 83.834 89.7261 84.2065 89.8031 84.5151C90.0457 85.4865 90.206 86.1282 90.7188 86.6695C90.8573 86.8137 91.0113 86.9415 91.1756 87.0487C91.4329 87.2164 91.7147 87.3337 92.0134 87.3977C92.0664 87.4092 92.1011 87.465 92.0905 87.5222C92.0811 87.5726 92.0402 87.6077 91.9943 87.6077L91.9956 87.6068Z" fill="black"/>
<path d="M89.3723 82.3321C89.3242 82.3321 89.2824 82.2942 89.2752 82.2418C89.1078 81.0103 88.9654 79.7591 88.851 78.5229C88.6965 76.8506 88.5888 75.1529 88.5313 73.4759C88.5291 73.4173 88.5714 73.3682 88.6257 73.3663C88.6818 73.3639 88.7254 73.4096 88.7272 73.4682C88.7846 75.1409 88.8919 76.8343 89.046 78.5022C89.1599 79.7356 89.3024 80.9834 89.4693 82.2115C89.4774 82.2692 89.44 82.323 89.3865 82.3317C89.3816 82.3326 89.3767 82.3326 89.3723 82.3326V82.3321Z" fill="black"/>
<path d="M81.2224 76.5652L88.8284 77.105C89.262 77.1358 89.5936 76.6936 89.4775 76.2403L86.9386 66.3713C86.8669 66.092 86.6398 65.8921 86.3723 65.8733L78.7663 65.3335C78.3326 65.3028 78.001 65.745 78.1172 66.1983L80.6561 76.0673C80.7277 76.3465 80.9548 76.5465 81.2224 76.5652Z" fill="black"/>
<path d="M82.6269 67.427C82.4724 67.5736 82.4568 67.8283 82.5921 67.9956C82.7275 68.1629 82.9625 68.1797 83.117 68.0326C83.2715 67.886 83.2871 67.6313 83.1517 67.4645C83.0164 67.2972 82.7813 67.2804 82.6269 67.427Z" fill="black"/>
<path d="M83.2509 69.0402C83.2509 69.0402 82.6094 68.8407 82.9108 68.1649C83.1819 67.5564 86.6353 66.2922 92.2139 69.9376C92.7833 70.3096 93.2957 70.6504 93.7578 70.9633C93.2302 72.5308 92.1213 75.6138 90.256 77.5047C89.0019 75.7407 87.547 73.9944 85.8143 73.595C82.7537 72.8899 85.4181 72.3693 85.4181 72.3693C85.4181 72.3693 83.1116 72.1785 83.1468 71.6036C83.1931 70.8393 85.062 70.9105 85.8526 70.9749C86.0672 70.998 86.2012 71.009 86.2012 71.009C86.2012 71.009 86.0654 70.9922 85.8526 70.9749C84.9774 70.8802 82.7385 70.5812 82.5618 69.9799C82.3414 69.2315 83.2505 69.0397 83.2505 69.0397L83.2509 69.0402Z" fill="white"/>
<path d="M90.2567 77.611C90.254 77.611 90.2514 77.611 90.2487 77.611C90.2211 77.6086 90.1957 77.5937 90.1788 77.5701C88.9763 75.8787 87.5148 74.0959 85.7946 73.6993C84.4163 73.3816 84.2431 73.1105 84.2458 72.9101C84.2489 72.6842 84.5463 72.5212 84.8486 72.414C84.0926 72.3117 83.0206 72.0805 83.0496 71.5974C83.0585 71.4517 83.1199 71.3248 83.2325 71.2191C83.456 71.0095 83.8714 70.9062 84.3299 70.861C83.3852 70.6779 82.5852 70.4077 82.469 70.0126C82.404 69.7925 82.4196 69.5925 82.5153 69.418C82.6284 69.2123 82.8314 69.0878 82.9926 69.0172C82.9124 68.9552 82.8301 68.8672 82.7798 68.7461C82.7041 68.5634 82.7183 68.3524 82.8225 68.1193C82.9129 67.9169 83.2356 67.7098 83.6857 67.5651C84.4862 67.3084 87.4694 66.7138 92.2645 69.8473C92.8103 70.2039 93.3298 70.5491 93.8097 70.874C93.8489 70.9004 93.8654 70.9528 93.8498 70.9999C93.4696 72.129 92.3135 75.5643 90.323 77.5821C90.3048 77.6009 90.2807 77.611 90.2558 77.611H90.2567ZM84.9759 71.0437C84.3522 71.0437 83.6475 71.1095 83.3608 71.3787C83.2882 71.4469 83.2503 71.5229 83.245 71.6108C83.2272 71.9012 84.3633 72.1761 85.426 72.2641C85.4754 72.2684 85.5137 72.3112 85.5163 72.364C85.519 72.4174 85.4843 72.464 85.4358 72.4736C84.967 72.5654 84.4434 72.7683 84.4412 72.913C84.4412 72.9394 84.4768 73.1788 85.8351 73.4917C87.5856 73.895 89.0556 75.6532 90.2674 77.3471C92.1314 75.3999 93.2421 72.1833 93.6388 71.0076C93.1785 70.6966 92.6825 70.3674 92.163 70.028C87.4364 66.9393 84.5222 67.517 83.7414 67.7674C83.302 67.9083 83.0518 68.0914 82.9988 68.2106C82.9209 68.3851 82.9071 68.536 82.9583 68.6591C83.0416 68.86 83.2753 68.9374 83.2779 68.9383C83.3216 68.9518 83.3505 68.9955 83.3487 69.0446C83.347 69.0936 83.314 69.1345 83.2699 69.1441C83.2655 69.145 82.8408 69.2388 82.6836 69.5262C82.6173 69.6478 82.6079 69.7858 82.6556 69.9482C82.7633 70.3145 83.9925 70.6678 85.8627 70.8697C86.0728 70.887 86.2073 70.9033 86.2131 70.9043C86.266 70.911 86.3043 70.9619 86.2994 71.0196C86.2941 71.0768 86.2456 71.1191 86.1944 71.1153C86.1944 71.1153 86.0595 71.1042 85.8435 71.0807C85.6325 71.0634 85.3164 71.0437 84.9759 71.0437Z" fill="black"/>
<path d="M86.6377 69.4985C86.6297 69.4985 86.6217 69.4975 86.6137 69.4951C85.5011 69.1894 84.2755 69.1476 83.4439 69.1659C83.3883 69.1693 83.3451 69.1207 83.3438 69.0621C83.3429 69.0034 83.3856 68.9554 83.4399 68.9539C84.2844 68.9352 85.5283 68.9784 86.6622 69.2899C86.7147 69.3043 86.7463 69.362 86.733 69.4187C86.7218 69.4668 86.6818 69.4985 86.6381 69.4985H86.6377Z" fill="black"/>
<path d="M93.9303 59.9182C93.9018 59.9182 93.8738 59.9047 93.8542 59.8792C93.8199 59.8341 93.8261 59.7672 93.868 59.7302C93.8947 59.7067 94.5233 59.1515 94.8972 58.9088C94.9435 58.8785 95.0036 58.8948 95.0317 58.9448C95.0597 58.9948 95.0446 59.0602 94.9983 59.09C94.6368 59.325 93.9984 59.8884 93.9922 59.8941C93.9739 59.9105 93.9521 59.9182 93.9303 59.9182Z" fill="black"/>
<path d="M97.9451 74.2074C97.0106 69.0869 96.0762 63.9659 95.1417 58.8453C95.3723 58.667 95.6617 58.4762 96.0107 58.3104C96.6776 57.9931 97.288 57.897 97.7149 57.8706C97.7149 57.8706 98.4005 57.8417 99.0874 58.0446C102.443 59.0362 104.089 64.7984 104.659 66.9383C105.05 68.4091 107.565 75.8407 107.907 80.891C108.063 83.1905 107.401 84.8022 106.53 85.4751C102.028 88.9523 95.0385 83.4376 92.9421 81.165C92.0321 80.1787 91.0803 78.7026 90.1191 77.3505C91.9845 75.4595 93.1437 72.4727 93.6713 70.9052C95.0959 72.006 96.5209 73.1067 97.9455 74.2079L97.9451 74.2074Z" fill="white"/>
<path d="M97.9095 74.1322C97.8667 74.1322 97.8276 74.1019 97.8151 74.0553C97.4763 72.7724 97.1206 71.4761 96.7578 70.2018C96.6621 69.8658 96.5659 69.5313 96.4693 69.1982C96.4533 69.1424 96.4818 69.0828 96.5334 69.0655C96.5855 69.0478 96.6403 69.079 96.6563 69.1348C96.7533 69.4683 96.8495 69.8034 96.9452 70.1393C97.3085 71.4146 97.6646 72.7128 98.0039 73.9972C98.0186 74.0534 97.9887 74.112 97.9366 74.1279C97.9277 74.1308 97.9184 74.1322 97.9095 74.1322Z" fill="black"/>
<path d="M103.127 86.6962C101.819 86.6962 100.363 86.3218 98.7947 85.5734C96.0799 84.277 93.7952 82.2395 92.8732 81.2397C92.1792 80.4874 91.4793 79.4785 90.7381 78.4105C90.5102 78.0822 90.2747 77.7424 90.0418 77.415C90.0111 77.3718 90.0156 77.3107 90.0525 77.2732C91.7732 75.5289 92.9204 72.8276 93.5797 70.8689C93.59 70.8386 93.6118 70.8155 93.6398 70.8049C93.6679 70.7944 93.6986 70.7982 93.724 70.8155C97.5602 73.4116 98.0111 74.1215 98.0285 74.1504C98.0579 74.1994 98.045 74.2652 97.9991 74.297C97.9537 74.3287 97.8927 74.3147 97.8638 74.2652C97.8464 74.2383 97.3825 73.5481 93.7222 71.0645C93.0575 73.0088 91.9285 75.6246 90.2511 77.3617C90.467 77.6664 90.6842 77.9798 90.8953 78.2836C91.632 79.3454 92.3279 80.3485 93.0126 81.0907C93.9248 82.0799 96.1863 84.0963 98.8743 85.3801C101.02 86.4049 104.081 87.2379 106.474 85.3898C107.732 84.4183 108.098 82.5971 107.661 79.4857C107.244 76.5205 106.13 72.5478 104.72 67.5186L104.566 66.9697C104.55 66.9139 104.579 66.8548 104.631 66.8375C104.683 66.8207 104.737 66.8524 104.753 66.9082L104.908 67.4571C106.32 72.4945 107.436 76.4734 107.855 79.454C108.304 82.6543 107.914 84.538 106.588 85.5618C105.609 86.3184 104.443 86.6967 103.128 86.6967L103.127 86.6962Z" fill="black"/>
<path d="M104.66 67.0436C104.62 67.0436 104.582 67.0167 104.568 66.9734C104.459 66.6456 104.349 66.2241 104.222 65.7352C103.579 63.2651 102.503 59.1314 99.0638 58.146C98.6342 58.023 98.1823 57.9658 97.7189 57.9754C97.3315 57.9835 96.3624 58.0903 95.7324 58.8978C95.5918 59.0785 95.4845 59.2929 95.4195 59.4404C94.9689 60.4652 95.0633 61.602 95.2222 62.3749C95.2338 62.4321 95.2004 62.4883 95.1479 62.5013C95.094 62.5138 95.0424 62.4778 95.0308 62.421C94.8652 61.6159 94.7677 60.4292 95.2423 59.3501C95.3122 59.191 95.4279 58.9598 95.5824 58.7617C96.264 57.8879 97.3008 57.773 97.7148 57.7639C98.1952 57.7533 98.6667 57.8134 99.1141 57.9417C102.661 58.9583 103.756 63.1651 104.41 65.6785C104.536 66.163 104.646 66.5817 104.752 66.9023C104.771 66.9571 104.744 67.0181 104.693 67.0378C104.682 67.0422 104.671 67.0441 104.66 67.0441L104.66 67.0436Z" fill="black"/>
<path d="M100.867 76.8989C100.845 76.8989 100.823 76.8912 100.805 76.8749C100.697 76.7792 100.542 76.6389 100.35 76.4639C99.7699 75.9362 98.8929 75.1387 97.8854 74.2908C97.8427 74.2548 97.8351 74.1885 97.8685 74.1423C97.9019 74.0962 97.9633 74.088 98.006 74.124C99.0162 74.9743 99.895 75.7737 100.476 76.3024C100.668 76.4764 100.822 76.6163 100.929 76.7115C100.971 76.7485 100.977 76.8153 100.943 76.8605C100.924 76.8859 100.895 76.8994 100.867 76.8994V76.8989Z" fill="black"/>
<path d="M63.0441 64.6902C60.9802 64.1192 59.8881 63.0612 59.3125 62.1431C59.5306 61.3909 59.7488 60.6391 59.9879 59.8984C60.9103 57.0423 62.3126 54.141 64.7714 52.6976C65.2094 52.4404 65.6996 52.2309 66.1946 52.2948C66.6897 52.3587 67.1741 52.7755 67.1936 53.3143C67.2373 54.5198 65.2985 54.7457 65.0892 55.9306C65.769 55.3018 67.0102 55.7306 67.2266 56.6689C67.9064 56.7616 68.4032 57.6071 68.1917 58.3118C68.608 58.7122 68.7647 59.3985 68.5679 59.9619C68.3716 60.5257 67.8347 60.9295 67.2773 60.9328C67.2008 62.0571 67.0823 63.1785 66.9239 64.2927C66.0255 64.7512 64.6654 65.1387 63.0436 64.6902H63.0441Z" fill="white"/>
<path d="M64.4868 64.9958C64.0305 64.9958 63.5399 64.9367 63.0203 64.7929C60.8563 64.1945 59.766 63.0539 59.2318 62.2026C59.2149 62.1757 59.2104 62.1425 59.2193 62.1118C59.4352 61.3672 59.6569 60.6039 59.8956 59.8642C61.0815 56.1909 62.6611 53.8165 64.725 52.6052C65.0882 52.3918 65.6371 52.1163 66.207 52.1899C66.723 52.2562 67.2701 52.6936 67.2923 53.3103C67.3173 53.9996 66.7617 54.3889 66.2243 54.7658C65.8477 55.0297 65.4608 55.3008 65.2783 55.6718C65.5935 55.5046 65.9799 55.48 66.3615 55.6117C66.8294 55.7733 67.1775 56.1304 67.3053 56.5755C67.6325 56.6418 67.929 56.8677 68.1266 57.2037C68.3252 57.5416 68.3884 57.9295 68.3038 58.2794C68.7183 58.7159 68.8656 59.4128 68.6609 60.0002C68.4596 60.578 67.937 60.9923 67.3698 61.0361C67.2937 62.1233 67.1766 63.2245 67.0221 64.3099C67.0172 64.3445 66.9967 64.3743 66.9674 64.3897C66.3668 64.6963 65.5156 64.9967 64.4872 64.9967L64.4868 64.9958ZM63.0689 64.5877C64.6729 65.0313 65.9955 64.6401 66.8356 64.2209C66.9901 63.1274 67.1058 62.019 67.1802 60.925C67.1837 60.8697 67.226 60.8274 67.2772 60.827C67.791 60.8236 68.2954 60.4439 68.4765 59.9243C68.6577 59.4047 68.5108 58.7596 68.1266 58.3905C68.0977 58.3626 68.0866 58.3189 68.0986 58.279C68.1903 57.9728 68.14 57.6224 67.9601 57.3167C67.7807 57.0119 67.5092 56.8139 67.2144 56.774C67.1744 56.7687 67.1414 56.737 67.1316 56.6947C67.0381 56.2895 66.7278 55.9602 66.3009 55.8131C65.8749 55.6661 65.4457 55.7406 65.1528 56.0112C65.1212 56.0405 65.0758 56.0448 65.0397 56.0222C65.0036 55.9996 64.9849 55.9549 64.9925 55.9107C65.1007 55.2998 65.6171 54.9379 66.1162 54.5879C66.6304 54.2279 67.1156 53.8876 67.0951 53.3185C67.0773 52.8215 66.6077 52.4547 66.1825 52.3999C65.6674 52.3336 65.1577 52.5912 64.8176 52.7907C62.7986 53.976 61.2489 56.3126 60.0799 59.9334C59.8466 60.6558 59.6298 61.4023 59.4197 62.1257C59.9441 62.9419 60.9992 64.0157 63.068 64.5877H63.0689Z" fill="black"/>
<path d="M63.5095 61.4559C63.4214 61.4559 63.3332 61.4386 63.2473 61.3997C63.1974 61.3771 63.1738 61.3151 63.1948 61.2613C63.2157 61.2074 63.2736 61.1819 63.323 61.2045C63.6017 61.331 63.9289 61.1425 64.1078 60.8916C64.277 60.6537 64.3652 60.3499 64.4502 60.0557C64.4644 60.0058 64.4791 59.9563 64.4938 59.9067C64.5993 59.5535 64.7485 59.1593 65.0516 58.918C65.215 58.7882 65.4033 58.7181 65.5859 58.6498C65.6718 58.6176 65.7608 58.5844 65.8436 58.546C66.0631 58.4441 66.3 58.2436 66.3071 57.9874C66.3155 57.6856 66.0155 57.464 65.8356 57.3587C65.1919 56.9814 64.4124 56.8613 63.6965 57.03C62.9806 57.1982 62.3178 57.6577 61.8775 58.2903C61.845 58.3369 61.7835 58.3465 61.7403 58.3114C61.6972 58.2763 61.6883 58.21 61.7208 58.1634C62.1891 57.4909 62.8943 57.0021 63.6551 56.8233C64.4164 56.6445 65.2449 56.7718 65.9296 57.1732C66.3084 57.3953 66.5119 57.687 66.5034 57.9947C66.4949 58.2965 66.2772 58.5758 65.9215 58.7411C65.8321 58.7825 65.7399 58.8171 65.6504 58.8502C65.4741 58.9161 65.3076 58.9781 65.1683 59.0887C64.9096 59.2944 64.777 59.6505 64.6808 59.9716C64.6661 60.0207 64.6519 60.0697 64.6376 60.1187C64.5477 60.4302 64.4542 60.7527 64.2637 61.0204C64.0909 61.2632 63.802 61.4559 63.5095 61.4559Z" fill="black"/>
<path d="M65.4853 59.7885C65.2288 59.7885 64.9693 59.6904 64.7983 59.4563C64.7649 59.4102 64.7721 59.3439 64.8148 59.3078C64.8575 59.2718 64.919 59.2795 64.9524 59.3256C65.1598 59.6097 65.5623 59.6279 65.8361 59.5006C66.1023 59.3766 66.3396 59.1242 66.5604 58.7296C66.8787 58.161 67.0692 57.5101 67.1111 56.8468C67.1146 56.7887 67.1601 56.7444 67.2157 56.7483C67.2696 56.7521 67.3105 56.8026 67.307 56.8612C67.2629 57.5577 67.063 58.2417 66.7282 58.8392C66.4852 59.2732 66.2189 59.5534 65.9135 59.6952C65.7844 59.7553 65.6353 59.789 65.4853 59.789V59.7885Z" fill="black"/>
<path d="M66.4192 60.5054C65.9584 60.5054 65.5226 60.1982 65.3953 59.7651C65.3788 59.7094 65.4077 59.6498 65.4589 59.632C65.511 59.6142 65.5658 59.6454 65.5818 59.7007C65.6926 60.078 66.1035 60.3357 66.5167 60.2876C66.8808 60.2448 67.2459 59.992 67.517 59.5931C67.7561 59.2412 67.9003 58.8394 68.0637 58.351C68.0824 58.2957 68.1385 58.2679 68.1892 58.2876C68.24 58.3073 68.2667 58.3683 68.248 58.4231C68.1153 58.8201 67.9497 59.3143 67.6746 59.7185C67.371 60.165 66.9565 60.4496 66.5376 60.4981C66.498 60.5029 66.4579 60.5049 66.4183 60.5049L66.4192 60.5054Z" fill="black"/>
<path d="M67.1668 60.9985C66.8552 60.9985 66.5427 60.825 66.373 60.5409C66.3437 60.4919 66.357 60.426 66.4024 60.3948C66.4478 60.3631 66.5088 60.3775 66.5378 60.4265C66.7002 60.6995 67.0301 60.8428 67.3226 60.7678C67.3747 60.7543 67.4281 60.7894 67.4406 60.8461C67.4531 60.9029 67.4206 60.96 67.368 60.9735C67.3021 60.9903 67.2345 60.9985 67.1668 60.9985Z" fill="black"/>
<path d="M44.8693 61.1787C45.1181 61.0239 46.1292 61.8348 46.3776 61.9838C47.4549 62.6308 48.5323 63.2778 49.6096 63.9243C52.055 65.3927 54.5005 66.8607 56.9463 68.3291C58.066 66.443 58.6905 64.293 59.3138 62.1444C59.8899 63.0629 60.9815 64.1209 63.0454 64.6914C64.6672 65.1399 66.0272 64.7529 66.9256 64.2939C66.4421 67.6913 65.5807 71.0251 64.3622 74.1999C63.7924 75.6847 63.1015 77.194 61.9115 78.1573C60.7219 79.1205 59.146 79.4171 57.6733 79.2017C56.2006 78.9869 54.4764 78.3899 53.2116 77.5458C50.021 75.416 47.2452 73.8111 45.7294 70.1128C44.9712 68.2637 45.0567 64.577 44.8421 62.5669C44.8127 62.2919 44.595 61.3489 44.8693 61.1782V61.1787Z" fill="white"/>
<path d="M58.5805 79.3745C58.2769 79.3745 57.9692 79.3524 57.6598 79.3072C56.0834 79.077 54.3588 78.4368 53.1599 77.6364C52.9088 77.4687 52.6604 77.3048 52.4151 77.1423C49.5356 75.2379 47.0488 73.5936 45.6398 70.1563C45.0953 68.8283 44.9827 66.6191 44.8834 64.6705C44.8438 63.8947 44.8064 63.1622 44.7445 62.5796C44.7392 62.5311 44.728 62.4619 44.7147 62.3792C44.6243 61.8149 44.558 61.2501 44.8198 61.0872C45.0259 60.9583 45.4537 61.2088 46.1696 61.7163C46.2786 61.7937 46.3726 61.8601 46.4247 61.8913L56.9124 68.188C57.9955 66.3307 58.6179 64.1865 59.2198 62.1124C59.2309 62.0735 59.2616 62.0451 59.299 62.0393C59.3364 62.0331 59.3734 62.0509 59.3943 62.0845C59.9094 62.9055 60.9649 64.0067 63.0693 64.5888C64.7036 65.0411 66.0454 64.6258 66.8832 64.1985C66.9162 64.1817 66.9545 64.186 66.9838 64.2096C67.0128 64.2331 67.0279 64.2716 67.0221 64.3105C66.5364 67.7232 65.6719 71.0643 64.4525 74.241C63.8764 75.7417 63.177 77.2649 61.9701 78.2426C61.0597 78.9799 59.8591 79.3745 58.5805 79.3745ZM44.9177 61.2703C44.7525 61.3731 44.8656 62.0778 44.9079 62.3431C44.9222 62.4306 44.9337 62.5041 44.9391 62.5556C45.0018 63.1444 45.0392 63.8803 45.0789 64.659C45.1772 66.5898 45.2885 68.7783 45.8188 70.0708C47.2033 73.4474 49.6656 75.0764 52.5175 76.9621C52.7632 77.1245 53.0121 77.2889 53.2632 77.4567C54.4402 78.2426 56.1351 78.8713 57.6861 79.0977C59.2478 79.326 60.7668 78.9525 61.8522 78.0734C63.0217 77.1265 63.7059 75.633 64.2713 74.1603C65.4617 71.0595 66.312 67.8011 66.8004 64.472C65.9274 64.8825 64.6074 65.2334 63.0208 64.7945C61.0027 64.2365 59.9183 63.2069 59.348 62.3797C58.751 64.435 58.1202 66.5465 57.0281 68.3865C57.0001 68.4336 56.9435 68.449 56.8977 68.4221L46.3289 62.0768C46.2706 62.0418 46.1785 61.9764 46.0618 61.8937C45.8139 61.7178 45.0588 61.1833 44.9173 61.2708L44.9177 61.2703Z" fill="black"/>
<path d="M55.5199 70.2187C55.4941 70.2187 55.4683 70.2077 55.4491 70.186C55.4117 70.1437 55.413 70.0769 55.4518 70.0366C55.8484 69.6261 56.2095 69.1718 56.5256 68.6864C56.5567 68.6388 56.6177 68.6272 56.6622 68.6609C56.7068 68.6945 56.717 68.7604 56.6863 68.8085C56.3631 69.305 55.9931 69.7698 55.5876 70.1899C55.5684 70.2096 55.5439 70.2192 55.5199 70.2192V70.2187Z" fill="black"/>
<path d="M45.5941 59.3717C46.0108 59.4895 46.3353 59.8389 46.4475 60.2884C48.0911 66.8792 51.2666 77.5596 52.673 84.2264C52.9178 85.3863 53.0852 86.6129 52.7736 87.754C52.4896 88.7932 51.8249 89.6733 51.0454 90.354C50.2654 91.0351 49.3683 91.5383 48.4784 92.0368C47.2457 89.0225 46.8909 81.0517 45.9044 77.9331C44.9485 74.9116 43.99 71.8806 43.3864 68.7548C42.9634 66.5654 36.262 66.76 36.3208 64.5211C36.3373 63.8857 34.232 60.4604 34.6251 59.9404C35.5658 58.695 44.7856 59.1434 45.5945 59.3722L45.5941 59.3717Z" fill="white"/>
<path d="M48.4772 92.1434C48.4661 92.1434 48.4554 92.1414 48.4447 92.1376C48.4193 92.128 48.3984 92.1073 48.3877 92.0804C47.7088 90.4202 47.2975 87.2949 46.8999 84.2729C46.5682 81.7533 46.2553 79.3735 45.8105 77.9685C44.869 74.9923 43.8949 71.9146 43.289 68.7777C43.0945 67.7708 41.3992 67.2737 39.76 66.7936C37.9236 66.2552 36.1892 65.7471 36.2217 64.5195C36.2279 64.2835 35.8522 63.5029 35.4884 62.7483C34.7565 61.2289 34.2958 60.2084 34.5482 59.8749C35.5419 58.5598 44.8805 59.0625 45.6187 59.2711C46.0674 59.398 46.4209 59.7778 46.542 60.2628C47.1684 62.7747 48.0124 65.8635 48.9064 69.1334C50.3768 74.5135 51.8976 80.0767 52.7679 84.2047C52.9999 85.3054 53.1935 86.5912 52.8668 87.7856C52.605 88.7436 51.996 89.6607 51.106 90.438C50.3158 91.1282 49.4041 91.6387 48.5226 92.1328C48.5084 92.1405 48.4928 92.1448 48.4772 92.1448V92.1434ZM40.4754 59.2087C40.3699 59.2087 40.264 59.2087 40.1584 59.2096C37.0586 59.2279 35.0691 59.5187 34.6996 60.0075C34.5104 60.258 35.2035 61.6971 35.6621 62.6497C36.1353 63.6317 36.4247 64.248 36.4175 64.5248C36.3895 65.5856 38.1293 66.0956 39.8112 66.5888C41.5074 67.0858 43.2618 67.6001 43.4804 68.734C44.0841 71.8583 45.0559 74.9298 45.9957 77.8998C46.4463 79.324 46.7606 81.7134 47.0936 84.2431C47.4809 87.1887 47.8815 90.2322 48.5253 91.8915C49.3689 91.4185 50.2348 90.9253 50.9823 90.2726C51.841 89.5228 52.4278 88.6417 52.6784 87.7251C52.9923 86.5773 52.8031 85.3251 52.5765 84.2513C51.707 80.1296 50.1876 74.5698 48.7176 69.193C47.8232 65.9216 46.9787 62.8314 46.3519 60.3171C46.2495 59.9056 45.949 59.5831 45.5684 59.4754C45.1802 59.3658 42.8652 59.2096 40.475 59.2096L40.4754 59.2087Z" fill="black"/>
<path d="M24.0942 106.839C27.9281 95.7698 31.4852 86.032 33.3247 82.4977L49.1738 81.9795C49.1738 81.9795 50.5485 92.8257 50.4755 106.859L24.0938 106.84L24.0942 106.839Z" fill="white"/>
<path d="M39.1824 106.963C39.1722 106.963 39.1619 106.961 39.1517 106.958C39.1 106.939 39.072 106.88 39.0889 106.824L43.3128 92.9208C43.5697 92.0754 44.2277 91.4255 45.0299 91.2251L46.211 90.9304C46.2644 90.9174 46.3165 90.953 46.3285 91.0097C46.3406 91.0669 46.3081 91.1236 46.2551 91.1366L45.074 91.4313C44.3381 91.6149 43.7344 92.2109 43.4989 92.9867L39.275 106.89C39.2612 106.935 39.2229 106.963 39.182 106.963H39.1824Z" fill="black"/>
<path d="M24.0941 106.946C24.0825 106.946 24.071 106.943 24.0598 106.939C24.0091 106.918 23.9833 106.858 24.0024 106.803C28.5491 93.6816 31.657 85.4867 33.2392 82.446C33.2561 82.4138 33.2872 82.3931 33.3215 82.3922L49.1711 81.874C49.1711 81.874 49.1733 81.874 49.1742 81.874C49.2231 81.874 49.2645 81.913 49.2712 81.9653C49.285 82.0735 50.6433 92.926 50.5712 106.807C50.5712 106.865 50.5271 106.912 50.4732 106.912H50.4728C50.4185 106.912 50.3748 106.864 50.3753 106.805C50.4438 93.6277 49.2222 83.1848 49.0891 82.0884L33.3838 82.6022C31.7981 85.6746 28.704 93.8407 24.1867 106.877C24.172 106.92 24.1346 106.946 24.095 106.946L24.0941 106.946Z" fill="black"/>
<path d="M35.5654 82.5252H48.9224C49.6031 82.5252 50.0968 81.8244 49.9156 81.115C49.4984 79.4846 48.7358 76.5064 47.7115 72.5255C46.1239 66.3557 45.0991 62.0114 44.5444 60.5685C43.9901 59.126 43.8926 58.3459 41.632 58.2372C39.5481 58.1368 37.0448 57.7917 36.7981 60.3373C36.7505 60.8314 36.5012 61.2765 36.1321 61.5721L34.6523 62.7579L35.5645 82.5252H35.5654Z" fill="black"/>
<path d="M40.4547 65.3286C40.4271 65.3286 40.4012 65.3161 40.3825 65.2944L38.2933 62.8339C38.2568 62.7907 38.2594 62.7239 38.2995 62.6844C38.3396 62.645 38.4015 62.6479 38.438 62.6907L40.4404 65.0493L42.0947 62.2163C42.109 62.1918 42.1317 62.1749 42.1579 62.1692C42.1842 62.1634 42.2114 62.1692 42.2332 62.186L44.419 63.8212L44.7485 62.5378C44.7632 62.4816 44.8175 62.4484 44.8691 62.4643C44.9212 62.4797 44.9519 62.5383 44.9377 62.5946L44.5713 64.0216C44.5628 64.0548 44.5401 64.0812 44.5103 64.0928C44.4805 64.1043 44.4471 64.0995 44.4213 64.0803L42.206 62.423L40.5375 65.28C40.521 65.3079 40.4938 65.3262 40.4636 65.3291C40.4604 65.3291 40.4578 65.3291 40.4547 65.3291V65.3286Z" fill="white"/>
<path d="M53.2488 75.8535H60.1523C62.2211 75.8535 64.2649 76.3438 66.14 77.2893L64.4247 77.9742L67.7298 84.1714C68.2849 85.2121 67.1782 86.408 66.356 85.6461C66.3373 85.6288 66.3186 85.6105 66.3003 85.5913C66.5033 86.6646 65.1508 86.941 64.4652 86.0037C64.6513 86.9867 63.4168 87.4779 62.5901 86.4253C62.8915 87.5543 61.4202 87.9994 60.7475 86.8396C60.0374 85.6153 57.8533 81.5802 57.8533 81.5802H53.125L53.2488 75.8535Z" fill="white"/>
<path d="M61.7962 87.6272C61.4004 87.6272 60.9619 87.408 60.665 86.8961C60.0061 85.7603 58.0566 82.1644 57.7975 81.6862H53.1253C53.099 81.6862 53.0737 81.6746 53.0554 81.6545C53.0367 81.6343 53.0269 81.6064 53.0274 81.578L53.1511 75.8514C53.1525 75.7937 53.1961 75.748 53.2491 75.748H60.1526C62.2218 75.748 64.3066 76.2479 66.1817 77.1939C66.2178 77.2122 66.2401 77.2516 66.2383 77.2943C66.2365 77.3371 66.2116 77.3746 66.1742 77.389L64.5679 78.0302L67.8151 84.1188C68.1428 84.7326 67.93 85.3974 67.5511 85.7368C67.207 86.0444 66.7765 86.0742 66.4186 85.8276C66.4097 86.1617 66.2481 86.4323 65.9609 86.5765C65.591 86.762 65.018 86.7072 64.5786 86.2871C64.5519 86.6005 64.3845 86.8644 64.1063 87.0105C63.7439 87.2009 63.203 87.1696 62.7271 86.726C62.7222 87.0807 62.545 87.3792 62.232 87.5306C62.1007 87.594 61.9516 87.6277 61.7958 87.6277L61.7962 87.6272ZM53.2259 81.4742H57.8536C57.8884 81.4742 57.9208 81.4944 57.9382 81.5266C57.96 81.567 60.1294 85.5743 60.831 86.7832C61.1854 87.3936 61.7637 87.5234 62.1524 87.3364C62.4738 87.1816 62.6024 86.8519 62.4965 86.4544C62.4836 86.4063 62.5036 86.3554 62.5446 86.3318C62.5851 86.3083 62.6358 86.3184 62.6657 86.3568C63.1166 86.9312 63.6713 87.0033 64.0208 86.8197C64.3053 86.6702 64.4357 86.3732 64.3698 86.0247C64.3609 85.9766 64.3832 85.9281 64.4246 85.9074C64.4655 85.8867 64.5145 85.8992 64.543 85.9377C64.9308 86.4678 65.5206 86.5635 65.8786 86.3842C66.1528 86.2467 66.2717 85.9651 66.2049 85.6123C66.1964 85.5671 66.216 85.5205 66.2534 85.4983C66.2908 85.4762 66.3376 85.4825 66.3687 85.5147C66.3861 85.5325 66.403 85.5493 66.4204 85.5656C66.7876 85.9059 67.1807 85.793 67.426 85.5733C67.7323 85.2993 67.9313 84.7605 67.6455 84.2241L64.3404 78.0269C64.3262 78 64.3231 77.9673 64.3333 77.938C64.3431 77.9086 64.3645 77.8856 64.3916 77.8745L65.8839 77.2785C64.0911 76.4143 62.115 75.9586 60.1535 75.9586H53.3457L53.2268 81.4732L53.2259 81.4742Z" fill="black"/>
<path d="M60.1066 82.1775L58.2097 83.0629C57.8272 83.2412 57.3834 83.0508 57.2182 82.6375C57.0531 82.2241 57.2294 81.7439 57.6118 81.5656L59.5087 80.6802C59.8911 80.5019 60.335 80.6922 60.5002 81.1056C60.6653 81.519 60.489 81.9991 60.1066 82.1775Z" fill="white"/>
<path d="M57.9109 83.2357C57.8045 83.2357 57.6981 83.214 57.5966 83.1703C57.3847 83.0795 57.2187 82.905 57.1283 82.6791C56.9422 82.2128 57.1416 81.6692 57.573 81.4683L59.47 80.5829C59.6788 80.4853 59.9103 80.4815 60.1222 80.5723C60.3341 80.6632 60.5001 80.8376 60.5905 81.0636C60.777 81.5298 60.5776 82.0729 60.1458 82.2743L58.2488 83.1597C58.1406 83.2102 58.0258 83.2357 57.9114 83.2357H57.9109ZM59.8074 80.7184C59.7193 80.7184 59.6311 80.7381 59.5474 80.7771L57.6505 81.6625C57.3184 81.8177 57.1648 82.2359 57.3081 82.5954C57.3776 82.7694 57.5058 82.904 57.6687 82.9737C57.8312 83.0434 58.0098 83.0405 58.1705 82.9655L60.0674 82.0802C60.3995 81.9249 60.5531 81.5067 60.4098 81.1472C60.3403 80.9732 60.2121 80.8386 60.0492 80.7689C59.9708 80.7353 59.8889 80.7184 59.807 80.7184H59.8074Z" fill="black"/>
<path d="M60.8625 83.5642L58.9655 84.4496C58.5831 84.6279 58.1393 84.4376 57.9741 84.0242C57.8089 83.6108 57.9852 83.1306 58.3676 82.9523L60.2646 82.0669C60.647 81.8886 61.0908 82.0789 61.256 82.4923C61.4212 82.9057 61.2449 83.3859 60.8625 83.5642Z" fill="white"/>
<path d="M58.667 84.6234C58.5606 84.6234 58.4542 84.6017 58.3527 84.558C58.1408 84.4672 57.9748 84.2927 57.8844 84.0668C57.6979 83.6005 57.8973 83.0574 58.3291 82.856L60.2261 81.9706C60.4349 81.873 60.6664 81.8692 60.8783 81.96C61.0902 82.0509 61.2562 82.2253 61.3466 82.4512C61.5327 82.9175 61.3333 83.4611 60.9019 83.662L59.0049 84.5474C58.8968 84.5979 58.7819 84.6234 58.6675 84.6234H58.667ZM60.5635 82.1061C60.4754 82.1061 60.3872 82.1258 60.3035 82.1648L58.4066 83.0502C58.0745 83.2054 57.9209 83.6236 58.0643 83.9831C58.1337 84.1571 58.2619 84.2917 58.4249 84.3614C58.5874 84.4311 58.7659 84.4282 58.9266 84.3532L60.8235 83.4679C61.1556 83.3126 61.3092 82.8944 61.1659 82.5349C61.0964 82.3609 60.9682 82.2263 60.8053 82.1566C60.7269 82.1229 60.645 82.1061 60.5631 82.1061H60.5635Z" fill="black"/>
<path d="M61.7257 84.9519L59.8288 85.8373C59.4464 86.0156 59.0025 85.8253 58.8374 85.4119C58.6722 84.9985 58.8485 84.5183 59.2309 84.34L61.1279 83.4546C61.5103 83.2763 61.9541 83.4666 62.1193 83.88C62.2845 84.2934 62.1082 84.7736 61.7257 84.9519Z" fill="white"/>
<path d="M59.5301 86.0101C59.4237 86.0101 59.3173 85.9885 59.2158 85.9447C59.0039 85.8539 58.8378 85.6794 58.7474 85.4535C58.5613 84.9872 58.7608 84.4436 59.1922 84.2427L61.0891 83.3573C61.2979 83.2597 61.5294 83.2559 61.7413 83.3467C61.9532 83.4376 62.1193 83.6121 62.2097 83.838C62.3962 84.3042 62.1967 84.8474 61.7649 85.0488L59.868 85.9341C59.7598 85.9846 59.6449 86.0101 59.5305 86.0101H59.5301ZM61.427 83.4928C61.3389 83.4928 61.2507 83.5126 61.167 83.5515L59.2701 84.4369C58.938 84.5921 58.7844 85.0103 58.9277 85.3698C58.9972 85.5438 59.1254 85.6784 59.2883 85.7481C59.4513 85.8178 59.6293 85.8149 59.7901 85.74L61.687 84.8546C62.0191 84.6993 62.1727 84.2811 62.0293 83.9216C61.9599 83.7476 61.8317 83.613 61.6687 83.5433C61.5904 83.5097 61.5085 83.4928 61.427 83.4928Z" fill="black"/>
<path d="M62.4402 86.0859L60.8763 86.8155C60.5611 86.9626 60.1951 86.8055 60.0589 86.4647C59.9227 86.1239 60.0683 85.7283 60.3835 85.5807L61.9474 84.8511C62.2626 84.704 62.6285 84.8612 62.7648 85.202C62.901 85.5427 62.7554 85.9383 62.4402 86.0859Z" fill="white"/>
<path d="M60.6301 86.9781C60.5402 86.9781 60.4503 86.9599 60.3644 86.9229C60.1854 86.846 60.0452 86.6989 59.969 86.508C59.8119 86.1144 59.9802 85.6554 60.3448 85.4852L61.9087 84.7555C62.085 84.6734 62.2809 84.67 62.4594 84.7464C62.6384 84.8233 62.7786 84.9704 62.8552 85.1617C63.0123 85.5559 62.8441 86.0144 62.4794 86.1846L60.9155 86.9142C60.8238 86.957 60.7272 86.9786 60.6301 86.9786V86.9781ZM62.1941 84.9026C62.1237 84.9026 62.0534 84.918 61.9866 84.9493L60.4227 85.6789C60.1573 85.8029 60.0349 86.137 60.1493 86.4235C60.205 86.5624 60.3069 86.6696 60.4374 86.7253C60.5674 86.7811 60.7098 86.7787 60.838 86.7186L62.402 85.9889C62.6673 85.8649 62.7897 85.5309 62.6753 85.2444C62.6197 85.1055 62.5177 84.9983 62.3873 84.9425C62.325 84.9156 62.2595 84.9022 62.1941 84.9022V84.9026Z" fill="black"/>
<path d="M65.4939 77.5444L61.4347 79.0071C61.4347 79.0071 61.3443 80.6039 62.7974 80.2549C64.8413 79.7637 65.2562 80.6572 66.3362 80.9711C68.096 81.4825 69.0234 80.439 69.0234 80.439L65.4939 77.5439V77.5444Z" fill="white"/>
<path d="M67.2859 81.2197C66.9952 81.2197 66.6703 81.1778 66.311 81.0735C65.9847 80.9788 65.7162 80.8318 65.4562 80.69C64.8254 80.3453 64.2293 80.0194 62.8189 80.3588C62.3582 80.4698 61.9927 80.4049 61.7336 80.166C61.2995 79.7661 61.3356 79.0322 61.3374 79.0009C61.3396 78.9576 61.3663 78.9206 61.4041 78.9067L65.4634 77.444C65.515 77.4253 65.5702 77.4556 65.5876 77.5108C65.6045 77.5661 65.5769 77.6262 65.5257 77.645L61.5328 79.0841C61.5359 79.2629 61.572 79.7392 61.8618 80.0055C62.0715 80.1982 62.3791 80.2478 62.7767 80.1521C64.2556 79.7969 64.9113 80.155 65.5453 80.5011C65.8075 80.6443 66.0554 80.7798 66.3622 80.8693C68.0468 81.3591 68.9443 80.3761 68.9532 80.3665C68.9906 80.3242 69.0525 80.3227 69.0916 80.3636C69.1308 80.404 69.1321 80.4713 69.0943 80.5131C69.0627 80.5486 68.4492 81.2201 67.2859 81.2201V81.2197Z" fill="black"/>
<path d="M32.1716 63.8494C32.8674 63.0971 33.5512 62.7333 33.7796 61.6984C33.9332 61.0029 33.9652 60.0017 34.6241 59.9387C34.6241 59.9387 35.9503 59.7801 36.8625 61.4312C37.3202 62.2593 37.4546 63.2447 37.5753 64.2003C38.3579 70.4157 38.9607 79.931 37.9043 86.0984C37.7524 86.9833 37.1425 90.7094 35.3124 91.6563C34.1429 92.2615 32.6689 92.1322 31.3725 92.1322C30.0761 92.1322 25.4982 92.6422 25.1554 91.6583C25.0882 91.4655 24.8723 91.3391 24.8941 90.8555C25.4951 87.9374 27.6454 78.5986 29.1844 72.8844C30.2724 68.8445 31.0893 65.0203 32.172 63.8494H32.1716Z" fill="white"/>
<path d="M26.5498 92.3205C26.4256 92.3205 26.3049 92.3205 26.1883 92.3205C25.7645 92.3205 25.3687 92.1157 25.1025 91.7591C24.8358 91.4019 24.7347 90.9395 24.8256 90.4911C25.866 85.3263 30.4251 66.5953 31.8528 64.0593C32.0741 63.6666 32.3995 63.3546 32.7143 63.0528C33.1483 62.637 33.5579 62.2443 33.6839 61.6737C33.7111 61.5502 33.7342 61.4176 33.7587 61.2777C33.8727 60.6278 34.0013 59.8919 34.6148 59.8333C34.6548 59.8285 35.661 59.7213 36.542 60.7797C36.5781 60.823 36.5749 60.8903 36.5344 60.9292C36.4944 60.9681 36.432 60.9648 36.396 60.921C35.5822 59.9429 34.6437 60.0428 34.6344 60.0438C34.1665 60.0885 34.0574 60.7129 33.9515 61.3171C33.9265 61.4598 33.9029 61.5944 33.8744 61.7228C33.7342 62.3582 33.2819 62.7918 32.8443 63.2109C32.5402 63.5022 32.2259 63.8031 32.0202 64.1689C30.6014 66.6885 26.0556 85.3792 25.017 90.5358C24.9391 90.9213 25.0259 91.3188 25.2552 91.6259C25.4836 91.9326 25.8237 92.108 26.1878 92.1085C28.5153 92.1095 32.5527 92.1013 33.4622 92.0335C34.9883 91.9196 36.1792 91.2308 36.6479 90.1906C36.9622 89.4922 38.6192 83.794 38.597 82.9739C38.5956 82.9153 38.6379 82.8668 38.6922 82.8648C38.7457 82.8624 38.7915 82.9091 38.7933 82.9677C38.8165 83.8391 37.1523 89.5547 36.8247 90.2829C36.1044 91.8816 34.243 92.1873 33.4764 92.2445C32.6065 92.3094 28.9137 92.32 26.5498 92.32V92.3205Z" fill="black"/>
<path d="M36.8254 64.6166L43.785 75.5705H56.0428V84.2974L42.5269 85.1415C42.4882 85.1439 42.449 85.1453 42.4103 85.1449C39.7944 85.1247 37.3485 83.7331 35.8522 81.4101L31.7663 75.0677C29.2982 71.2368 30.6983 65.9221 34.6631 64.072L34.8292 63.9946C35.5468 63.6596 36.3829 63.9206 36.8254 64.6171V64.6166Z" fill="white"/>
<path d="M38.8638 84.3304C38.8491 84.3304 38.8339 84.3266 38.8201 84.3194C37.6034 83.6618 36.5492 82.6765 35.7719 81.47L31.3183 74.5571C31.2876 74.509 31.2982 74.4432 31.3428 74.4095C31.3873 74.3764 31.4483 74.3879 31.4794 74.436L35.9331 81.3489C36.6917 82.5265 37.7205 83.4883 38.9078 84.13C38.9564 84.156 38.9759 84.2199 38.9519 84.2723C38.9345 84.3093 38.9003 84.3309 38.8642 84.3309L38.8638 84.3304Z" fill="black"/>
<path d="M42.4737 85.2507C39.7999 85.2507 37.2966 83.8376 35.7714 81.4703C35.7407 81.4222 35.7514 81.3564 35.7959 81.3227C35.8404 81.2895 35.9014 81.3011 35.9326 81.3491C37.4208 83.6592 39.8645 85.0387 42.4684 85.0387L55.9446 84.1971V75.6763H48.6698C48.6155 75.6763 48.5719 75.6288 48.5719 75.5706C48.5719 75.5124 48.6159 75.4648 48.6698 75.4648H56.0425C56.0969 75.4648 56.1405 75.5124 56.1405 75.5706V84.2975C56.1405 84.3538 56.1 84.3999 56.0479 84.4033L42.4737 85.2512H42.4732L42.4737 85.2507Z" fill="black"/>
<path d="M36.5239 49.7834C36.6855 49.185 38.16 47.3305 38.6154 46.9479C39.0708 46.5653 39.7724 46.4711 40.2127 46.8739C41.2558 46.1 42.6514 45.8535 43.8263 46.362C45.0007 46.8701 45.8782 48.1727 45.8434 49.5402C45.8087 50.9072 43.4341 49.8108 43.5204 52.3271C43.3197 53.5138 42.29 54.4117 41.1872 54.5963C40.1913 54.7631 38.444 54.3098 37.8648 53.2336C37.2251 52.0449 36.1206 51.2792 36.5239 49.7839V49.7834Z" fill="black"/>
<path d="M43.0024 56.6294L42.1775 62.2719C42.1775 62.2719 38.3863 59.721 38.3582 59.6807C38.3306 59.6403 39.0042 54.8394 39.0042 54.8394C39.0042 54.8394 39.8812 53.2522 43.0024 56.6294Z" fill="white"/>
<path d="M44.3911 51.5569C44.3911 51.5569 45.8064 55.5902 44.3911 56.8889C43.5511 57.6594 40.8973 58.0637 39.2007 55.2902C39.2007 55.2902 38.0254 55.3527 37.7574 54.053C37.4894 52.7538 38.0891 52.264 39.0605 53.1782C39.0605 53.1782 40.2353 53.8247 39.8493 52.0236C39.6811 51.2392 40.3008 50.524 41.6572 50.101C44.1111 49.3353 43.8832 50.0048 44.392 51.5569H44.3911Z" fill="white"/>
<path d="M42.6388 57.5643C42.4639 57.5643 42.2827 57.5513 42.0966 57.5225C41.2743 57.3961 40.0986 56.9236 39.1459 55.3956C38.8961 55.3869 37.9074 55.2768 37.6599 54.0761C37.517 53.3845 37.6082 52.8764 37.9096 52.6832C38.2034 52.4943 38.6308 52.6385 39.1138 53.0893C39.2278 53.1485 39.5234 53.2552 39.685 53.1182C39.7994 53.0211 39.904 52.7567 39.7522 52.0477C39.5653 51.1763 40.2491 50.4298 41.6283 49.9991C43.7407 49.3397 43.9539 49.7011 44.3092 50.9446C44.3586 51.1172 44.4142 51.3123 44.4823 51.5204C44.5465 51.7031 45.9021 55.6407 44.4534 56.9693C44.1044 57.2894 43.4402 57.5638 42.6397 57.5638L42.6388 57.5643ZM39.1984 55.1846C39.2314 55.1846 39.2621 55.2023 39.2803 55.2321C40.1979 56.7318 41.3335 57.1918 42.1242 57.3134C43.1014 57.4639 43.9339 57.1683 44.3256 56.8087C45.6732 55.5729 44.3118 51.6348 44.2976 51.5949C44.2976 51.594 44.2972 51.5935 44.2967 51.5925C44.2273 51.3801 44.1703 51.1821 44.1209 51.0076C43.8057 49.9035 43.7104 49.5704 41.6817 50.2034C40.416 50.5985 39.7821 51.2537 39.9423 52.0006C40.083 52.6572 40.0367 53.0898 39.8043 53.2859C39.5043 53.5388 39.0333 53.2845 39.0132 53.2734C39.0061 53.2696 38.9994 53.2648 38.9932 53.259C38.5818 52.8716 38.2226 52.7284 38.0084 52.8658C37.7881 53.0071 37.7289 53.4431 37.85 54.031C38.097 55.2293 39.1477 55.1879 39.1926 55.185C39.1944 55.185 39.1958 55.185 39.1975 55.185L39.1984 55.1846Z" fill="black"/>
<path d="M39.2225 54.5414C39.1887 54.5414 39.1553 54.5222 39.1375 54.488C38.9843 54.1987 38.6767 54.0064 38.3655 54.0064C38.3117 54.0064 38.2676 53.9593 38.2676 53.9011C38.2676 53.8425 38.3112 53.7949 38.3651 53.7949H38.3691C38.7502 53.7949 39.1188 54.0256 39.308 54.3833C39.3347 54.4342 39.3187 54.4986 39.2715 54.5279C39.2563 54.5375 39.2394 54.5419 39.2229 54.5419L39.2225 54.5414Z" fill="black"/>
<path d="M38.6433 58.1795L38.4492 58.1487C38.4492 58.1487 38.6829 56.4318 38.8472 55.2532C38.8552 55.1955 38.9042 55.1556 38.959 55.1643C39.0124 55.1729 39.0493 55.2268 39.0413 55.2849C38.877 56.463 38.6433 58.1795 38.6433 58.1795Z" fill="black"/>
<path d="M42.7662 58.3536C42.7613 58.3536 42.756 58.3536 42.7507 58.3522C42.6972 58.343 42.6607 58.2887 42.6692 58.2311L42.7845 57.4408C42.793 57.3832 42.8433 57.3437 42.8967 57.3529C42.9501 57.362 42.9866 57.4163 42.9781 57.474L42.8628 58.2642C42.8553 58.3166 42.8134 58.3536 42.7662 58.3536Z" fill="black"/>
<path d="M19.2465 38.0571C24.1083 38.0571 28.0496 33.8149 28.0496 28.5818C28.0496 23.3487 24.1083 19.1064 19.2465 19.1064C14.3847 19.1064 10.4434 23.3487 10.4434 28.5818C10.4434 33.8149 14.3847 38.0571 19.2465 38.0571Z" fill="white"/>
<path d="M19.2468 38.1632C14.3386 38.1632 10.3457 33.865 10.3457 28.5816C10.3457 23.2981 14.3386 19 19.2468 19C24.155 19 28.1483 23.2981 28.1483 28.5816C28.1483 33.865 24.155 38.1632 19.2468 38.1632ZM19.2468 19.212C14.4468 19.212 10.5416 23.4154 10.5416 28.5816C10.5416 33.7478 14.4468 37.9512 19.2468 37.9512C24.0468 37.9512 27.952 33.7478 27.952 28.5816C27.952 23.4154 24.0468 19.212 19.2468 19.212Z" fill="black"/>
<path d="M19.2484 35.9671C17.4156 35.9671 15.6927 35.199 14.3963 33.8041C13.1004 32.4092 12.3867 30.5544 12.3867 28.5817C12.3867 26.6091 13.1004 24.7542 14.3963 23.3593C15.6922 21.9644 17.4156 21.1963 19.2484 21.1963C21.0812 21.1963 22.8041 21.9644 24.1005 23.3593C25.3964 24.7542 26.1101 26.6091 26.1101 28.5817C26.1101 30.5544 25.3964 32.4092 24.1005 33.8041C22.8045 35.199 21.0812 35.9671 19.2484 35.9671Z" fill="#FFD504"/>
<path d="M19.2474 33.6064C18.0009 33.6064 16.8287 33.0839 15.9472 32.1351C15.0658 31.1863 14.5801 29.9245 14.5801 28.5825C14.5801 27.2405 15.0658 25.9787 15.9472 25.0299C16.8287 24.0811 18.0009 23.5586 19.2474 23.5586C20.4939 23.5586 21.6661 24.0811 22.5476 25.0299C23.4291 25.9787 23.9148 27.2405 23.9148 28.5825C23.9148 29.9245 23.4291 31.1863 22.5476 32.1351C21.6661 33.0839 20.4939 33.6064 19.2474 33.6064Z" fill="white"/>
<path d="M19.2468 31.3432C18.5617 31.3432 17.9175 31.0557 17.4331 30.5347C16.9488 30.0132 16.6816 29.3201 16.6816 28.5822C16.6816 27.8444 16.9483 27.1513 17.4331 26.6298C17.9175 26.1082 18.5617 25.8213 19.2468 25.8213C19.9319 25.8213 20.5761 26.1087 21.0605 26.6298C21.5449 27.1513 21.812 27.8444 21.812 28.5822C21.812 29.3201 21.5453 30.0132 21.0605 30.5347C20.5761 31.0562 19.9319 31.3432 19.2468 31.3432Z" fill="#FFD504"/>
<path d="M19.2468 29.3393C19.0589 29.3393 18.8818 29.2604 18.7491 29.1172C18.616 28.974 18.543 28.7836 18.543 28.5813C18.543 28.3789 18.6164 28.1885 18.7491 28.0453C18.8822 27.9021 19.0589 27.8232 19.2468 27.8232C19.4347 27.8232 19.6119 27.9021 19.7445 28.0453C19.8776 28.1885 19.9506 28.3789 19.9506 28.5813C19.9506 28.7836 19.8772 28.974 19.7445 29.1172C19.6114 29.2604 19.4347 29.3393 19.2468 29.3393Z" fill="black"/>
<path d="M16.8711 27.3864L19.1887 28.7237L17.0808 27.0303L16.8711 27.3864Z" fill="black"/>
<path d="M8.99654 21.746L11.003 23.1198L11.0302 21.5994C11.0422 20.9145 10.7225 20.2718 10.1861 19.9046L9.04284 19.1221L8.99609 21.746H8.99654Z" fill="white"/>
<path d="M11.0029 23.226C10.9846 23.226 10.9664 23.2207 10.9503 23.2097L8.94388 21.8359C8.91494 21.8162 8.89758 21.7816 8.89847 21.7446L8.94521 19.1207C8.94566 19.0822 8.96569 19.0476 8.99686 19.0293C9.02802 19.0111 9.06586 19.0125 9.09569 19.0332L10.2389 19.8157C10.8003 20.1998 11.1409 20.8842 11.1284 21.6019L11.1013 23.1222C11.1004 23.1607 11.0808 23.1953 11.0496 23.2135C11.0349 23.2222 11.0189 23.226 11.0033 23.226H11.0029ZM9.09524 21.6889L10.908 22.9299L10.9316 21.5975C10.9432 20.9534 10.6369 20.3392 10.1334 19.9945L9.13754 19.3125L9.09524 21.6889Z" fill="black"/>
<path d="M8.99755 21.7471L11.004 23.1208L9.74145 23.7952C9.17251 24.099 8.4976 24.0605 7.9616 23.6933L6.81836 22.9108L8.99755 21.7471Z" fill="white"/>
<path d="M8.93697 24.1025C8.5777 24.1025 8.21933 23.9949 7.90948 23.7824L6.76624 22.9999C6.73641 22.9792 6.71905 22.9432 6.72083 22.9047C6.72261 22.8668 6.74353 22.8321 6.77514 22.8153L8.95433 21.6516C8.98505 21.6353 9.02155 21.6372 9.05049 21.6569L11.0569 23.0307C11.0868 23.0513 11.1041 23.0874 11.1024 23.1258C11.1006 23.1638 11.0797 23.1984 11.048 23.2152L9.7855 23.8896C9.51883 24.0319 9.22812 24.1025 8.93741 24.1025H8.93697ZM7.01866 22.922L8.01454 23.6036C8.51849 23.9487 9.16357 23.9857 9.69824 23.6997L10.8045 23.109L8.99173 21.8679L7.01821 22.922H7.01866Z" fill="black"/>
<path d="M15.5078 26.6172L9.51452 22.5138C9.36602 22.4121 9.322 22.1998 9.41617 22.0395L9.42142 22.0306C9.51559 21.8702 9.71219 21.8227 9.8607 21.9244L15.854 26.0278L15.5078 26.6172Z" fill="white"/>
<path d="M15.5089 26.7223C15.4911 26.7223 15.4728 26.7171 15.4563 26.706L9.46324 22.6026C9.3693 22.5382 9.30431 22.4382 9.27982 22.3209C9.25534 22.2036 9.27492 22.0835 9.33458 21.982L9.33992 21.9729C9.46279 21.7638 9.72056 21.7018 9.91421 21.8345L15.9073 25.9379C15.9291 25.9528 15.9447 25.9768 15.9505 26.0042C15.9563 26.0316 15.9514 26.0605 15.9376 26.084L15.5912 26.6733C15.5725 26.705 15.5409 26.7223 15.5084 26.7223H15.5089ZM9.69206 21.9763C9.61905 21.9763 9.54782 22.0152 9.50598 22.0868L9.50063 22.0959C9.46903 22.1493 9.45879 22.2132 9.4717 22.2752C9.48461 22.3372 9.51889 22.3901 9.56875 22.4242L15.479 26.471L15.7203 26.0605L9.81004 22.0138C9.77353 21.9888 9.73258 21.9767 9.69251 21.9767L9.69206 21.9763Z" fill="black"/>
<path d="M16.3474 27.4619L13.8942 25.7823L14.4654 24.8097L16.9186 26.4893C17.1634 26.6568 17.2361 27.0078 17.0809 27.272L17.0721 27.287C16.9169 27.5513 16.5925 27.6297 16.3478 27.4621L16.3474 27.4619Z" fill="white"/>
<path d="M16.626 27.6555C16.5121 27.6555 16.3968 27.6219 16.2935 27.5512L13.8405 25.8718C13.8187 25.8569 13.8031 25.8328 13.7973 25.8054C13.7915 25.778 13.7964 25.7492 13.8102 25.7257L14.3814 24.7533C14.4103 24.7038 14.4709 24.6893 14.5167 24.7206L16.9697 26.4C17.1104 26.4962 17.2079 26.6456 17.2439 26.8211C17.2805 26.9965 17.2511 27.1768 17.162 27.3282L17.1531 27.3431C17.0347 27.545 16.8326 27.655 16.626 27.655V27.6555ZM14.0279 25.7492L16.3981 27.3719C16.5966 27.508 16.8611 27.4445 16.9875 27.2297L16.9964 27.2148C17.0574 27.1109 17.0774 26.9874 17.0525 26.8672C17.0276 26.7471 16.9608 26.6447 16.8646 26.5784L14.4945 24.9556L14.0279 25.7492Z" fill="black"/>
</svg>
