<svg width="125" height="124" viewBox="0 0 125 124" fill="none" xmlns="http://www.w3.org/2000/svg">
<path d="M50.8926 9.02509H46.6793C46.6793 9.02509 45.2008 19.6674 41.1874 24.1463C37.3847 28.3894 30.2666 27.2253 30.2666 27.2253C30.2666 27.2253 30.2639 27.2341 30.2605 27.2477C27.5074 26.4976 24.3675 26.6622 22.2269 27.2267C18.8708 28.1123 16.4464 29.6538 16.4464 29.6538C16.4464 29.6538 11.2675 32.9266 11.3908 39.172C11.4864 44.0181 15.123 49.7872 15.0946 50.2005C14.7748 54.8258 14.417 54.6679 14.9001 56.3158C16.0717 60.3163 32.6653 58.6664 32.9607 56.8328C33.2284 55.1693 32.4573 52.3878 32.8442 48.6475C33.4547 42.7504 34.6669 40.6512 36.0465 37.0145C43.6661 36.3959 48.5901 32.0911 50.1222 25.1769C51.703 18.0439 50.8933 9.02441 50.8933 9.02441L50.8926 9.02509Z" fill="white"/>
<path d="M23.0326 58.9331C19.066 58.9331 15.3141 58.2657 14.7551 56.3576C14.4373 55.2714 14.4773 54.9218 14.6264 53.6181C14.7124 52.87 14.8297 51.8455 14.9442 50.1894C14.9333 50.1013 14.6948 49.6257 14.4421 49.1222C13.4264 47.0982 11.3129 42.8863 11.2404 39.1744C11.1171 32.9162 16.3136 29.5587 16.3665 29.5255C16.3902 29.5099 18.8485 27.9616 22.189 27.08C24.1452 26.5637 27.2744 26.2961 30.2233 27.08C30.245 27.0733 30.268 27.0712 30.2917 27.0753C30.3622 27.0868 37.3739 28.1757 41.0763 24.0444C45.0138 19.6509 46.5167 9.10885 46.531 9.00314C46.5411 8.92861 46.6048 8.87305 46.68 8.87305H50.8933C50.9712 8.87305 51.0363 8.93267 51.0431 9.00992C51.0512 9.10004 51.8372 18.1344 50.2693 25.2085C48.7033 32.2724 43.6925 36.5122 36.1536 37.1559C35.9239 37.7583 35.6989 38.3186 35.4814 38.8621C34.4162 41.5203 33.4954 43.8153 32.994 48.6621C32.7758 50.7708 32.9296 52.5874 33.0529 54.047C33.1505 55.2043 33.2277 56.1177 33.1092 56.8556C32.9282 57.9804 28.4276 58.6675 25.4462 58.8552C24.6501 58.9053 23.8369 58.9324 23.0333 58.9324L23.0326 58.9331ZM26.2654 26.8957C24.7043 26.8957 23.2813 27.1031 22.2649 27.3714C18.9718 28.2401 16.5508 29.7647 16.527 29.7803C16.4755 29.8128 11.4214 33.0842 11.5413 39.1683C11.6131 42.8118 13.7055 46.983 14.7111 48.9874C15.1237 49.8093 15.2538 50.0756 15.2444 50.2104C15.1292 51.8732 15.0113 52.9018 14.9259 53.6526C14.7782 54.94 14.7436 55.2456 15.0445 56.2729C15.6672 58.3992 21.027 58.8315 25.4273 58.555C29.7198 58.2853 32.7107 57.4343 32.8117 56.8082C32.9242 56.1069 32.8449 55.1643 32.7527 54.0727C32.6281 52.6003 32.4736 50.7688 32.6945 48.631C33.2006 43.7428 34.1276 41.4288 35.2016 38.7503C35.4292 38.1818 35.665 37.5943 35.9056 36.9607C35.9259 36.9065 35.9761 36.8686 36.0343 36.8638C43.4831 36.2594 48.4343 32.097 49.9752 25.1435C51.4273 18.5918 50.8459 10.3346 50.7544 9.1739H46.8094C46.6224 10.4071 45.0572 20.052 41.2999 24.245C37.7019 28.2597 31.115 27.4927 30.3209 27.3836C30.2904 27.3971 30.2558 27.4005 30.2206 27.391C28.9087 27.0333 27.5414 26.895 26.2654 26.895V26.8957Z" fill="black"/>
<path d="M103.418 116.639H29.8678C27.5836 116.639 25.8435 114.549 26.2087 112.245L42.0272 12.5082C42.3179 10.6739 43.8682 9.32617 45.6862 9.32617H119.236C121.521 9.32617 123.261 11.4166 122.895 13.7204L107.077 113.457C106.786 115.291 105.236 116.639 103.418 116.639Z" fill="white"/>
<path d="M103.418 116.79H29.8673C28.7527 116.79 27.6929 116.298 26.9605 115.44C26.2043 114.555 25.8756 113.381 26.0599 112.222L41.8784 12.4852C42.1826 10.5676 43.7838 9.17578 45.6858 9.17578H119.236C120.351 9.17578 121.41 9.66772 122.143 10.5256C122.899 11.4112 123.228 12.5848 123.043 13.7441L107.225 113.481C106.921 115.398 105.32 116.79 103.418 116.79ZM45.6851 9.47663C43.9322 9.47663 42.4557 10.7614 42.1752 12.5319L26.3567 112.269C26.1867 113.341 26.4902 114.426 27.1888 115.245C27.8644 116.035 28.8401 116.489 29.8667 116.489H103.417C105.17 116.489 106.646 115.204 106.927 113.433L122.745 13.6967C122.915 12.6241 122.612 11.5392 121.913 10.7207C121.238 9.92995 120.262 9.47663 119.235 9.47663H45.6851Z" fill="black"/>
<path d="M101.081 116.379H27.5299C25.2457 116.379 23.5056 114.292 23.8709 111.992L39.6893 12.4285C39.98 10.5977 41.5303 9.25195 43.3483 9.25195H116.899C119.183 9.25195 120.923 11.3389 120.558 13.6387L104.739 113.203C104.448 115.033 102.898 116.379 101.08 116.379H101.081Z" fill="white"/>
<path d="M101.081 116.531H27.53C26.4133 116.531 25.3535 116.039 24.6204 115.18C23.8655 114.296 23.5382 113.126 23.7219 111.97L39.5403 12.4058C39.8446 10.4916 41.4457 9.10254 43.3477 9.10254H116.898C118.015 9.10254 119.075 9.59447 119.808 10.453C120.562 11.3366 120.89 12.5068 120.706 13.6634L104.888 113.227C104.583 115.141 102.982 116.531 101.08 116.531H101.081ZM43.3484 9.40272C41.5955 9.40272 40.119 10.6854 39.8385 12.4526L24.02 112.016C23.8499 113.086 24.1528 114.167 24.8501 114.984C25.5256 115.776 26.5027 116.229 27.5306 116.229H101.081C102.834 116.229 104.31 114.946 104.591 113.179L120.409 13.6153C120.579 12.5461 120.276 11.4646 119.579 10.6475C118.904 9.85603 117.927 9.40272 116.899 9.40272H43.3484Z" fill="black"/>
<path d="M89.0544 18.4986H67.7338C64.3262 18.4986 61.7371 15.3769 62.305 11.953L62.803 8.95197C62.8538 8.64773 63.1126 8.4248 63.4155 8.4248H96.2552C96.6394 8.4248 96.9321 8.77716 96.8677 9.16339L96.3629 12.2044C95.7599 15.8391 92.6707 18.4993 89.0537 18.4993L89.0544 18.4986Z" fill="white"/>
<path d="M89.0558 18.6491H67.7352C66.09 18.6491 64.5295 17.922 63.4542 16.6536C62.3484 15.3492 61.8761 13.6267 62.1579 11.9287L62.656 8.92762C62.719 8.54884 63.0388 8.27441 63.4169 8.27441H96.2566C96.4815 8.27441 96.695 8.37334 96.8413 8.54681C96.9918 8.72366 97.0555 8.95743 97.0175 9.18849L96.5127 12.2295C95.8954 15.9495 92.7588 18.6498 89.0551 18.6498L89.0558 18.6491ZM63.4169 8.57527C63.1865 8.57527 62.9914 8.74399 62.9528 8.97708L62.4547 11.9782C62.1871 13.5895 62.635 15.2225 63.6839 16.4591C64.7016 17.6598 66.1781 18.3482 67.7352 18.3482H89.0558C92.6118 18.3482 95.6237 15.7537 96.2166 12.1794L96.7214 9.13835C96.7451 8.99538 96.7051 8.85037 96.6123 8.74128C96.5229 8.63557 96.3934 8.57527 96.2572 8.57527H63.4176H63.4169Z" fill="black"/>
<path d="M74.7033 14.9931H83.8074C84.153 14.9931 84.4471 14.7648 84.5026 14.4158L85.7501 6.30431C86.2502 3.07557 83.8115 0.150391 80.616 0.150391C78.0601 0.150391 75.8836 2.04359 75.4825 4.62591L74.0074 14.1875C73.9376 14.6259 74.2683 14.9931 74.7026 14.9931H74.7033ZM78.428 5.14901L78.4382 5.08803C78.6103 4.04182 79.4952 3.27546 80.5326 3.27546C81.8465 3.27546 82.8446 4.48293 82.6271 5.80831L82.6169 5.86929C82.4448 6.9155 81.5599 7.68186 80.5225 7.68186C79.2093 7.68186 78.2105 6.47439 78.428 5.14901Z" fill="white"/>
<path d="M83.8083 15.1436H74.7041C74.4486 15.1436 74.2094 15.0352 74.0482 14.8461C73.8896 14.6604 73.8212 14.4118 73.8605 14.1638L75.3349 4.6029C75.7496 1.93589 77.9708 0 80.6174 0C82.1576 0 83.6233 0.679629 84.6383 1.86407C85.6893 3.09051 86.1493 4.71742 85.9 6.32671L84.6525 14.4382C84.5868 14.8536 84.2399 15.1429 83.8083 15.1429V15.1436ZM80.6174 0.301531C78.1205 0.301531 76.024 2.13036 75.6324 4.64966L74.1573 14.2105C74.1315 14.3745 74.1735 14.5303 74.2765 14.651C74.3809 14.7729 74.536 14.8427 74.7034 14.8427H83.8076C84.0874 14.8427 84.3124 14.6577 84.3537 14.3928L85.6012 6.28198C85.837 4.75943 85.4026 3.22061 84.4086 2.06125C83.4505 0.943213 82.0682 0.302207 80.6161 0.302207L80.6174 0.301531ZM80.5233 7.83232C79.8633 7.83232 79.2372 7.54028 78.8056 7.0314C78.359 6.50559 78.1679 5.81106 78.2804 5.12465L78.2906 5.06367C78.4749 3.94022 79.4181 3.12507 80.5334 3.12507C81.1927 3.12507 81.8195 3.41711 82.2511 3.92599C82.6977 4.4518 82.8888 5.14633 82.7763 5.83274L82.7668 5.89305C82.5825 7.0165 81.6386 7.83232 80.5239 7.83232H80.5233ZM78.5772 5.17344C78.479 5.77243 78.6456 6.3782 79.0346 6.83626C79.4093 7.27737 79.9521 7.53079 80.5226 7.53079C81.4895 7.53079 82.3081 6.82135 82.4686 5.84426L82.4781 5.78395C82.5764 5.18496 82.4097 4.57851 82.0208 4.12046C81.646 3.67934 81.1033 3.42592 80.5327 3.42592C79.5658 3.42592 78.7473 4.13536 78.5867 5.11246L78.5765 5.17344H78.5772Z" fill="black"/>
<path d="M81.6512 78.4782H78.5674C78.1737 78.4782 77.8004 78.3047 77.5422 78.0032C77.2773 77.6935 77.1621 77.2836 77.2265 76.8784L83.6006 36.5127C83.707 35.8391 84.2707 35.3506 84.9416 35.3506H88.0267C88.4203 35.3506 88.7937 35.524 89.0519 35.8256C89.3168 36.1352 89.4313 36.5452 89.3676 36.9504L82.9921 77.3161C82.8857 77.9896 82.322 78.4782 81.6512 78.4782ZM83.8981 36.5601L77.5239 76.9258C77.4738 77.2436 77.5639 77.5654 77.7712 77.808C77.9718 78.0431 78.2618 78.1773 78.5674 78.1773H81.6512C82.1729 78.1773 82.6113 77.7958 82.6947 77.2693L89.0701 36.9036C89.1203 36.5858 89.0302 36.264 88.8228 36.0214C88.6223 35.7863 88.3323 35.6521 88.0267 35.6521H84.9416C84.4198 35.6521 83.9814 36.0336 83.8981 36.5601Z" fill="black"/>
<path d="M72.6698 78.4787H69.5847C69.1924 78.4787 68.819 78.3059 68.5616 78.0057C68.2966 77.6974 68.1807 77.2882 68.2431 76.8843L72.8697 46.8797C72.974 46.2035 73.5385 45.7129 74.2113 45.7129H77.2978C77.6901 45.7129 78.0635 45.8857 78.321 46.1859C78.5859 46.4942 78.7018 46.9034 78.6387 47.3073L74.0108 77.3112C73.9064 77.9874 73.342 78.478 72.6691 78.478L72.6698 78.4787ZM74.2113 46.0137C73.6882 46.0137 73.2492 46.3973 73.1672 46.9258L68.5405 76.9304C68.4918 77.2475 68.5826 77.5687 68.7899 77.8099C68.9905 78.0437 69.2805 78.1778 69.5847 78.1778H72.6698C73.1936 78.1778 73.632 77.7943 73.714 77.2665L78.342 47.2619C78.3907 46.9448 78.2999 46.6236 78.0926 46.3824C77.892 46.1486 77.602 46.0144 77.2978 46.0144H74.2113V46.0137Z" fill="black"/>
<path d="M63.6933 78.4785H60.6082C60.2152 78.4785 59.8425 78.3057 59.5844 78.0049C59.3194 77.6959 59.2042 77.2866 59.2666 76.8821L62.7196 54.6489C62.8246 53.9733 63.3884 53.4834 64.0612 53.4834H67.1477C67.5407 53.4834 67.9134 53.6562 68.1715 53.957C68.4365 54.266 68.5517 54.6753 68.4893 55.0798L65.0349 77.3131C64.9299 77.9886 64.3655 78.4785 63.6933 78.4785ZM63.0177 54.6949L59.5647 76.9282C59.5152 77.246 59.6061 77.5665 59.8134 77.8084C60.014 78.0428 60.304 78.177 60.6082 78.177H63.6933C64.2164 78.177 64.6548 77.7942 64.7368 77.2663L68.1912 55.0331C68.2406 54.7153 68.1498 54.3948 67.9425 54.1529C67.7419 53.9184 67.4519 53.7842 67.1477 53.7842H64.0612C63.5381 53.7842 63.099 54.1671 63.0177 54.6949Z" fill="black"/>
<path d="M54.7169 78.4784H51.6332C51.2395 78.4784 50.8661 78.3056 50.6086 78.0034C50.3437 77.6937 50.2285 77.2838 50.2929 76.8793L52.5696 62.4167C52.6753 61.7431 53.2397 61.2539 53.9105 61.2539H56.9956C57.3893 61.2539 57.7627 61.4267 58.0202 61.7289C58.2851 62.0386 58.4003 62.4485 58.3359 62.853L56.0579 77.3156C55.9515 77.9892 55.3877 78.4784 54.7169 78.4784ZM53.9099 61.5554C53.3881 61.5554 52.949 61.9376 52.8664 62.4634L50.5897 76.926C50.5395 77.2438 50.6296 77.565 50.837 77.8076C51.0375 78.042 51.3276 78.1769 51.6332 78.1769H54.7169C55.2386 78.1769 55.6777 77.7947 55.7604 77.2689L58.0385 62.8063C58.0886 62.4885 57.9985 62.1673 57.7911 61.924C57.5906 61.6896 57.3006 61.5548 56.995 61.5548H53.9099V61.5554Z" fill="black"/>
<path d="M45.7229 78.4783H42.633C42.2434 78.4783 41.8728 78.3082 41.6153 78.0114C41.351 77.7072 41.2324 77.302 41.2894 76.9002L42.4338 68.8273C42.5294 68.1524 43.1074 67.6436 43.7782 67.6436H46.8694C47.259 67.6436 47.6296 67.8136 47.8871 68.1104C48.1514 68.4147 48.27 68.8199 48.213 69.2217L47.0679 77.2945C46.9724 77.9694 46.3944 78.4783 45.7235 78.4783H45.7229ZM42.7313 68.8693L41.5868 76.9422C41.5421 77.2573 41.6349 77.5751 41.8423 77.8136C42.0429 78.0446 42.3308 78.1768 42.633 78.1768H45.7229C46.2446 78.1768 46.6939 77.779 46.7691 77.2519L47.9142 69.179C47.9589 68.8639 47.8661 68.5461 47.6588 68.3076C47.4582 68.0765 47.1702 67.9444 46.868 67.9444H43.7768C43.2551 67.9444 42.8058 68.3422 42.7306 68.8693H42.7313Z" fill="black"/>
<path d="M41.305 89.2043C40.1741 89.2043 39.2539 88.2678 39.2539 87.1173C39.2539 85.9667 40.1741 85.0303 41.305 85.0303C42.4359 85.0303 43.3561 85.9667 43.3561 87.1173C43.3561 88.2678 42.4359 89.2043 41.305 89.2043ZM41.305 85.3311C40.3401 85.3311 39.5548 86.132 39.5548 87.1173C39.5548 88.1025 40.3401 88.9034 41.305 88.9034C42.2699 88.9034 43.0552 88.1025 43.0552 87.1173C43.0552 86.132 42.2699 85.3311 41.305 85.3311Z" fill="black"/>
<path d="M39.68 97.1857C38.5491 97.1857 37.6289 96.2493 37.6289 95.0987C37.6289 93.9482 38.5491 93.0117 39.68 93.0117C40.8109 93.0117 41.7311 93.9482 41.7311 95.0987C41.7311 96.2493 40.8109 97.1857 39.68 97.1857ZM39.68 93.3126C38.7151 93.3126 37.9298 94.1135 37.9298 95.0987C37.9298 96.0839 38.7151 96.8848 39.68 96.8848C40.6449 96.8848 41.4302 96.0839 41.4302 95.0987C41.4302 94.1135 40.6449 93.3126 39.68 93.3126Z" fill="black"/>
<path d="M38.2483 105.556C37.1174 105.556 36.1973 104.619 36.1973 103.469C36.1973 102.318 37.1174 101.382 38.2483 101.382C39.3793 101.382 40.2994 102.318 40.2994 103.469C40.2994 104.619 39.3793 105.556 38.2483 105.556ZM38.2483 101.683C37.2835 101.683 36.4981 102.484 36.4981 103.469C36.4981 104.454 37.2835 105.255 38.2483 105.255C39.2132 105.255 39.9986 104.454 39.9986 103.469C39.9986 102.484 39.2132 101.683 38.2483 101.683Z" fill="black"/>
<path d="M67.1912 87.2677H46.8457C46.7624 87.2677 46.6953 87.2006 46.6953 87.1172C46.6953 87.0339 46.7624 86.9668 46.8457 86.9668H67.1912C67.2746 86.9668 67.3416 87.0346 67.3416 87.1172C67.3416 87.1999 67.2739 87.2677 67.1912 87.2677Z" fill="black"/>
<path d="M65.9163 95.1837H63.7989C63.7155 95.1837 63.6484 95.1166 63.6484 95.0332C63.6484 94.9499 63.7155 94.8828 63.7989 94.8828H65.9163C65.9997 94.8828 66.0668 94.9506 66.0668 95.0332C66.0668 95.1159 65.9997 95.1837 65.9163 95.1837Z" fill="white"/>
<path d="M59.9299 95.1837H45.5703C45.487 95.1837 45.4199 95.1166 45.4199 95.0332C45.4199 94.9499 45.487 94.8828 45.5703 94.8828H59.9299C60.0133 94.8828 60.0804 94.9506 60.0804 95.0332C60.0804 95.1159 60.0126 95.1837 59.9299 95.1837Z" fill="black"/>
<path d="M64.2615 103.359H43.916C43.8327 103.359 43.7656 103.292 43.7656 103.209C43.7656 103.126 43.8327 103.059 43.916 103.059H64.2615C64.3449 103.059 64.412 103.126 64.412 103.209C64.412 103.292 64.3442 103.359 64.2615 103.359Z" fill="black"/>
<path d="M42.7051 50.5631C42.7051 50.5631 45.7475 50.5184 47.3371 49.8279C48.9268 49.1381 48.9024 50.3348 48.4524 50.7556C48.0879 51.0971 45.8911 52.3215 43.9214 52.4645L42.7051 50.5625V50.5631Z" fill="white"/>
<path d="M43.9217 52.615C43.8709 52.615 43.8227 52.5893 43.795 52.5459L42.5787 50.6439C42.5489 50.5978 42.5468 50.5395 42.5726 50.4914C42.5983 50.4433 42.6485 50.4128 42.7027 50.4121C42.7325 50.4121 45.7336 50.3593 47.2771 49.6898C48.2549 49.2657 48.6269 49.5462 48.7617 49.7515C48.9826 50.0876 48.8302 50.6086 48.5558 50.8661C48.135 51.2598 45.8914 52.4734 43.9332 52.615C43.9298 52.615 43.9257 52.615 43.9224 52.615H43.9217ZM42.9758 50.7062L44.0003 52.3074C45.9301 52.1359 48.0462 50.9305 48.3504 50.6459C48.5334 50.4745 48.6432 50.1187 48.5103 49.9168C48.3694 49.702 47.9642 49.7203 47.3977 49.9663C46.0588 50.5477 43.7611 50.6784 42.9758 50.7062Z" fill="black"/>
<path d="M38.2676 49.4231L39.7766 46.4424L41.1765 47.2562C41.2537 47.3009 41.3195 47.3639 41.3683 47.4384L41.4563 47.5746C41.5668 47.7454 41.7613 47.8443 41.9625 47.8321C42.0716 47.8254 42.1807 47.8511 42.2762 47.9067L52.6854 53.9454C52.7715 53.9949 52.8501 54.0558 52.9206 54.1263L55.0706 56.2878L52.2016 55.7878C52.0451 55.7607 51.8927 55.7132 51.7483 55.6462L40.8594 50.6191C40.7665 50.5764 40.6866 50.5086 40.629 50.4239L40.6148 50.4029C40.5036 50.2403 40.3153 50.1468 40.1215 50.157L40.0232 50.1624C39.9331 50.1671 39.843 50.1495 39.7603 50.1116L38.2683 49.4231H38.2676Z" fill="white"/>
<path d="M55.069 56.4383C55.0602 56.4383 55.0514 56.4377 55.0433 56.4363L52.1743 55.9362C52.0056 55.9064 51.8403 55.8549 51.6837 55.7831L40.7948 50.756C40.6769 50.7018 40.5766 50.6164 40.5027 50.5094L40.4885 50.4877C40.4072 50.3691 40.2703 50.3 40.1274 50.3074L40.0291 50.3129C39.9153 50.319 39.8001 50.2966 39.695 50.2485L38.203 49.5601C38.1657 49.5431 38.1373 49.5113 38.1237 49.4726C38.1102 49.434 38.1129 49.3913 38.1318 49.3554L39.6408 46.3747C39.6598 46.3374 39.693 46.3103 39.7323 46.2981C39.7716 46.2866 39.815 46.2913 39.8509 46.3123L41.2508 47.1261C41.3484 47.1824 41.4317 47.2623 41.4927 47.3572L41.5808 47.4934C41.6621 47.6194 41.8051 47.6912 41.9508 47.6824C42.0903 47.6736 42.2279 47.7068 42.3499 47.7773L52.7591 53.816C52.856 53.8723 52.9461 53.9414 53.0254 54.0213L55.1754 56.1829C55.2215 56.2296 55.2323 56.3008 55.2018 56.3584C55.1754 56.4085 55.1239 56.4397 55.0683 56.4397L55.069 56.4383ZM40.1484 50.0052C40.3808 50.0052 40.6037 50.1225 40.7372 50.3176L40.7514 50.3386C40.7941 50.401 40.8524 50.4504 40.9208 50.4816L51.8098 55.5087C51.9426 55.5696 52.0828 55.6137 52.2258 55.6388L54.6279 56.0575L52.8119 54.2321C52.7509 54.1711 52.6825 54.1182 52.608 54.0749L42.1988 48.0361C42.1283 47.9955 42.049 47.9765 41.9697 47.9813C41.7129 47.9975 41.4683 47.8722 41.3281 47.6553L41.24 47.5191C41.2047 47.4643 41.1559 47.4182 41.099 47.385L39.8373 46.6518L38.4706 49.3507L39.8204 49.9741C39.8807 50.0019 39.9464 50.0147 40.0122 50.0113L40.1104 50.0059C40.1226 50.0059 40.1355 50.0052 40.1477 50.0052H40.1484Z" fill="black"/>
<path d="M52.3884 55.096C52.3681 55.096 52.3478 55.092 52.3281 55.0832C52.2523 55.05 52.2177 54.9605 52.2509 54.8846L52.648 53.9834C52.6812 53.9075 52.7706 53.873 52.8465 53.9062C52.9224 53.9394 52.957 54.0288 52.9237 54.1047L52.5267 55.0059C52.5016 55.0622 52.4467 55.096 52.3891 55.096H52.3884Z" fill="black"/>
<path d="M37.3551 45.1256L39.6209 46.3474C39.7368 46.4097 39.7815 46.5547 39.7205 46.6719L38.3911 49.2224C38.3288 49.3416 38.1817 49.387 38.0638 49.3234L35.8027 48.1044C35.3494 47.8597 35.1698 47.3001 35.4029 46.8535L36.113 45.4915C36.3454 45.045 36.9017 44.8817 37.3557 45.1263L37.3551 45.1256Z" fill="black"/>
<path d="M38.177 49.5029C38.1133 49.5029 38.0496 49.4874 37.992 49.4562L35.7309 48.2372C35.2057 47.954 34.9991 47.3021 35.2688 46.7844L35.9789 45.4225C36.1083 45.1745 36.3278 44.9922 36.5962 44.9095C36.8726 44.8248 37.1674 44.8546 37.4262 44.9942L39.6921 46.2159C39.8798 46.3169 39.9523 46.5534 39.8534 46.7424L38.5239 49.2929C38.4751 49.3864 38.3925 49.4555 38.2915 49.486C38.2536 49.4975 38.2149 49.5036 38.1763 49.5036L38.177 49.5029ZM36.9099 45.1623C36.834 45.1623 36.7588 45.1738 36.6849 45.1962C36.4939 45.2551 36.338 45.3839 36.2459 45.5607L35.5357 46.9227C35.3413 47.296 35.493 47.7663 35.8739 47.9716L38.135 49.1906C38.1567 49.2021 38.1804 49.2048 38.2041 49.1974C38.2271 49.1899 38.2461 49.1743 38.2576 49.1526L39.5871 46.6022C39.6101 46.5581 39.5932 46.5032 39.5498 46.4802L37.2839 45.2585C37.166 45.1948 37.038 45.163 36.9099 45.163V45.1623Z" fill="black"/>
<path d="M40.6663 49.8671C40.6426 49.8671 40.6182 49.8617 40.5951 49.8495C40.522 49.8102 40.4942 49.7187 40.5335 49.6455L41.2843 48.2436C41.3236 48.1704 41.4144 48.1426 41.4882 48.1819C41.5614 48.2212 41.5892 48.3127 41.5499 48.3859L40.7991 49.7878C40.772 49.8386 40.7198 49.8671 40.6663 49.8671Z" fill="black"/>
<path d="M45.549 50.9378C45.524 50.9378 45.4989 50.9317 45.4752 50.9188L42.3718 49.1767C42.2993 49.1361 42.2735 49.0439 42.3142 48.9714C42.3549 48.8989 42.4463 48.8732 42.5195 48.9138L45.6229 50.6559C45.6954 50.6966 45.7211 50.7887 45.6805 50.8612C45.6527 50.9107 45.6019 50.9378 45.549 50.9378Z" fill="black"/>
<path d="M51.6909 54.5221C51.6658 54.5221 51.6408 54.516 51.6177 54.5031L50.4055 53.8289C50.333 53.7882 50.3066 53.6968 50.3472 53.6243C50.3879 53.5518 50.4794 53.5253 50.5519 53.566L51.7641 54.2402C51.8366 54.2808 51.863 54.3723 51.8224 54.4448C51.7946 54.4943 51.7438 54.5221 51.6909 54.5221Z" fill="black"/>
<path d="M37.9523 48.44C37.9279 48.44 37.9029 48.4339 37.8798 48.4217L36.1486 47.4723C36.0754 47.4324 36.049 47.3409 36.0889 47.2677C36.1289 47.1945 36.2204 47.1681 36.2936 47.2081L38.0248 48.1574C38.098 48.1974 38.1244 48.2888 38.0845 48.362C38.0574 48.4122 38.0052 48.44 37.9523 48.44Z" fill="white"/>
<path d="M37.2191 51.7545C37.2191 51.7545 39.9112 52.1366 41.7271 50.734C43.2714 49.5408 46.3992 52.9558 46.6682 53.3895C47.049 54.0034 46.2108 54.9676 45.2432 54.4215C45.2432 54.4215 44.9871 55.9434 42.8987 56.1988C40.8104 56.4543 39.9193 55.0862 39.359 54.8822C38.7986 54.6783 37.1934 54.6668 37.1934 54.6668L37.2191 51.7545Z" fill="white"/>
<path d="M42.3852 56.3815C41.1012 56.3815 40.3219 55.7696 39.7853 55.3481C39.5942 55.1984 39.4295 55.0683 39.3055 55.0236C38.7757 54.8305 37.2063 54.8176 37.1908 54.8176C37.1508 54.8176 37.1128 54.8013 37.0844 54.7729C37.0566 54.7444 37.041 54.7058 37.041 54.6658L37.0668 51.7535C37.0668 51.7101 37.0864 51.6688 37.1189 51.641C37.1515 51.6126 37.1948 51.5997 37.2382 51.6058C37.2646 51.6092 39.8903 51.9615 41.6331 50.6151C41.9597 50.3624 42.3683 50.2784 42.848 50.3651C44.5162 50.6666 46.5802 52.9664 46.7936 53.3106C46.9976 53.6392 46.9298 54.0729 46.6249 54.39C46.3674 54.6583 45.8884 54.8643 45.3361 54.636C45.1844 55.0737 44.6409 56.1375 42.9144 56.3489C42.7287 56.3713 42.5526 56.3821 42.3845 56.3821L42.3852 56.3815ZM37.3439 54.5181C37.7627 54.5262 38.9288 54.5648 39.4092 54.7403C39.5779 54.802 39.7514 54.9382 39.9716 55.111C40.5394 55.5568 41.3966 56.2304 42.8785 56.0488C44.8225 55.8109 45.0827 54.453 45.0929 54.3954C45.101 54.3473 45.1329 54.306 45.1769 54.285C45.2216 54.264 45.2731 54.266 45.3151 54.2897C45.7874 54.5567 46.1892 54.4083 46.4081 54.1806C46.5809 54.0004 46.6879 53.7111 46.5382 53.4685C46.3586 53.1792 44.3563 50.9431 42.7952 50.6605C42.3981 50.5887 42.0776 50.6517 41.8174 50.8523C40.2162 52.0889 37.9985 51.9825 37.3669 51.9222L37.3439 54.5174V54.5181Z" fill="black"/>
<path d="M18.9264 30.1064C18.9264 30.1064 15.2389 31.6581 13.2922 37.974C12.2175 41.4596 12.4147 46.4304 17.7142 53.0383C18.774 54.3596 20.2626 55.6741 21.9437 55.8645L38.0495 56.0211L37.9777 50.8653C37.9777 50.8653 25.4876 49.2424 23.6099 48.5364C21.9471 47.9109 19.539 39.7696 19.2882 35.7752L18.9264 30.1071V30.1064Z" fill="white"/>
<path d="M38.0493 56.1708H38.0479L21.9422 56.0142C21.9367 56.0142 21.932 56.0142 21.9266 56.0136C20.0916 55.8062 18.5589 54.3324 17.5967 53.1324C17.0255 52.4203 16.4753 51.6993 15.9604 50.9885C15.9116 50.9214 15.9265 50.8272 15.9936 50.7785C16.0606 50.7297 16.1548 50.7446 16.2036 50.8123C16.7159 51.5191 17.2634 52.2366 17.8312 52.9447C18.7568 54.0987 20.2224 55.5155 21.9523 55.7147L37.8961 55.8699L37.8284 50.9987C36.4244 50.8151 25.3478 49.3521 23.5569 48.6786C22.0614 48.1162 20.2936 42.4657 19.5692 38.8243C19.553 38.743 19.6058 38.6637 19.6878 38.6475C19.7691 38.6312 19.8484 38.6841 19.8647 38.766C20.6981 42.9597 22.4632 47.9461 23.6626 48.3974C25.5022 49.0892 37.8717 50.7019 37.9964 50.7175C38.071 50.727 38.1265 50.79 38.1279 50.8645L38.1997 56.0203C38.1997 56.061 38.1841 56.1003 38.1557 56.1287C38.1272 56.1572 38.0893 56.1728 38.0493 56.1728V56.1708Z" fill="black"/>
<path d="M51.7394 9.61206C51.9271 10.1006 52.2943 11.4151 51.6886 12.296C51.1458 13.0861 50.0115 13.1179 49.3678 12.4085C49.0304 12.0365 48.8664 11.4287 48.6136 10.5709C48.4896 10.1494 48.3046 9.85871 48.1007 9.59716C47.9672 9.4264 47.7633 9.3268 47.5464 9.32612L45.6309 9.31663C45.6309 9.31663 45.6458 8.5706 46.2034 8.27178C46.6913 8.01023 47.9537 8.2257 48.0526 8.07731C49.1564 6.41788 50.9852 7.64704 51.7394 9.61274V9.61206Z" fill="white"/>
<path d="M50.5015 13.0657C50.0299 13.0657 49.5813 12.8664 49.2567 12.5093C48.9159 12.134 48.7479 11.5607 48.5148 10.7659L48.4694 10.6128C48.3447 10.1893 48.1529 9.90873 47.9822 9.68919C47.8771 9.55435 47.7179 9.47643 47.5458 9.47575L45.6302 9.46626C45.5903 9.46626 45.5516 9.45 45.5232 9.42087C45.4947 9.39173 45.4798 9.35311 45.4805 9.31245C45.4812 9.27857 45.5042 8.47427 46.1323 8.1375C46.4454 7.96946 46.9976 7.97623 47.4408 7.98165C47.6312 7.98368 47.8656 7.98707 47.9442 7.96675C48.4551 7.21597 49.0555 7.11162 49.4715 7.1577C50.4012 7.26069 51.3688 8.22491 51.8797 9.55706C51.9915 9.8491 52.5153 11.3581 51.8126 12.3799C51.5375 12.7797 51.1011 13.0284 50.6146 13.0609C50.5767 13.0636 50.5387 13.065 50.5008 13.065L50.5015 13.0657ZM45.799 9.16609L47.5472 9.1749C47.8121 9.17625 48.0574 9.29619 48.2193 9.50421C48.4077 9.74543 48.6191 10.0565 48.758 10.5281L48.8034 10.6819C49.025 11.4374 49.1856 11.9835 49.4797 12.3074C49.7676 12.6252 50.1742 12.7905 50.595 12.7621C50.9893 12.7357 51.3424 12.5344 51.5653 12.2105C52.1819 11.3127 51.7022 9.93313 51.5992 9.66616C51.135 8.45529 50.2467 7.54731 49.439 7.45787C48.9491 7.40366 48.5242 7.63947 48.1787 8.15986C48.0946 8.28657 47.9029 8.28928 47.4381 8.28318C47.0505 8.27844 46.5206 8.27166 46.2753 8.40312C45.9453 8.57997 45.8355 8.95468 45.7996 9.16541L45.799 9.16609Z" fill="black"/>
<path d="M20.3891 105.055L19.2148 110.69L22.2884 111.56L23.9878 106.074L20.3891 105.055Z" fill="white"/>
<path d="M22.2883 111.71C22.2747 111.71 22.2612 111.708 22.247 111.705L19.1741 110.835C19.0982 110.813 19.0514 110.737 19.0677 110.659L20.2413 105.025C20.2501 104.984 20.2752 104.948 20.3104 104.926C20.3463 104.905 20.389 104.898 20.4296 104.91L24.0284 105.929C24.0677 105.94 24.1002 105.966 24.1198 106.002C24.1395 106.038 24.1435 106.08 24.1313 106.119L22.4319 111.605C22.4123 111.67 22.3527 111.712 22.2883 111.712V111.71ZM19.3909 110.583L22.188 111.375L23.7986 106.176L20.5035 105.243L19.3909 110.583Z" fill="black"/>
<path d="M18.1995 115.44C18.2341 115.982 18.8974 116.417 19.4334 116.498C21.2975 116.78 25.6781 116.661 26.868 116.743C28.4122 116.85 31.3123 116.735 31.4248 115.75C31.5617 114.548 30.2668 112.795 27.1682 111.835C25.5656 111.338 23.871 108.878 23.1209 108.834C22.3708 108.79 21.0434 110.733 21.0434 110.733L18.9076 110.007C18.9076 110.007 18.0233 112.69 18.1988 115.44L18.1995 115.44Z" fill="white"/>
<path d="M27.8392 116.92C27.2734 116.92 26.8702 116.894 26.8567 116.893C26.4501 116.865 25.6512 116.861 24.7257 116.856C22.9056 116.846 20.6404 116.834 19.4099 116.647C18.7831 116.552 18.0866 116.049 18.0486 115.45C17.8725 112.703 18.7554 109.987 18.7642 109.96C18.777 109.922 18.8042 109.89 18.8401 109.873C18.876 109.854 18.9173 109.852 18.9559 109.865L20.984 110.554C21.2855 110.127 22.3913 108.641 23.1292 108.684C23.5195 108.707 24.0406 109.206 24.7013 109.839C25.4398 110.546 26.3593 111.427 27.2124 111.691C30.4154 112.684 31.7184 114.5 31.5741 115.767C31.4596 116.771 29.1883 116.921 27.8399 116.921L27.8392 116.92ZM19.0054 110.199C18.8292 110.791 18.1997 113.101 18.3488 115.43C18.3773 115.877 18.9546 116.273 19.4546 116.348C20.6642 116.531 22.9172 116.544 24.727 116.554C25.6573 116.559 26.4617 116.563 26.877 116.592C28.5974 116.711 31.1845 116.52 31.2739 115.732C31.4088 114.547 30.0265 112.878 27.1223 111.978C26.2008 111.693 25.2535 110.785 24.4919 110.055C23.9254 109.512 23.3901 108.999 23.1103 108.983C22.6244 108.955 21.6609 110.093 21.1656 110.817C21.1276 110.873 21.0572 110.897 20.9928 110.875L19.004 110.198L19.0054 110.199Z" fill="black"/>
<path d="M28.6436 115.454C28.2357 115.454 27.7878 115.431 27.3135 115.406C26.6109 115.37 25.8838 115.332 25.1683 115.364C23.5447 115.438 22.1557 115.374 21.2768 115.307C19.6472 115.183 19.5828 115.08 19.5584 115.042C19.5293 114.996 19.5273 114.937 19.5537 114.889C19.5937 114.815 19.6852 114.788 19.7577 114.828C19.7577 114.828 19.759 114.828 19.7597 114.828C20.0199 114.897 22.2831 115.193 25.1547 115.063C25.8845 115.03 26.619 115.067 27.3291 115.105C28.4051 115.161 29.4208 115.214 30.0083 114.964C30.0849 114.931 30.173 114.966 30.2062 115.043C30.2387 115.12 30.2035 115.208 30.1269 115.241C29.742 115.405 29.2345 115.454 28.6436 115.454V115.454Z" fill="black"/>
<path d="M24.6679 113.522C24.63 113.522 24.592 113.508 24.5629 113.48C24.5033 113.421 24.5026 113.326 24.5602 113.267L25.685 112.116C25.7433 112.056 25.8388 112.055 25.8978 112.113C25.9574 112.171 25.9581 112.267 25.9005 112.326L24.7757 113.477C24.7459 113.507 24.7072 113.522 24.6679 113.522Z" fill="black"/>
<path d="M3.72098 104.787L3.56445 108.717L6.30804 109.38L6.79658 104.815L3.72098 104.787Z" fill="white"/>
<path d="M6.30818 109.531C6.29666 109.531 6.28447 109.53 6.27295 109.527L3.52936 108.864C3.45957 108.847 3.41146 108.784 3.41417 108.712L3.5707 104.781C3.57408 104.7 3.64049 104.637 3.72112 104.637H3.72248L6.79808 104.665C6.84077 104.665 6.88075 104.683 6.90921 104.715C6.93767 104.746 6.95122 104.788 6.94647 104.831L6.45793 109.396C6.45319 109.44 6.43015 109.478 6.39491 109.503C6.36916 109.522 6.33867 109.531 6.30818 109.531ZM3.72044 108.601L6.17673 109.194L6.62936 104.965L3.86545 104.94L3.71977 108.601H3.72044Z" fill="black"/>
<path d="M6.72616 116.526C5.62642 116.681 3.83215 116.747 1.70722 116.524C0.754516 116.424 0.383194 115.099 0.55056 114.417C1.01675 112.518 1.82647 109.455 3.2047 107.786L3.71086 108.805L4.18857 107.811C4.25362 107.695 4.36949 107.616 4.50162 107.599L5.53224 107.609C5.74839 107.581 5.94964 107.725 5.99436 107.939L6.15901 108.724L7.03853 107.71L7.72494 115.202C7.80896 115.844 7.36446 116.436 6.72549 116.526H6.72616Z" fill="white"/>
<path d="M4.38051 116.819C3.62567 116.819 2.72379 116.782 1.69182 116.674C1.32524 116.635 1.00406 116.434 0.762834 116.09C0.384059 115.552 0.295971 114.823 0.404386 114.381C0.963402 112.103 1.77381 109.283 3.08902 107.69C3.12154 107.651 3.17236 107.631 3.2225 107.637C3.27332 107.643 3.31737 107.674 3.34041 107.719L3.7097 108.463L4.05392 107.746C4.14539 107.58 4.30462 107.473 4.48419 107.45C4.49096 107.449 4.49638 107.448 4.50452 107.448L5.52565 107.458C5.81498 107.427 6.08331 107.622 6.14362 107.908L6.24593 108.396L6.92692 107.612C6.96622 107.566 7.02923 107.549 7.08683 107.567C7.14443 107.585 7.18508 107.637 7.1905 107.696L7.87691 115.188C7.97109 115.905 7.46561 116.574 6.74871 116.675C6.35638 116.731 5.54462 116.819 4.38119 116.819H4.38051ZM3.17575 108.066C1.8253 109.854 1.03929 113.058 0.697107 114.453C0.606987 114.82 0.686265 115.457 1.00948 115.917C1.20191 116.191 1.44246 116.344 1.72366 116.374C3.51929 116.563 5.38132 116.564 6.70602 116.377C7.25962 116.299 7.65059 115.781 7.57741 115.222L6.92285 108.076L6.27507 108.823C6.2378 108.866 6.17885 108.885 6.12329 108.871C6.06773 108.856 6.02572 108.812 6.01352 108.756L5.84886 107.971C5.82041 107.834 5.69099 107.742 5.55276 107.759C5.54598 107.76 5.5392 107.761 5.53243 107.761L4.51332 107.751C4.43269 107.764 4.36154 107.814 4.32156 107.886L3.84793 108.873C3.82285 108.925 3.77068 108.957 3.71308 108.958C3.66226 108.955 3.60263 108.926 3.57756 108.875L3.17711 108.068L3.17575 108.066Z" fill="black"/>
<path d="M3.67019 115.59C2.96685 115.59 2.20591 115.528 1.447 115.354C1.36569 115.336 1.31555 115.255 1.33384 115.174C1.35214 115.093 1.43345 115.043 1.51408 115.061C4.10114 115.652 6.80542 114.892 6.83253 114.885C6.9118 114.862 6.99583 114.908 7.01886 114.988C7.0419 115.068 6.99583 115.151 6.91587 115.174C6.83456 115.197 5.43465 115.59 3.67087 115.59H3.67019Z" fill="black"/>
<path d="M3.04113 112.681C2.9605 112.681 2.89342 112.616 2.89071 112.535C2.888 112.452 2.95305 112.383 3.03639 112.38L5.50893 112.298C5.59092 112.297 5.66139 112.36 5.6641 112.444C5.66681 112.527 5.60177 112.596 5.51842 112.599L3.04588 112.681C3.04588 112.681 3.04249 112.681 3.04113 112.681Z" fill="black"/>
<path d="M32.6899 57.7105C33.7306 63.8014 35.6225 78.7702 31.5379 89.9667C28.0226 99.6028 25.5134 104.402 24.5492 106.144C24.2856 106.621 23.7598 106.886 23.2205 106.817L20.7147 106.495C19.9721 106.399 19.4551 105.707 19.5736 104.966C20.4877 99.2329 24.1189 71.3261 23.1513 68.7465L7.59037 105.326C7.42232 105.715 7.03881 105.964 6.61666 105.959L3.98827 105.93C3.40283 105.923 2.93597 105.436 2.95155 104.849C3.72808 75.2419 12.3959 70.4777 14.9355 56.3221C14.9416 56.2889 15.7669 57.2836 15.7981 57.3019C18.3411 58.775 19.6136 58.6605 23.5145 58.8739C27.7346 59.1043 31.6538 57.512 32.578 57.5553C32.6485 57.5587 32.6777 57.6407 32.6899 57.7112V57.7105Z" fill="black"/>
<path d="M28.0418 29.3496L28.7607 25.6614C28.8122 25.4134 29.0168 25.2264 29.2675 25.1973L30.7135 25.0326C31.0218 24.9974 31.2692 24.7609 31.3179 24.4533L31.6452 22.3961C31.6452 22.3961 31.6479 22.39 31.6506 22.3886L32.3377 22.0166C32.4746 21.9428 32.5268 21.7727 32.4563 21.6338L31.7326 20.2176C31.5917 19.9418 31.3979 18.3854 31.0896 18.401C31.0896 18.401 25.8857 16.5884 24.355 18.7493C23.9498 19.3218 23.9044 20.0767 24.1788 20.7224L24.5291 21.5464C24.893 22.4028 24.9743 23.3657 24.6958 24.2534C24.5969 24.5698 24.4573 24.8761 24.2798 25.1627L22.3242 28.2126C23.7451 28.9261 25.3077 29.3089 26.8966 29.3319L28.0418 29.3489V29.3496Z" fill="white"/>
<path d="M28.0419 29.4998H28.0399L26.8947 29.4829C25.2929 29.4592 23.689 29.0662 22.2573 28.3473C22.2193 28.3283 22.1909 28.2937 22.1793 28.2524C22.1678 28.2111 22.1746 28.167 22.1976 28.1311L24.1532 25.0812C24.3212 24.8095 24.4561 24.5155 24.5523 24.2078C24.8104 23.3825 24.7535 22.4583 24.3903 21.6045L24.04 20.7805C23.7371 20.0677 23.8103 19.256 24.2318 18.661C25.774 16.4846 30.692 18.1047 31.1168 18.2504C31.4021 18.2741 31.5362 18.7755 31.7178 19.5846C31.7721 19.8251 31.8276 20.0738 31.8662 20.149L32.5899 21.5652C32.697 21.7753 32.6157 22.0368 32.409 22.1486L31.7829 22.4881L31.4665 24.4768C31.4075 24.8495 31.1046 25.1395 30.7306 25.1822L29.2846 25.3469C29.0976 25.3679 28.9465 25.5068 28.9079 25.6918L28.1889 29.3786C28.1754 29.449 28.113 29.5005 28.0412 29.5005L28.0419 29.4998ZM22.5418 28.1521C23.895 28.804 25.3979 29.1597 26.8988 29.182L27.9179 29.197L28.6131 25.6321C28.6782 25.3177 28.9343 25.084 29.2507 25.0474L30.6967 24.8827C30.9366 24.8556 31.131 24.6693 31.169 24.4294L31.4963 22.3722C31.5037 22.3261 31.5376 22.278 31.5789 22.2557L32.266 21.8837C32.3304 21.8491 32.3555 21.7671 32.3223 21.7021L31.5986 20.2859C31.5457 20.1822 31.4976 19.9769 31.4244 19.651C31.3506 19.3244 31.1995 18.6509 31.0775 18.5506C31.0646 18.5492 31.0524 18.5472 31.0402 18.5425C30.9894 18.5248 25.9258 16.7922 24.4777 18.8352C24.1166 19.3447 24.0549 20.0454 24.3178 20.6626L24.6681 21.4866C25.0591 22.4061 25.1201 23.4042 24.8403 24.2979C24.7366 24.6293 24.5909 24.9464 24.4086 25.2418L22.5425 28.1514L22.5418 28.1521Z" fill="black"/>
<path d="M27.0307 20.6953C26.7637 20.0313 26.3463 19.7826 26.4242 19.4052C26.4717 19.1775 26.6682 19.0346 26.7806 18.9533C27.3376 18.5494 28.0694 18.796 29.5398 19.0732C31.3652 19.4174 31.5733 19.4716 31.9175 19.3354C32.7929 18.9892 33.291 17.9118 33.3289 17.0255C33.3398 16.7768 33.3614 15.4569 32.2414 14.7759C31.4323 14.2839 30.3495 14.3212 29.4748 14.866C29.3982 14.6099 29.239 14.2487 28.8913 14.0712C28.0667 13.6497 26.8369 14.595 26.4066 14.9256C26.0089 15.2312 25.2994 15.8695 24.7912 16.9923C24.6286 16.9015 24.0194 16.5857 23.3554 16.7978C22.3681 17.1136 22.1249 18.3204 22.1039 18.4349C21.8566 19.7684 22.9529 20.9318 23.7802 21.8107C24.2363 22.2952 24.4761 22.4795 24.7438 22.6583C24.9023 22.764 25.107 22.7715 25.2737 22.68C25.2764 22.6787 25.2798 22.6766 25.2825 22.6753C25.5013 22.5547 25.5745 22.2741 25.4431 22.0614L25.4011 21.9936C25.2432 21.7388 25.1354 21.4536 25.1022 21.1548C25.0758 20.9169 25.0948 20.6669 25.2479 20.5388C25.4946 20.3315 25.9147 20.4684 25.975 20.488C26.2826 20.5883 26.4757 20.8166 26.5943 21.0335C26.7217 21.2659 27.1479 20.9894 27.03 20.6947L27.0307 20.6953Z" fill="black"/>
<path d="M12.8374 15.5373C12.7859 15.5373 12.7337 15.5339 12.6816 15.5271C12.0277 15.4438 11.5554 14.8488 11.6286 14.2017C11.6638 13.8894 11.819 13.6109 12.0656 13.4171C12.3163 13.2199 12.6314 13.1338 12.9512 13.1752C13.6051 13.2585 14.0774 13.8534 14.0042 14.5005C13.969 14.8129 13.8138 15.0914 13.5672 15.2852C13.3571 15.4499 13.1023 15.5373 12.8374 15.5373ZM11.9274 14.2356C11.8725 14.7201 12.2282 15.1659 12.7195 15.229C12.9587 15.2595 13.1938 15.1958 13.3808 15.0487C13.5638 14.9051 13.679 14.6984 13.7047 14.4673C13.7596 13.9829 13.4039 13.537 12.9126 13.474C12.6734 13.4435 12.4383 13.5072 12.2513 13.6542C12.0683 13.7979 11.9531 14.0045 11.9274 14.2356Z" fill="black"/>
<path d="M8.29352 17.7537C8.2671 17.7537 8.24135 17.747 8.21695 17.7327L7.21276 17.1385C7.14093 17.0965 7.11722 17.0036 7.15991 16.9325C7.20192 16.8607 7.29475 16.8369 7.36589 16.8796L8.37009 17.4739C8.44192 17.5159 8.46563 17.6087 8.42294 17.6799C8.39516 17.7273 8.34502 17.7537 8.29352 17.7537Z" fill="black"/>
<path d="M10.6314 19.1375C10.605 19.1375 10.5792 19.1307 10.5548 19.1165L9.55065 18.5223C9.47882 18.4796 9.45511 18.3874 9.4978 18.3163C9.53981 18.2445 9.63264 18.2207 9.70379 18.2634L10.708 18.8577C10.7798 18.8997 10.8035 18.9925 10.7608 19.0637C10.7331 19.1111 10.6829 19.1375 10.6314 19.1375Z" fill="black"/>
<path d="M7.97097 19.8209C7.94522 19.8209 7.91879 19.8141 7.8944 19.7999C7.82257 19.7579 7.79886 19.6651 7.84155 19.5939L8.4358 18.5897C8.47849 18.5179 8.56996 18.4942 8.64179 18.5369C8.71361 18.5789 8.73733 18.6717 8.69464 18.7428L8.10039 19.747C8.07193 19.7945 8.02179 19.8209 7.97029 19.8209H7.97097Z" fill="black"/>
<path d="M9.35573 17.4801C9.32998 17.4801 9.30356 17.4733 9.27916 17.4591C9.20734 17.4171 9.18362 17.3242 9.22631 17.2531L9.82056 16.2489C9.86325 16.1771 9.9554 16.1534 10.0266 16.196C10.0984 16.2381 10.1221 16.3309 10.0794 16.402L9.48515 17.4062C9.45737 17.4537 9.40655 17.4801 9.35505 17.4801H9.35573Z" fill="black"/>
<path d="M113.653 123.85H61.0007C57.8397 123.85 55.4755 120.948 56.1118 117.851L64.1 79.0028C64.7715 75.7361 67.6465 73.3916 70.9803 73.3916H116.143L113.653 123.851V123.85Z" fill="white"/>
<path d="M113.654 124H61.0019C59.4502 124 57.9982 123.31 57.0177 122.108C56.0365 120.904 55.653 119.341 55.966 117.82L63.9542 78.972C64.6372 75.6511 67.5929 73.2402 70.9822 73.2402H116.145C116.186 73.2402 116.225 73.2572 116.254 73.287C116.282 73.3168 116.297 73.3568 116.295 73.3981L113.805 123.857C113.801 123.937 113.735 124 113.654 124H113.654ZM70.9816 73.5411C67.7345 73.5411 64.9028 75.8503 64.249 79.0323L56.2608 117.88C55.966 119.313 56.3272 120.784 57.2508 121.917C58.1736 123.049 59.541 123.698 61.0012 123.698H113.509L115.985 73.5404H70.9809L70.9816 73.5411Z" fill="black"/>
<path d="M120.394 123.85H110.176C107.015 123.85 104.651 120.948 105.288 117.85L114.085 75.0616C114.285 74.0886 115.142 73.3906 116.135 73.3906H118.762C119.852 73.3906 120.758 74.2268 120.847 75.313L124.446 119.451C124.639 121.82 122.77 123.849 120.394 123.849V123.85Z" fill="white"/>
<path d="M120.395 124H110.178C108.626 124 107.174 123.31 106.193 122.107C105.212 120.904 104.829 119.341 105.142 117.82L113.94 75.0308C114.153 73.9927 115.077 73.2393 116.136 73.2393H118.764C119.922 73.2393 120.904 74.1445 120.998 75.2998L124.597 119.438C124.692 120.609 124.291 121.776 123.494 122.64C122.698 123.503 121.569 123.999 120.395 123.999V124ZM116.136 73.5408C115.219 73.5408 114.419 74.1926 114.234 75.0918L105.437 117.881C105.142 119.313 105.503 120.784 106.427 121.917C107.349 123.049 108.717 123.698 110.177 123.698H120.395C121.5 123.698 122.523 123.251 123.273 122.437C124.012 121.634 124.386 120.55 124.297 119.463L120.698 75.3249C120.617 74.3241 119.766 73.5408 118.764 73.5408H116.136Z" fill="black"/>
<path d="M117.139 122.482H110.177C109.083 122.482 108.06 121.995 107.368 121.148C106.677 120.299 106.408 119.198 106.628 118.126L109.516 104.08C109.533 103.999 109.612 103.946 109.693 103.963C109.775 103.98 109.827 104.059 109.81 104.141L106.923 118.187C106.721 119.169 106.968 120.179 107.601 120.957C108.235 121.734 109.173 122.18 110.176 122.18H117.138C117.221 122.18 117.288 122.247 117.288 122.331C117.288 122.414 117.221 122.481 117.138 122.481L117.139 122.482Z" fill="black"/>
<path d="M120.395 122.482C120.311 122.482 120.244 122.415 120.244 122.332C120.244 122.248 120.311 122.181 120.395 122.181C121.072 122.181 121.698 121.907 122.157 121.408C122.616 120.909 122.839 120.263 122.784 119.587L121.964 109.528C121.957 109.446 122.019 109.373 122.101 109.366C122.183 109.358 122.257 109.421 122.263 109.503L123.083 119.562C123.146 120.323 122.895 121.05 122.378 121.611C121.861 122.172 121.156 122.481 120.394 122.481L120.395 122.482Z" fill="black"/>
<path d="M119.831 81.6743C119.753 81.6743 119.687 81.6147 119.681 81.5361L119.51 79.4396C119.503 79.3569 119.565 79.2837 119.648 79.277C119.731 79.2695 119.804 79.3319 119.81 79.4145L119.981 81.511C119.987 81.5937 119.926 81.6669 119.843 81.6736C119.839 81.6736 119.835 81.6736 119.831 81.6736V81.6743Z" fill="black"/>
<path d="M113.161 87.2523C113.15 87.2523 113.14 87.2509 113.13 87.2489C113.049 87.232 112.996 87.1527 113.013 87.0714L115.426 75.3374C115.495 75.002 115.793 74.7588 116.135 74.7588H118.763C119.138 74.7588 119.454 75.0515 119.485 75.4242L119.596 76.797C119.603 76.8797 119.542 76.9528 119.459 76.9596C119.377 76.9671 119.304 76.9047 119.297 76.8221L119.185 75.4493C119.168 75.2311 118.982 75.0603 118.764 75.0603H116.136C115.936 75.0603 115.762 75.2026 115.721 75.3984L113.308 87.1324C113.293 87.2035 113.231 87.253 113.161 87.253L113.161 87.2523Z" fill="black"/>
<path d="M106.481 93.9336H65.2559C65.1725 93.9336 65.1055 93.8665 65.1055 93.7832C65.1055 93.6998 65.1725 93.6327 65.2559 93.6327H106.481C107.638 93.6327 108.633 92.8461 108.9 91.7192L112.534 76.3717C112.553 76.291 112.634 76.2409 112.715 76.2599C112.795 76.2788 112.845 76.3602 112.826 76.4408L109.193 91.7883C108.894 93.0514 107.778 93.9336 106.481 93.9336Z" fill="black"/>
<path d="M90.5676 93.7842L89.4129 98.4447C89.2266 99.2334 88.5226 99.7897 87.7128 99.7897H79.5478C78.6588 99.7897 78.0151 98.942 78.2529 98.0849L79.4489 93.7842H90.5676Z" fill="white"/>
<path d="M87.7134 99.9399H79.5484C79.0775 99.9399 78.6438 99.7251 78.3586 99.3497C78.0733 98.9743 77.9818 98.4986 78.1085 98.044L79.3045 93.7433C79.3228 93.6782 79.3817 93.6328 79.4495 93.6328H90.5682C90.6142 93.6328 90.6583 93.6538 90.6867 93.6904C90.7152 93.727 90.7254 93.7744 90.7145 93.8192L89.5599 98.4797C89.3566 99.3382 88.597 99.9392 87.7134 99.9392V99.9399ZM79.564 93.9343L78.3992 98.1246C78.2983 98.4871 78.3715 98.8672 78.5991 99.1674C78.8268 99.4669 79.173 99.639 79.5491 99.639H87.7141C88.4574 99.639 89.0964 99.1335 89.2679 98.4099L90.3764 93.935H79.5647L79.564 93.9343Z" fill="black"/>
<path d="M102.719 120.097H58.9239C58.8405 120.097 58.7734 120.03 58.7734 119.946C58.7734 119.863 58.8405 119.796 58.9239 119.796H102.719C102.802 119.796 102.869 119.864 102.869 119.946C102.869 120.029 102.802 120.097 102.719 120.097Z" fill="black"/>
<path d="M81.3837 71.6279H77.9653C77.0417 71.6279 76.293 72.3774 76.293 73.3009H83.056C83.056 72.3767 82.3073 71.6279 81.3837 71.6279Z" fill="white"/>
<path d="M83.0561 73.4514H76.293C76.2097 73.4514 76.1426 73.3836 76.1426 73.301C76.1426 72.2954 76.9604 71.4775 77.9653 71.4775H81.3838C82.3886 71.4775 83.2065 72.2954 83.2065 73.301C83.2065 73.3843 83.1394 73.4514 83.0561 73.4514ZM76.4509 73.1505H82.8982C82.8223 72.3815 82.1725 71.7784 81.3838 71.7784H77.9653C77.1773 71.7784 76.5268 72.3815 76.4509 73.1505Z" fill="black"/>
<path d="M108.782 71.6279H105.364C104.44 71.6279 103.691 72.3774 103.691 73.3009H110.454C110.454 72.3767 109.706 71.6279 108.782 71.6279Z" fill="black"/>
<path d="M110.455 73.4514H103.691C103.608 73.4514 103.541 73.3836 103.541 73.301C103.541 72.2954 104.359 71.4775 105.364 71.4775H108.782C109.787 71.4775 110.605 72.2954 110.605 73.301C110.605 73.3843 110.537 73.4514 110.455 73.4514ZM103.849 73.1505H110.297C110.221 72.3815 109.571 71.7784 108.782 71.7784H105.364C104.576 71.7784 103.925 72.3815 103.849 73.1505Z" fill="black"/>
<path d="M107.889 71.5378L108.44 68.2643C108.831 65.9429 107.266 64.0605 104.946 64.0605H84.4464C82.1256 64.0605 79.9282 65.9429 79.5372 68.2643L78.9863 71.5378H80.555L80.9839 68.9901C81.2881 67.1829 82.9984 65.7186 84.8048 65.7186H104.03C105.835 65.7186 107.054 67.1836 106.749 68.9901L106.321 71.5378H107.889Z" fill="white"/>
<path d="M107.889 71.6883H106.32C106.276 71.6883 106.234 71.6686 106.205 71.6347C106.176 71.6009 106.164 71.5561 106.172 71.5128L106.601 68.965C106.741 68.1268 106.547 67.3422 106.052 66.7574C105.567 66.1848 104.849 65.8691 104.03 65.8691H84.805C83.0717 65.8691 81.4245 67.2805 81.1324 69.0152L80.7035 71.5629C80.6913 71.6354 80.6283 71.6883 80.5551 71.6883H78.9865C78.9424 71.6883 78.9004 71.6686 78.8713 71.6347C78.8428 71.6009 78.8306 71.5561 78.8381 71.5128L79.389 68.2393C79.7908 65.8521 82.0594 63.9102 84.4465 63.9102H104.946C106.102 63.9102 107.118 64.3587 107.807 65.1732C108.509 66.0039 108.787 67.1104 108.589 68.2895L108.038 71.5629C108.026 71.6354 107.962 71.6883 107.889 71.6883H107.889ZM106.498 71.3874H107.761L108.291 68.2393C108.475 67.1497 108.221 66.1293 107.576 65.3677C106.945 64.6216 106.011 64.211 104.945 64.211H84.4459C82.199 64.211 80.0639 66.0405 79.6851 68.2895L79.164 71.3874H80.4277L80.835 68.965C81.15 67.0915 82.9308 65.5676 84.8043 65.5676H104.029C104.939 65.5676 105.739 65.9206 106.281 66.5623C106.834 67.2168 107.053 68.0875 106.897 69.0145L106.498 71.3867L106.498 71.3874Z" fill="black"/>
<path d="M103.928 62.7051H85.9206C85.1949 62.7051 84.5078 63.2939 84.3851 64.0196L84.1202 65.593C83.9982 66.3187 84.4875 66.9075 85.2132 66.9075H103.22C103.946 66.9075 104.633 66.3187 104.756 65.593L105.021 64.0196C105.143 63.2939 104.653 62.7051 103.928 62.7051Z" fill="white"/>
<path d="M103.221 67.058H85.2135C84.8212 67.058 84.4756 66.9048 84.2398 66.6264C84 66.3431 83.9051 65.9671 83.9722 65.568L84.2371 63.9946C84.3706 63.2004 85.1261 62.5547 85.9209 62.5547H103.928C104.32 62.5547 104.666 62.7078 104.902 62.9863C105.142 63.2696 105.236 63.6456 105.169 64.0447L104.904 65.6181C104.771 66.4122 104.015 67.058 103.221 67.058ZM85.9209 62.8555C85.2664 62.8555 84.6443 63.3888 84.5346 64.0447L84.2696 65.6181C84.2175 65.9284 84.2886 66.2178 84.4702 66.4319C84.6477 66.6413 84.9113 66.7571 85.2142 66.7571H103.221C103.876 66.7571 104.498 66.2239 104.608 65.568L104.873 63.9946C104.925 63.6842 104.854 63.3949 104.672 63.1808C104.494 62.9714 104.231 62.8555 103.928 62.8555H85.9209Z" fill="black"/>
<path d="M92.8961 67.058H85.2135C84.8212 67.058 84.4756 66.9048 84.2398 66.6264C84 66.3431 83.9051 65.9671 83.9722 65.568L84.2371 63.9946C84.3706 63.2004 85.1261 62.5547 85.9209 62.5547H91.9271C92.0105 62.5547 92.0776 62.6224 92.0776 62.7051C92.0776 62.7878 92.0105 62.8555 91.9271 62.8555H85.9209C85.2664 62.8555 84.6443 63.3888 84.5346 64.0447L84.2696 65.6181C84.2175 65.9284 84.2886 66.2178 84.4702 66.4319C84.6477 66.6413 84.9113 66.7571 85.2142 66.7571H92.8968C92.9801 66.7571 93.0472 66.8249 93.0472 66.9076C93.0472 66.9902 92.9794 67.058 92.8968 67.058H92.8961Z" fill="black"/>
<path d="M110.08 120.098C110.028 120.098 109.977 120.071 109.95 120.022C109.908 119.949 109.933 119.858 110.006 119.816L116.988 115.836V76.4063C116.988 76.3229 117.056 76.2559 117.138 76.2559C117.221 76.2559 117.289 76.3229 117.289 76.4063V115.924C117.289 115.978 117.259 116.028 117.213 116.054L110.155 120.078C110.131 120.092 110.106 120.098 110.08 120.098Z" fill="black"/>
<path d="M109.805 72.4049C109.805 72.4049 112.946 73.5758 114.178 72.5899C115.41 71.604 112.268 69.9398 111.529 70.0631C110.79 70.1864 109.805 72.4049 109.805 72.4049Z" fill="black"/>
<path d="M94.0176 97.5307L96.9739 102.708L98.5758 100.489L95.9887 95.4355L94.0176 97.5307Z" fill="white"/>
<path d="M96.9747 102.858C96.9747 102.858 96.9693 102.858 96.9666 102.858C96.9158 102.855 96.869 102.827 96.844 102.782L93.8869 97.6051C93.8544 97.5475 93.8625 97.4756 93.9079 97.4268L95.879 95.3317C95.9123 95.2958 95.961 95.2789 96.0098 95.2856C96.0586 95.2924 96.1006 95.3222 96.123 95.3663L98.71 100.42C98.7358 100.47 98.7311 100.531 98.6979 100.576L97.096 102.795C97.0676 102.834 97.0222 102.857 96.974 102.857L96.9747 102.858ZM94.204 97.5529L96.9896 102.43L98.4004 100.475L95.9522 95.6942L94.204 97.5529Z" fill="black"/>
<path d="M95.9504 101.917C96.7303 103.525 98.7034 107.425 100.605 109.295C101.069 109.751 101.853 109.539 102.02 108.91C102.615 106.658 103.011 101.967 100.794 98.2697C100.794 98.2697 99.7395 98.1464 97.7684 98.5164L98.2068 100.365L97.9649 100.192C97.6003 99.9319 97.1057 99.9536 96.7655 100.245L96.1977 100.732C95.8555 101.026 95.7545 101.512 95.951 101.917H95.9504Z" fill="black"/>
<path d="M100.916 108.774C100.898 108.774 100.88 108.771 100.862 108.764C100.784 108.735 100.745 108.648 100.775 108.571C102.458 104.12 100.185 98.877 100.161 98.8248C100.128 98.7489 100.162 98.6602 100.239 98.6263C100.315 98.5924 100.403 98.627 100.437 98.7035C100.461 98.7571 102.783 104.113 101.057 108.678C101.034 108.738 100.977 108.775 100.916 108.775V108.774Z" fill="white"/>
<path d="M97.0984 104.31C97.049 104.31 97.0008 104.286 96.9717 104.242C96.9263 104.172 96.946 104.078 97.0157 104.034L98.4943 103.074C98.5641 103.029 98.6576 103.048 98.7023 103.118C98.7477 103.188 98.728 103.282 98.6582 103.326L97.1797 104.286C97.1547 104.302 97.1262 104.31 97.0977 104.31H97.0984Z" fill="white"/>
<path d="M97.8359 105.624C97.7905 105.624 97.7458 105.603 97.7167 105.565C97.6659 105.499 97.6787 105.404 97.7445 105.353L99.0997 104.313C99.1654 104.262 99.2602 104.274 99.3111 104.34C99.3619 104.406 99.349 104.501 99.2833 104.552L97.9281 105.593C97.901 105.614 97.8685 105.624 97.8366 105.624H97.8359Z" fill="white"/>
<path d="M84.6537 97.6533C84.6537 97.7766 81.9434 103.693 81.9434 103.693L85.023 103.939L87.1175 98.8859L84.6537 97.6533Z" fill="white"/>
<path d="M85.0236 104.09C85.0195 104.09 85.0155 104.09 85.0114 104.09L81.9317 103.843C81.8829 103.839 81.8389 103.812 81.8138 103.77C81.7887 103.727 81.786 103.675 81.807 103.631C82.8533 101.346 84.4287 97.8785 84.5059 97.6278C84.5134 97.5858 84.5384 97.5486 84.575 97.5255C84.6197 97.4977 84.6746 97.4957 84.7214 97.5187L87.1851 98.7513C87.2556 98.7865 87.2868 98.8705 87.2569 98.9437L85.1625 103.997C85.1388 104.053 85.0839 104.09 85.0236 104.09ZM82.1702 103.56L84.9267 103.781L86.9256 98.9586L84.7336 97.8623C84.5669 98.2729 84.0133 99.5366 82.1709 103.561L82.1702 103.56Z" fill="black"/>
<path d="M84.7772 102.46C84.7772 102.46 84.1613 100.981 82.5595 101.721C82.5595 101.721 79.6194 105.969 78.5271 109.477C78.2181 110.469 79.2365 111.364 80.1831 110.936C82.3989 109.935 85.8709 107.835 87.8576 103.94C87.8576 103.94 87.2416 102.338 86.2557 101.598L84.7772 102.461V102.46Z" fill="black"/>
<path d="M79.4319 110.017C79.3052 110.017 79.2306 110.008 79.2123 110.005C79.1304 109.993 79.0734 109.916 79.0856 109.834C79.0978 109.752 79.1737 109.696 79.2564 109.708C79.2909 109.712 82.5631 110.091 86.9979 103.975C87.0467 103.908 87.1409 103.893 87.208 103.942C87.275 103.991 87.2906 104.085 87.2412 104.152C83.2867 109.605 80.2579 110.018 79.4319 110.018V110.017Z" fill="white"/>
<path d="M81.9436 106.678C81.9179 106.678 81.8915 106.672 81.8678 106.658L80.3892 105.795C80.3174 105.753 80.293 105.661 80.335 105.589C80.377 105.518 80.4692 105.493 80.541 105.535L82.0195 106.398C82.0914 106.44 82.1157 106.532 82.0737 106.604C82.046 106.652 81.9951 106.678 81.9436 106.678Z" fill="white"/>
<path d="M82.6836 105.569C82.6592 105.569 82.6348 105.563 82.6125 105.551L81.0106 104.688C80.9375 104.649 80.9104 104.557 80.9497 104.484C80.989 104.411 81.0804 104.384 81.1536 104.423L82.7554 105.286C82.8286 105.325 82.8557 105.417 82.8164 105.49C82.7893 105.54 82.7371 105.569 82.6836 105.569Z" fill="white"/>
<path d="M100.424 67.8271C100.424 67.8271 92.3945 69.2616 86.6079 75.3322C85.1477 76.8642 84.6313 79.0698 85.2581 81.0924C86.5435 85.2413 89.342 92.8189 94.0181 98.5175L97.591 95.4364C97.591 95.4364 96.7284 88.2878 94.388 83.8509C92.0469 79.414 105.722 69.8003 105.722 69.8003L100.425 67.8285L100.424 67.8271Z" fill="white"/>
<path d="M94.0182 98.6678C94.0142 98.6678 94.0094 98.6678 94.0054 98.6678C93.9647 98.6644 93.9274 98.6448 93.9017 98.6136C89.1863 92.8669 86.3722 85.1972 85.114 81.1378C84.4716 79.0637 85.0022 76.7998 86.499 75.2291C92.2531 69.1931 100.317 67.6943 100.398 67.68C100.424 67.6753 100.451 67.678 100.477 67.6868L105.775 69.6586C105.827 69.6783 105.864 69.725 105.871 69.7806C105.879 69.8362 105.854 69.891 105.808 69.9229C105.673 70.0184 92.268 79.5102 94.521 83.7804C96.8479 88.1909 97.7315 95.3463 97.7403 95.4181C97.7464 95.4682 97.7274 95.5177 97.6895 95.5502L94.1165 98.6312C94.0887 98.655 94.0541 98.6678 94.0182 98.6678ZM100.411 67.9829C99.7934 68.1035 92.1941 69.6905 86.7171 75.4358C85.2956 76.9272 84.7914 79.0772 85.4019 81.0476C86.6446 85.0583 89.4126 92.6088 94.0372 98.3026L97.4313 95.3754C97.3276 94.5813 96.4237 88.033 94.2547 83.9213C92.022 79.6891 103.544 71.1778 105.403 69.8423L100.411 67.9843V67.9829Z" fill="black"/>
<path d="M83.668 98.7634L87.8569 99.996C87.8569 99.996 95.4954 83.8495 97.7125 81.5078C99.9303 79.166 104.242 75.345 108.8 73.9892C113.358 72.6333 113.358 69.1823 113.358 69.1823L105.597 66.9639C105.597 66.9639 94.7555 71.6474 91.1832 76.9476C87.6102 82.2477 83.668 98.7634 83.668 98.7634Z" fill="white"/>
<path d="M87.8571 100.146C87.8429 100.146 87.8286 100.144 87.8144 100.14L83.6255 98.9073C83.5489 98.8849 83.5029 98.8057 83.5218 98.7277C83.5611 98.5624 87.5115 82.1246 91.0587 76.8631C94.6148 71.5873 105.429 66.8726 105.538 66.8259C105.57 66.8123 105.606 66.8096 105.639 66.8191L113.4 69.0375C113.465 69.0558 113.51 69.1148 113.51 69.1825C113.51 69.2185 113.456 72.7616 108.844 74.1337C103.753 75.6475 99.1208 80.2402 97.8225 81.6117C95.6467 83.9094 88.0699 99.8993 87.9933 100.061C87.9682 100.114 87.914 100.147 87.8571 100.147V100.146ZM83.8484 98.6586L87.7765 99.8146C88.5239 98.2392 95.4699 83.658 97.6036 81.4037C98.9155 80.0187 103.596 75.3798 108.758 73.8444C112.698 72.6722 113.15 69.8859 113.202 69.2937L105.608 67.1233C104.812 67.4743 94.6934 72.0095 91.3081 77.0311C87.9642 81.9911 84.2401 97.048 83.8484 98.6586Z" fill="black"/>
<path d="M119.643 56.4873C117.549 52.2963 114.099 51.6804 114.099 51.6804L108.186 51.1871C106.337 51.0618 104.371 52.2049 103.641 53.909L98.207 66.5936C98.207 66.5936 99.3156 69.552 104.244 70.0446C109.172 70.5379 112.56 70.2296 114.161 72.2014C115.217 73.5017 115.184 64.8305 114.576 57.9726L119.643 56.4866V56.4873Z" fill="white"/>
<path d="M114.36 72.4836C114.271 72.4836 114.161 72.4402 114.045 72.2966C112.844 70.8181 110.527 70.6602 107.319 70.4406C106.391 70.3769 105.338 70.3051 104.229 70.1947C99.2649 69.698 98.113 66.7708 98.0662 66.6468C98.0527 66.6102 98.0534 66.5702 98.069 66.5343L103.503 53.8497C104.245 52.1157 106.262 50.9062 108.196 51.037L114.112 51.5303C114.162 51.5384 117.675 52.2106 119.778 56.4198C119.798 56.4598 119.799 56.5066 119.782 56.5472C119.764 56.5879 119.729 56.619 119.686 56.6312L114.738 58.0826C115.162 62.9607 115.512 72.0391 114.471 72.4619C114.439 72.4748 114.402 72.4836 114.361 72.4836H114.36ZM98.3712 66.5939C98.5514 66.9876 99.8537 69.4547 104.259 69.8952C105.363 70.0056 106.413 70.0774 107.339 70.1405C110.623 70.3647 112.995 70.5267 114.278 72.1068C114.333 72.1746 114.363 72.1821 114.363 72.1821C114.376 72.1753 114.831 71.9442 114.85 67.3793C114.86 64.616 114.703 61.1047 114.426 57.9864C114.42 57.9146 114.465 57.8489 114.534 57.8285L119.427 56.3941C117.382 52.462 114.106 51.8345 114.073 51.8291L108.173 51.3379C106.364 51.2152 104.474 52.3468 103.779 53.969L98.3705 66.5946L98.3712 66.5939Z" fill="black"/>
<path d="M103.828 67.4108L106.539 66.1782L108.633 67.0408C108.633 67.0408 119.984 65.9025 114.96 57.8608C114.939 57.8262 118.793 56.7373 118.793 56.7373C118.793 56.7373 123.372 67.6574 108.88 67.9041C108.88 67.9041 108.14 68.1507 107.155 67.6574C106.169 67.1641 104.445 68.1507 103.829 67.4108H103.828Z" fill="white"/>
<path d="M108.386 68.1167C108.059 68.1167 107.605 68.051 107.087 67.7922C106.669 67.5828 106.074 67.6716 105.499 67.7569C104.777 67.8647 104.095 67.9663 103.713 67.5069C103.683 67.471 103.671 67.4229 103.681 67.3768C103.692 67.3307 103.723 67.2928 103.766 67.2731L106.476 66.0406C106.514 66.0236 106.558 66.023 106.596 66.0386L108.655 66.8869C109.142 66.83 114.283 66.1632 115.718 63.2374C116.426 61.7948 116.128 60.0127 114.833 57.9399C114.808 57.9 114.803 57.8498 114.82 57.8051C114.856 57.7116 114.865 57.6899 118.752 56.5915C118.826 56.5712 118.902 56.6078 118.931 56.6782C118.949 56.7209 120.7 60.9925 118.559 64.2714C116.976 66.6958 113.727 67.9683 108.903 68.0537C108.839 68.072 108.655 68.1161 108.386 68.1161V68.1167ZM106.424 67.3619C106.71 67.3619 106.982 67.4026 107.222 67.5232C108.134 67.9792 108.826 67.7637 108.833 67.761C108.847 67.7563 108.863 67.7535 108.878 67.7535C113.608 67.6729 116.781 66.4465 118.308 64.1074C120.162 61.2683 118.967 57.6323 118.702 56.9195C117.449 57.2739 115.716 57.7712 115.186 57.9393C116.457 60.0398 116.727 61.8666 115.989 63.3715C114.414 66.5786 108.883 67.1681 108.649 67.1918C108.624 67.1939 108.599 67.1905 108.576 67.181L106.542 66.3428L104.111 67.4486C104.423 67.6133 104.927 67.5387 105.455 67.4601C105.78 67.412 106.111 67.3626 106.424 67.3626V67.3619Z" fill="black"/>
<path d="M93.4972 68.3893H104.183L96.2611 56.2007C96.0137 55.8199 95.5821 55.5889 95.1186 55.5889H86.4468C85.8959 55.5889 85.5612 56.1784 85.8552 56.631L93.4972 68.3893Z" fill="#FFD504"/>
<path d="M93.55 60.604C93.7714 60.2636 93.4374 59.6538 92.804 59.2418C92.1706 58.8299 91.4777 58.7718 91.2563 59.1122C91.0349 59.4526 91.3689 60.0625 92.0023 60.4744C92.6357 60.8864 93.3286 60.9444 93.55 60.604Z" fill="white"/>
<path d="M93.0345 60.9812C92.4057 60.9812 91.6176 60.5265 91.2402 59.9451C91.0315 59.624 90.9841 59.3055 91.1108 59.0724C91.2253 58.8617 91.4618 58.7451 91.7769 58.7451C92.405 58.7451 93.1937 59.1998 93.5711 59.7812C93.7798 60.1023 93.8273 60.4208 93.7006 60.6539C93.5861 60.8646 93.3496 60.9812 93.0345 60.9812ZM91.7769 59.0467C91.5777 59.0467 91.4347 59.107 91.3751 59.2161C91.3026 59.3495 91.3452 59.5555 91.4923 59.7812C91.8087 60.2684 92.5148 60.6797 93.0338 60.6797C93.233 60.6797 93.376 60.6193 93.435 60.5103C93.5075 60.3768 93.4648 60.1708 93.3177 59.9451C93.0013 59.458 92.2952 59.0467 91.7762 59.0467H91.7769Z" fill="#FFD504"/>
<path d="M110.688 69.3057H94.2494C93.8137 69.3057 93.46 68.952 93.46 68.5163V68.3103H111.477V68.5163C111.477 68.952 111.123 69.3057 110.687 69.3057H110.688Z" fill="#FFD504"/>
<path d="M115.209 22.8392C119.733 21.4102 125.583 27.9036 124.405 33.2444C124.079 34.7175 124.439 36.9454 122.825 37.7592C119.962 39.2025 118.162 37.455 117.426 38.6157C116.789 39.6219 119.054 41.072 118.781 43.1759C118.376 46.3023 112.766 47.8113 112.129 47.9828C111.653 48.1108 104.957 49.8218 101.78 46.2569C101.015 45.3984 100.011 43.7376 100.548 42.6826C101.06 41.6764 102.631 41.8925 103.012 40.8341C103.342 39.9167 102.289 39.4037 102.396 38.369C102.601 36.3742 106.721 36.2712 107.201 34.1781C107.584 32.5051 105.19 31.5213 105.599 29.8645C105.929 28.5283 107.651 28.4924 110.404 26.7835C113.699 24.7372 113.495 23.3806 115.208 22.8392H115.209Z" fill="black"/>
<path d="M110.16 50.8177C110.05 50.7628 108.567 49.0132 107.7 47.9826C107.766 47.6967 107.756 47.6052 107.732 47.1715C107.732 47.1715 108.182 46.7209 108.001 46.1362C107.792 45.4565 107.147 46.002 107.147 46.002C107.147 46.002 106.848 45.4796 105.725 46.3801C104.601 47.2813 103.414 46.185 103.414 46.185C103.414 46.185 103.414 46.8598 104.008 47.6797C104.336 48.1324 104.391 48.73 104.407 49.2883L105.036 49.1975C105.383 49.6082 105.641 49.8094 106.116 50.0066C106.116 50.0066 106.492 49.9375 106.883 49.6143L107.573 51.1863L106.87 51.5562C106.87 51.5562 106.711 52.5422 108.559 52.7888C110.407 53.0354 111.885 51.5562 111.885 51.5562C111.885 51.5562 110.899 51.1863 110.161 50.817L110.16 50.8177Z" fill="white"/>
<path d="M108.981 52.9686C108.836 52.9686 108.688 52.9591 108.537 52.9394C107.75 52.8344 107.205 52.5857 106.919 52.2002C106.669 51.8641 106.717 51.547 106.719 51.5341C106.726 51.4873 106.755 51.4467 106.797 51.425L107.377 51.1207L106.82 49.8516C106.465 50.0955 106.156 50.1545 106.141 50.1572C106.113 50.1626 106.083 50.1592 106.057 50.1484C105.593 49.9566 105.32 49.7601 104.974 49.361L104.427 49.4396C104.384 49.4457 104.341 49.4335 104.308 49.4058C104.275 49.378 104.256 49.338 104.254 49.2946C104.239 48.7471 104.184 48.1834 103.884 47.77C103.27 46.9203 103.262 46.2163 103.262 46.1872C103.262 46.1276 103.297 46.0733 103.352 46.0496C103.407 46.0252 103.47 46.0361 103.514 46.0767C103.559 46.1181 104.622 47.0728 105.629 46.2651C106.163 45.8369 106.604 45.6512 106.938 45.7149C107.034 45.7332 107.106 45.7698 107.159 45.8077C107.297 45.7183 107.538 45.599 107.769 45.6661C107.946 45.7176 108.072 45.8619 108.144 46.0937C108.313 46.6425 108.008 47.0796 107.885 47.2273V47.2341C107.905 47.579 107.911 47.705 107.862 47.9442C109.838 50.2914 110.178 50.641 110.236 50.6898C110.958 51.0503 111.926 51.4141 111.936 51.4182C111.984 51.4365 112.019 51.4772 112.03 51.5273C112.041 51.5774 112.025 51.6296 111.989 51.6655C111.932 51.7231 110.664 52.9706 108.981 52.9706L108.981 52.9686ZM107.016 51.65C107.021 51.7313 107.049 51.8742 107.167 52.0287C107.402 52.3377 107.89 52.5491 108.576 52.6406C109.969 52.8263 111.161 51.9732 111.598 51.6086C111.259 51.4751 110.612 51.2129 110.091 50.952C110.04 50.927 109.936 50.8748 107.583 48.079C107.553 48.0431 107.541 47.9943 107.552 47.9482C107.609 47.6989 107.604 47.621 107.584 47.2476L107.58 47.1792C107.578 47.1365 107.594 47.0952 107.624 47.0647C107.64 47.0491 108.006 46.6683 107.856 46.1804C107.816 46.051 107.758 45.9744 107.684 45.9527C107.545 45.9121 107.327 46.0456 107.243 46.1167C107.209 46.1458 107.163 46.1574 107.119 46.1499C107.075 46.1425 107.037 46.1154 107.015 46.0761C107.015 46.0761 106.975 46.0218 106.869 46.0056C106.731 45.9846 106.411 46.0212 105.818 46.4968C104.962 47.1826 104.071 46.8045 103.617 46.5192C103.68 46.7787 103.821 47.1649 104.129 47.5905C104.443 48.0248 104.525 48.5723 104.55 49.1151L105.013 49.0487C105.065 49.0412 105.116 49.0609 105.149 49.1008C105.48 49.4918 105.714 49.6727 106.127 49.8489C106.228 49.8218 106.503 49.7317 106.785 49.4986C106.822 49.4681 106.871 49.4573 106.916 49.4681C106.962 49.4789 107 49.5108 107.019 49.5541L107.709 51.1262C107.741 51.1987 107.711 51.2834 107.641 51.32L107.016 51.6486V51.65Z" fill="black"/>
<path d="M106.881 49.7661C106.84 49.7661 106.799 49.7492 106.769 49.7167C106.714 49.655 106.718 49.5595 106.78 49.5039L106.983 49.321C107.045 49.2654 107.141 49.2701 107.196 49.3318C107.252 49.3935 107.247 49.489 107.185 49.5446L106.982 49.7275C106.954 49.7533 106.917 49.7661 106.881 49.7661Z" fill="black"/>
<path d="M47.4186 29.4551L40.8066 44.7667L46.6529 42.8369L49.8783 48.093L53.8456 31.7365L47.4186 29.4551Z" fill="white"/>
<path d="M49.8773 48.2433C49.8258 48.2433 49.777 48.2169 49.7492 48.1715L46.5855 43.0177L40.8524 44.9096C40.7962 44.9279 40.7345 44.9123 40.6938 44.8682C40.6539 44.8242 40.643 44.7612 40.6667 44.707L47.2794 29.3953C47.3106 29.3228 47.3932 29.2869 47.4678 29.3134L53.8947 31.5941C53.9672 31.6199 54.0093 31.6965 53.991 31.7717L50.0236 48.1281C50.0094 48.1871 49.9606 48.2318 49.901 48.2413C49.8929 48.2427 49.8854 48.2433 49.8773 48.2433ZM46.6513 42.6864C46.7028 42.6864 46.7515 42.7128 46.7793 42.7582L49.8156 47.7053L53.6657 31.8327L47.4996 29.644L41.076 44.5179L46.6038 42.6931C46.6194 42.6877 46.635 42.6857 46.6513 42.6857V42.6864Z" fill="black"/>
<path d="M53.2402 32.3048L57.7645 48.3583L61.0841 43.1714L66.9006 45.2129L59.6652 30.0186L53.2402 32.3048Z" fill="white"/>
<path d="M57.7649 48.5084C57.7575 48.5084 57.75 48.5084 57.7425 48.507C57.6843 48.4982 57.6362 48.4562 57.6199 48.3986L53.0956 32.345C53.0739 32.2685 53.1153 32.1892 53.1898 32.1621L59.6147 29.8759C59.6872 29.8501 59.7679 29.8833 59.8011 29.9531L67.0364 45.1482C67.0629 45.2031 67.0534 45.2681 67.0127 45.3135C66.9721 45.3589 66.9084 45.3752 66.8508 45.3549L61.1461 43.3526L57.8909 48.4393C57.8632 48.4826 57.815 48.5084 57.7642 48.5084H57.7649ZM53.4242 32.3992L57.8191 47.9941L60.9577 43.0897C60.9957 43.0307 61.0689 43.0056 61.1346 43.0287L66.6102 44.951L59.5883 30.2052L53.4242 32.3986V32.3992Z" fill="black"/>
<path d="M66.3887 25.54L64.5836 27.7306L65.4164 30.4458L62.9079 31.7752L62.6369 34.6015L59.8113 34.8732L58.4826 37.3823L55.7695 36.5489L53.5795 38.3553L51.3895 36.5489L48.6757 37.3823L47.3469 34.8725L44.5214 34.6015L44.2503 31.7745L41.7419 30.4458L42.5746 27.7306L40.7695 25.54L42.5746 23.3486L41.7419 20.6342L44.2503 19.3047L44.5214 16.4778L47.3469 16.2068L48.6757 13.697L51.3895 14.5304L53.5795 12.7246L55.7695 14.5304L58.4826 13.697L59.8113 16.2068L62.6369 16.4778L62.9079 19.3047L65.4164 20.6342L64.5836 23.3486L66.3887 25.54Z" fill="#FFD504"/>
<path d="M53.5019 34.6917C58.5113 34.6917 62.5722 30.629 62.5722 25.6173C62.5722 20.6057 58.5113 16.543 53.5019 16.543C48.4926 16.543 44.4316 20.6057 44.4316 25.6173C44.4316 30.629 48.4926 34.6917 53.5019 34.6917Z" fill="white"/>
<path d="M53.502 34.8431C48.4173 34.8431 44.2812 30.705 44.2812 25.6183C44.2812 20.5316 48.418 16.3936 53.502 16.3936C58.586 16.3936 62.7227 20.5316 62.7227 25.6183C62.7227 30.705 58.586 34.8431 53.502 34.8431ZM53.502 16.6944C48.5833 16.6944 44.5821 20.6976 44.5821 25.6183C44.5821 30.539 48.5833 34.5423 53.502 34.5423C58.4206 34.5423 62.4218 30.539 62.4218 25.6183C62.4218 20.6976 58.4206 16.6944 53.502 16.6944Z" fill="#FFD504"/>
<path d="M53.056 30.2077C52.934 30.2077 52.8161 30.1582 52.7307 30.0694L49.2472 26.4497C49.0744 26.2701 49.0798 25.9842 49.2594 25.8107C49.439 25.6379 49.7249 25.6434 49.8984 25.8229L52.9977 29.0435L57.4542 22.561C57.5959 22.3557 57.8771 22.3035 58.0824 22.4444C58.2877 22.5861 58.3399 22.8673 58.1989 23.0726L53.4286 30.0111C53.3514 30.1229 53.2288 30.1941 53.0932 30.2056C53.081 30.2063 53.0688 30.207 53.056 30.207V30.2077Z" fill="#FFD504"/>
<path d="M89.3763 24.4558L87.7216 24.7112L86.6503 23.5485C86.4199 23.2984 85.9761 23.4306 85.8995 23.7721L85.5418 25.3604L84.0016 26.0569C83.6702 26.2067 83.637 26.6485 83.9453 26.805L85.3791 27.5314L85.4984 29.1244C85.5241 29.4666 85.9476 29.6075 86.2146 29.3629L87.4587 28.2232L89.0727 28.5112C89.4196 28.5728 89.7144 28.2185 89.5714 27.9108L88.906 26.4804L89.7842 25.0649C89.9732 24.7607 89.732 24.4002 89.3756 24.4558H89.3763Z" fill="#FFD504"/>
<path d="M95.8716 20.9118L94.2447 21.2344L93.1498 20.1001C92.9146 19.8561 92.4803 20.0072 92.4146 20.3555L92.111 21.975L90.6108 22.7386C90.2883 22.9026 90.2693 23.3512 90.579 23.4969L92.0188 24.1758L92.1869 25.7817C92.2228 26.1273 92.6456 26.2533 92.9024 25.9951L94.0957 24.7951L95.6995 25.0242C96.0444 25.0736 96.3243 24.703 96.1732 24.3981L95.4712 22.9771L96.2945 21.5122C96.4713 21.1971 96.222 20.8427 95.8716 20.9118Z" fill="#FFD504"/>
<path d="M102.923 17.9526L101.312 18.2013L100.288 16.9945C100.067 16.7349 99.6343 16.8671 99.5551 17.2181L99.1858 18.8511L97.6808 19.5551C97.3569 19.7062 97.319 20.1615 97.6165 20.3248L98.9988 21.0858L99.0929 22.7276C99.1133 23.0806 99.5225 23.2297 99.7854 22.9797L101.009 21.8169L102.572 22.1279C102.908 22.195 103.199 21.8318 103.064 21.514L102.438 20.0348L103.31 18.5855C103.498 18.2738 103.268 17.9004 102.922 17.9539L102.923 17.9526Z" fill="#FFD504"/>
<path d="M109.727 15.0646L108.129 15.3804L107.055 14.2177C106.824 13.9676 106.397 14.118 106.333 14.4718L106.032 16.1183L104.558 16.8847C104.241 17.0493 104.222 17.5053 104.525 17.6565L105.938 18.3584L106.102 19.9948C106.137 20.3465 106.551 20.478 106.804 20.2171L107.977 19.0042L109.552 19.2495C109.891 19.3023 110.166 18.9276 110.018 18.6152L109.33 17.1638L110.141 15.6786C110.315 15.3594 110.07 14.9962 109.727 15.064L109.727 15.0646Z" fill="#FFD504"/>
</svg>
